<svg width="132" height="63" viewBox="0 0 132 63" fill="none" xmlns="http://www.w3.org/2000/svg">
<rect x="1.74805" y="4.76666" width="128.176" height="56.7333" rx="19.5" fill="#FDD8C1" stroke="#6B2F00" stroke-width="3"/>
<rect x="11.3462" y="1.5" width="118.578" height="49.7333" rx="19.5" fill="#F9EFE3" stroke="#6B2F00" stroke-width="3"/>
<path d="M35.6839 32.4287C34.4239 32.4287 33.3439 32.1647 32.4439 31.6367C31.5439 31.1087 30.8479 30.3587 30.3559 29.3867C29.8759 28.4027 29.6359 27.2447 29.6359 25.9127C29.6359 24.9167 29.7739 24.0227 30.0499 23.2307C30.3259 22.4267 30.7219 21.7427 31.2379 21.1787C31.7539 20.6027 32.3839 20.1647 33.1279 19.8647C33.8839 19.5647 34.7359 19.4147 35.6839 19.4147C36.4039 19.4147 37.0939 19.5167 37.7539 19.7207C38.4259 19.9247 39.0019 20.2127 39.4819 20.5847C39.6739 20.7167 39.7999 20.8667 39.8599 21.0347C39.9199 21.2027 39.9259 21.3647 39.8779 21.5207C39.8419 21.6647 39.7639 21.7907 39.6439 21.8987C39.5359 21.9947 39.3979 22.0487 39.2299 22.0607C39.0619 22.0607 38.8819 21.9947 38.6899 21.8627C38.2699 21.5387 37.8079 21.3047 37.3039 21.1607C36.8119 21.0047 36.2839 20.9267 35.7199 20.9267C34.7959 20.9267 34.0099 21.1247 33.3619 21.5207C32.7259 21.9047 32.2399 22.4687 31.9039 23.2127C31.5799 23.9447 31.4179 24.8447 31.4179 25.9127C31.4179 26.9687 31.5799 27.8747 31.9039 28.6307C32.2399 29.3747 32.7259 29.9447 33.3619 30.3407C34.0099 30.7247 34.7959 30.9167 35.7199 30.9167C36.2839 30.9167 36.8179 30.8387 37.3219 30.6827C37.8379 30.5267 38.3119 30.2867 38.7439 29.9627C38.9359 29.8307 39.1099 29.7707 39.2659 29.7827C39.4339 29.7947 39.5719 29.8487 39.6799 29.9447C39.7879 30.0287 39.8599 30.1487 39.8959 30.3047C39.9439 30.4487 39.9439 30.5987 39.8959 30.7547C39.8479 30.9107 39.7399 31.0487 39.5719 31.1687C39.0799 31.5887 38.4919 31.9067 37.8079 32.1227C37.1359 32.3267 36.4279 32.4287 35.6839 32.4287ZM44.3276 32.4287C43.7276 32.4287 43.1816 32.3087 42.6896 32.0687C42.2096 31.8287 41.8316 31.5047 41.5556 31.0967C41.2916 30.6887 41.1596 30.2327 41.1596 29.7287C41.1596 29.0807 41.3216 28.5707 41.6456 28.1987C41.9696 27.8267 42.5156 27.5627 43.2836 27.4067C44.0516 27.2387 45.0836 27.1547 46.3796 27.1547H47.2256V28.1987H46.4156C45.4916 28.1987 44.7596 28.2407 44.2196 28.3247C43.6916 28.4087 43.3196 28.5587 43.1036 28.7747C42.8876 28.9787 42.7796 29.2667 42.7796 29.6387C42.7796 30.1067 42.9416 30.4907 43.2656 30.7907C43.6016 31.0907 44.0576 31.2407 44.6336 31.2407C45.0896 31.2407 45.4916 31.1327 45.8396 30.9167C46.1876 30.6887 46.4636 30.3887 46.6676 30.0167C46.8716 29.6327 46.9736 29.1947 46.9736 28.7027V26.6327C46.9736 25.9247 46.8296 25.4147 46.5416 25.1027C46.2536 24.7787 45.7676 24.6167 45.0836 24.6167C44.6876 24.6167 44.2796 24.6707 43.8596 24.7787C43.4396 24.8867 43.0016 25.0547 42.5456 25.2827C42.3656 25.3667 42.2096 25.3967 42.0776 25.3727C41.9456 25.3367 41.8376 25.2647 41.7536 25.1567C41.6816 25.0367 41.6396 24.9107 41.6276 24.7787C41.6276 24.6347 41.6576 24.4967 41.7176 24.3647C41.7896 24.2327 41.9096 24.1367 42.0776 24.0767C42.6056 23.8127 43.1276 23.6267 43.6436 23.5187C44.1716 23.3987 44.6636 23.3387 45.1196 23.3387C45.8996 23.3387 46.5416 23.4647 47.0456 23.7167C47.5496 23.9567 47.9276 24.3347 48.1796 24.8507C48.4316 25.3547 48.5576 26.0027 48.5576 26.7947V31.5467C48.5576 31.8227 48.4916 32.0327 48.3596 32.1767C48.2276 32.3207 48.0356 32.3927 47.7836 32.3927C47.5436 32.3927 47.3516 32.3207 47.2076 32.1767C47.0756 32.0327 47.0096 31.8227 47.0096 31.5467V30.2687H47.1716C47.0756 30.7127 46.8956 31.0967 46.6316 31.4207C46.3676 31.7447 46.0376 31.9967 45.6416 32.1767C45.2576 32.3447 44.8196 32.4287 44.3276 32.4287ZM54.5732 32.4287C53.8652 32.4287 53.2712 32.3027 52.7912 32.0507C52.3232 31.7987 51.9692 31.4327 51.7292 30.9527C51.5012 30.4727 51.3872 29.8847 51.3872 29.1887V24.7607H50.2352C50.0192 24.7607 49.8512 24.7067 49.7312 24.5987C49.6112 24.4787 49.5512 24.3227 49.5512 24.1307C49.5512 23.9267 49.6112 23.7707 49.7312 23.6627C49.8512 23.5547 50.0192 23.5007 50.2352 23.5007H51.3872V21.5387C51.3872 21.2627 51.4592 21.0587 51.6032 20.9267C51.7472 20.7827 51.9512 20.7107 52.2152 20.7107C52.4792 20.7107 52.6772 20.7827 52.8092 20.9267C52.9532 21.0587 53.0252 21.2627 53.0252 21.5387V23.5007H55.2032C55.4312 23.5007 55.6052 23.5547 55.7252 23.6627C55.8452 23.7707 55.9052 23.9267 55.9052 24.1307C55.9052 24.3227 55.8452 24.4787 55.7252 24.5987C55.6052 24.7067 55.4312 24.7607 55.2032 24.7607H53.0252V29.0447C53.0252 29.7047 53.1632 30.2027 53.4392 30.5387C53.7152 30.8747 54.1712 31.0427 54.8072 31.0427C55.0352 31.0427 55.2272 31.0247 55.3832 30.9887C55.5392 30.9407 55.6772 30.9167 55.7972 30.9167C55.9052 30.9047 55.9952 30.9407 56.0672 31.0247C56.1512 31.1087 56.1932 31.2647 56.1932 31.4927C56.1932 31.6607 56.1632 31.8167 56.1032 31.9607C56.0552 32.0927 55.9532 32.1827 55.7972 32.2307C55.6532 32.2787 55.4612 32.3207 55.2212 32.3567C54.9812 32.4047 54.7652 32.4287 54.5732 32.4287ZM61.1525 32.4287C60.2045 32.4287 59.3885 32.2487 58.7045 31.8887C58.0325 31.5167 57.5105 30.9947 57.1385 30.3227C56.7665 29.6387 56.5805 28.8347 56.5805 27.9107C56.5805 26.9987 56.7605 26.2007 57.1205 25.5167C57.4925 24.8327 57.9965 24.2987 58.6325 23.9147C59.2805 23.5307 60.0185 23.3387 60.8465 23.3387C61.4345 23.3387 61.9625 23.4407 62.4305 23.6447C62.9105 23.8367 63.3185 24.1187 63.6545 24.4907C63.9905 24.8627 64.2425 25.3187 64.4105 25.8587C64.5905 26.3867 64.6805 26.9867 64.6805 27.6587C64.6805 27.8507 64.6205 28.0007 64.5005 28.1087C64.3925 28.2047 64.2305 28.2527 64.0145 28.2527H57.8585V27.2087H63.6005L63.2945 27.4607C63.2945 26.8367 63.1985 26.3087 63.0065 25.8767C62.8265 25.4327 62.5565 25.0967 62.1965 24.8687C61.8485 24.6407 61.4105 24.5267 60.8825 24.5267C60.3065 24.5267 59.8145 24.6647 59.4065 24.9407C58.9985 25.2047 58.6865 25.5827 58.4705 26.0747C58.2545 26.5547 58.1465 27.1127 58.1465 27.7487V27.8567C58.1465 28.9367 58.4045 29.7527 58.9205 30.3047C59.4365 30.8567 60.1805 31.1327 61.1525 31.1327C61.5365 31.1327 61.9265 31.0847 62.3225 30.9887C62.7305 30.8927 63.1205 30.7187 63.4925 30.4667C63.6725 30.3587 63.8345 30.3107 63.9785 30.3227C64.1345 30.3227 64.2605 30.3707 64.3565 30.4667C64.4525 30.5507 64.5125 30.6587 64.5365 30.7907C64.5605 30.9107 64.5425 31.0427 64.4825 31.1867C64.4225 31.3307 64.3085 31.4567 64.1405 31.5647C63.7445 31.8407 63.2705 32.0567 62.7185 32.2127C62.1785 32.3567 61.6565 32.4287 61.1525 32.4287ZM70.4617 35.6687C69.8137 35.6687 69.1837 35.5967 68.5717 35.4527C67.9717 35.3087 67.4257 35.0867 66.9337 34.7867C66.7777 34.6907 66.6697 34.5767 66.6097 34.4447C66.5617 34.3247 66.5497 34.1987 66.5737 34.0667C66.6097 33.9347 66.6697 33.8147 66.7537 33.7067C66.8497 33.6107 66.9577 33.5447 67.0777 33.5087C67.2097 33.4847 67.3417 33.5147 67.4737 33.5987C68.0017 33.8987 68.5057 34.1027 68.9857 34.2107C69.4657 34.3187 69.9217 34.3727 70.3537 34.3727C71.2057 34.3727 71.8417 34.1507 72.2617 33.7067C72.6938 33.2747 72.9098 32.6387 72.9098 31.7987V29.8547H73.0717C72.9037 30.5267 72.5257 31.0607 71.9377 31.4567C71.3617 31.8527 70.6897 32.0507 69.9217 32.0507C69.1297 32.0507 68.4397 31.8707 67.8517 31.5107C67.2637 31.1387 66.8077 30.6287 66.4837 29.9807C66.1597 29.3207 65.9977 28.5587 65.9977 27.6947C65.9977 27.0347 66.0877 26.4407 66.2677 25.9127C66.4597 25.3727 66.7237 24.9167 67.0597 24.5447C67.4077 24.1607 67.8217 23.8667 68.3017 23.6627C68.7817 23.4467 69.3217 23.3387 69.9217 23.3387C70.7017 23.3387 71.3797 23.5367 71.9558 23.9327C72.5317 24.3287 72.9037 24.8627 73.0717 25.5347L72.8738 25.7867V24.2027C72.8738 23.9267 72.9457 23.7227 73.0897 23.5907C73.2337 23.4467 73.4377 23.3747 73.7018 23.3747C73.9538 23.3747 74.1517 23.4467 74.2957 23.5907C74.4397 23.7227 74.5117 23.9267 74.5117 24.2027V31.5827C74.5117 32.9387 74.1637 33.9587 73.4677 34.6427C72.7837 35.3267 71.7817 35.6687 70.4617 35.6687ZM70.2817 30.7547C70.8217 30.7547 71.2837 30.6347 71.6678 30.3947C72.0637 30.1427 72.3637 29.7887 72.5677 29.3327C72.7837 28.8647 72.8917 28.3187 72.8917 27.6947C72.8917 26.7467 72.6577 26.0027 72.1897 25.4627C71.7217 24.9107 71.0857 24.6347 70.2817 24.6347C69.7417 24.6347 69.2737 24.7607 68.8777 25.0127C68.4937 25.2527 68.1937 25.6007 67.9777 26.0567C67.7617 26.5127 67.6537 27.0587 67.6537 27.6947C67.6537 28.6307 67.8877 29.3747 68.3557 29.9267C68.8357 30.4787 69.4777 30.7547 70.2817 30.7547ZM80.6649 32.4287C79.8009 32.4287 79.0509 32.2427 78.4149 31.8707C77.7789 31.4987 77.2869 30.9707 76.9389 30.2867C76.5909 29.6027 76.4169 28.7987 76.4169 27.8747C76.4169 27.1787 76.5129 26.5547 76.7049 26.0027C76.9089 25.4387 77.1969 24.9587 77.5689 24.5627C77.9409 24.1667 78.3849 23.8667 78.9009 23.6627C79.4289 23.4467 80.0169 23.3387 80.6649 23.3387C81.5289 23.3387 82.2789 23.5247 82.9149 23.8967C83.5509 24.2687 84.0429 24.7967 84.3909 25.4807C84.7389 26.1527 84.9129 26.9507 84.9129 27.8747C84.9129 28.5707 84.8109 29.2007 84.6069 29.7647C84.4149 30.3287 84.1329 30.8087 83.7609 31.2047C83.3889 31.6007 82.9389 31.9067 82.4109 32.1227C81.8949 32.3267 81.3129 32.4287 80.6649 32.4287ZM80.6649 31.1327C81.1929 31.1327 81.6489 31.0067 82.0329 30.7547C82.4289 30.5027 82.7289 30.1367 82.9329 29.6567C83.1489 29.1767 83.2569 28.5827 83.2569 27.8747C83.2569 26.8187 83.0229 26.0147 82.5549 25.4627C82.0869 24.9107 81.4569 24.6347 80.6649 24.6347C80.1489 24.6347 79.6929 24.7607 79.2969 25.0127C78.9129 25.2527 78.6129 25.6127 78.3969 26.0927C78.1809 26.5727 78.0729 27.1667 78.0729 27.8747C78.0729 28.9307 78.3069 29.7407 78.7749 30.3047C79.2549 30.8567 79.8849 31.1327 80.6649 31.1327ZM87.6592 32.3927C87.3832 32.3927 87.1732 32.3207 87.0292 32.1767C86.8852 32.0327 86.8132 31.8227 86.8132 31.5467V24.2027C86.8132 23.9267 86.8852 23.7227 87.0292 23.5907C87.1732 23.4467 87.3712 23.3747 87.6232 23.3747C87.8752 23.3747 88.0672 23.4467 88.1992 23.5907C88.3432 23.7227 88.4152 23.9267 88.4152 24.2027V25.5887H88.2352C88.4272 24.8687 88.7872 24.3227 89.3152 23.9507C89.8432 23.5787 90.5092 23.3687 91.3132 23.3207C91.5052 23.3087 91.6612 23.3567 91.7812 23.4647C91.9012 23.5607 91.9672 23.7287 91.9792 23.9687C91.9912 24.1967 91.9372 24.3827 91.8172 24.5267C91.6972 24.6587 91.5112 24.7367 91.2592 24.7607L90.9352 24.7787C90.1432 24.8627 89.5312 25.1207 89.0992 25.5527C88.6792 25.9847 88.4692 26.5787 88.4692 27.3347V31.5467C88.4692 31.8227 88.3972 32.0327 88.2532 32.1767C88.1212 32.3207 87.9232 32.3927 87.6592 32.3927ZM93.9994 32.3567C93.7474 32.3567 93.5494 32.2787 93.4054 32.1227C93.2614 31.9667 93.1894 31.7507 93.1894 31.4747V24.2927C93.1894 24.0047 93.2614 23.7887 93.4054 23.6447C93.5494 23.4887 93.7474 23.4107 93.9994 23.4107C94.2634 23.4107 94.4674 23.4887 94.6114 23.6447C94.7554 23.7887 94.8274 24.0047 94.8274 24.2927V31.4747C94.8274 31.7507 94.7554 31.9667 94.6114 32.1227C94.4794 32.2787 94.2754 32.3567 93.9994 32.3567ZM93.9994 21.4667C93.6754 21.4667 93.4174 21.3827 93.2254 21.2147C93.0454 21.0347 92.9554 20.8007 92.9554 20.5127C92.9554 20.2007 93.0454 19.9667 93.2254 19.8107C93.4174 19.6427 93.6754 19.5587 93.9994 19.5587C94.3474 19.5587 94.6054 19.6427 94.7734 19.8107C94.9534 19.9667 95.0434 20.2007 95.0434 20.5127C95.0434 20.8007 94.9534 21.0347 94.7734 21.2147C94.6054 21.3827 94.3474 21.4667 93.9994 21.4667ZM101.313 32.4287C100.365 32.4287 99.5489 32.2487 98.8649 31.8887C98.1929 31.5167 97.6709 30.9947 97.2989 30.3227C96.9269 29.6387 96.7409 28.8347 96.7409 27.9107C96.7409 26.9987 96.9209 26.2007 97.2809 25.5167C97.6529 24.8327 98.1569 24.2987 98.7929 23.9147C99.4409 23.5307 100.179 23.3387 101.007 23.3387C101.595 23.3387 102.123 23.4407 102.591 23.6447C103.071 23.8367 103.479 24.1187 103.815 24.4907C104.151 24.8627 104.403 25.3187 104.571 25.8587C104.751 26.3867 104.841 26.9867 104.841 27.6587C104.841 27.8507 104.781 28.0007 104.661 28.1087C104.553 28.2047 104.391 28.2527 104.175 28.2527H98.0189V27.2087H103.761L103.455 27.4607C103.455 26.8367 103.359 26.3087 103.167 25.8767C102.987 25.4327 102.717 25.0967 102.357 24.8687C102.009 24.6407 101.571 24.5267 101.043 24.5267C100.467 24.5267 99.9749 24.6647 99.5669 24.9407C99.1589 25.2047 98.8469 25.5827 98.6309 26.0747C98.4149 26.5547 98.3069 27.1127 98.3069 27.7487V27.8567C98.3069 28.9367 98.5649 29.7527 99.0809 30.3047C99.5969 30.8567 100.341 31.1327 101.313 31.1327C101.697 31.1327 102.087 31.0847 102.483 30.9887C102.891 30.8927 103.281 30.7187 103.653 30.4667C103.833 30.3587 103.995 30.3107 104.139 30.3227C104.295 30.3227 104.421 30.3707 104.517 30.4667C104.613 30.5507 104.673 30.6587 104.697 30.7907C104.721 30.9107 104.703 31.0427 104.643 31.1867C104.583 31.3307 104.469 31.4567 104.301 31.5647C103.905 31.8407 103.431 32.0567 102.879 32.2127C102.339 32.3567 101.817 32.4287 101.313 32.4287ZM109.704 32.4287C109.164 32.4287 108.618 32.3687 108.066 32.2487C107.526 32.1167 107.016 31.8947 106.536 31.5827C106.404 31.4987 106.308 31.3967 106.248 31.2767C106.2 31.1447 106.182 31.0187 106.194 30.8987C106.218 30.7667 106.272 30.6527 106.356 30.5567C106.44 30.4607 106.542 30.4067 106.662 30.3947C106.794 30.3707 106.932 30.4007 107.076 30.4847C107.544 30.7487 107.994 30.9347 108.426 31.0427C108.87 31.1507 109.308 31.2047 109.74 31.2047C110.4 31.2047 110.898 31.0847 111.234 30.8447C111.57 30.6047 111.738 30.2867 111.738 29.8907C111.738 29.5547 111.624 29.2967 111.396 29.1167C111.18 28.9247 110.838 28.7807 110.37 28.6847L108.696 28.3427C107.952 28.1747 107.388 27.8987 107.004 27.5147C106.632 27.1187 106.446 26.6147 106.446 26.0027C106.446 25.4627 106.59 24.9947 106.878 24.5987C107.178 24.1907 107.592 23.8787 108.12 23.6627C108.648 23.4467 109.254 23.3387 109.938 23.3387C110.466 23.3387 110.964 23.4107 111.432 23.5547C111.912 23.6867 112.344 23.8907 112.728 24.1667C112.872 24.2507 112.962 24.3587 112.998 24.4907C113.046 24.6107 113.052 24.7367 113.016 24.8687C112.992 24.9887 112.938 25.0907 112.854 25.1747C112.77 25.2587 112.662 25.3127 112.53 25.3367C112.398 25.3487 112.254 25.3127 112.098 25.2287C111.75 24.9887 111.39 24.8207 111.018 24.7247C110.658 24.6167 110.298 24.5627 109.938 24.5627C109.29 24.5627 108.798 24.6887 108.462 24.9407C108.138 25.1927 107.976 25.5227 107.976 25.9307C107.976 26.2427 108.072 26.5007 108.264 26.7047C108.468 26.9087 108.786 27.0587 109.218 27.1547L110.892 27.4967C111.672 27.6647 112.26 27.9347 112.656 28.3067C113.052 28.6667 113.25 29.1587 113.25 29.7827C113.25 30.5987 112.926 31.2467 112.278 31.7267C111.642 32.1947 110.784 32.4287 109.704 32.4287Z" fill="black"/>
</svg>
