<svg width="132" height="63" viewBox="0 0 132 63" fill="none" xmlns="http://www.w3.org/2000/svg">
<rect x="2.00684" y="4.76666" width="128.176" height="56.7333" rx="19.5" fill="#FDD8C1" stroke="#6B2F00" stroke-width="3"/>
<rect x="11.6051" y="1.5" width="118.578" height="49.7333" rx="19.5" fill="#F9EFE3" stroke="#6B2F00" stroke-width="3"/>
<path d="M35.7406 33.4287C34.4806 33.4287 33.4006 33.1647 32.5006 32.6367C31.6006 32.1087 30.9046 31.3587 30.4126 30.3867C29.9326 29.4027 29.6926 28.2447 29.6926 26.9127C29.6926 25.9167 29.8306 25.0227 30.1066 24.2307C30.3826 23.4267 30.7786 22.7427 31.2946 22.1787C31.8106 21.6027 32.4406 21.1647 33.1846 20.8647C33.9406 20.5647 34.7926 20.4147 35.7406 20.4147C36.4606 20.4147 37.1506 20.5167 37.8106 20.7207C38.4826 20.9247 39.0586 21.2127 39.5386 21.5847C39.7306 21.7167 39.8566 21.8667 39.9166 22.0347C39.9766 22.2027 39.9826 22.3647 39.9346 22.5207C39.8986 22.6647 39.8206 22.7907 39.7006 22.8987C39.5926 22.9947 39.4546 23.0487 39.2866 23.0607C39.1186 23.0607 38.9386 22.9947 38.7466 22.8627C38.3266 22.5387 37.8646 22.3047 37.3606 22.1607C36.8686 22.0047 36.3406 21.9267 35.7766 21.9267C34.8526 21.9267 34.0666 22.1247 33.4186 22.5207C32.7826 22.9047 32.2966 23.4687 31.9606 24.2127C31.6366 24.9447 31.4746 25.8447 31.4746 26.9127C31.4746 27.9687 31.6366 28.8747 31.9606 29.6307C32.2966 30.3747 32.7826 30.9447 33.4186 31.3407C34.0666 31.7247 34.8526 31.9167 35.7766 31.9167C36.3406 31.9167 36.8746 31.8387 37.3786 31.6827C37.8946 31.5267 38.3686 31.2867 38.8006 30.9627C38.9926 30.8307 39.1666 30.7707 39.3226 30.7827C39.4906 30.7947 39.6286 30.8487 39.7366 30.9447C39.8446 31.0287 39.9166 31.1487 39.9526 31.3047C40.0006 31.4487 40.0006 31.5987 39.9526 31.7547C39.9046 31.9107 39.7966 32.0487 39.6286 32.1687C39.1366 32.5887 38.5486 32.9067 37.8646 33.1227C37.1926 33.3267 36.4846 33.4287 35.7406 33.4287ZM42.703 33.3927C42.451 33.3927 42.253 33.3207 42.109 33.1767C41.965 33.0327 41.893 32.8227 41.893 32.5467V21.2787C41.893 21.0027 41.965 20.7987 42.109 20.6667C42.253 20.5227 42.451 20.4507 42.703 20.4507C42.967 20.4507 43.171 20.5227 43.315 20.6667C43.459 20.7987 43.531 21.0027 43.531 21.2787V26.4087H43.297C43.549 25.7247 43.957 25.2087 44.521 24.8607C45.097 24.5127 45.751 24.3387 46.483 24.3387C47.191 24.3387 47.773 24.4707 48.229 24.7347C48.685 24.9867 49.027 25.3707 49.255 25.8867C49.483 26.4027 49.597 27.0507 49.597 27.8307V32.5467C49.597 32.8227 49.525 33.0327 49.381 33.1767C49.249 33.3207 49.051 33.3927 48.787 33.3927C48.523 33.3927 48.319 33.3207 48.175 33.1767C48.031 33.0327 47.959 32.8227 47.959 32.5467V27.9207C47.959 27.1407 47.809 26.5707 47.509 26.2107C47.209 25.8507 46.729 25.6707 46.069 25.6707C45.301 25.6707 44.683 25.9107 44.215 26.3907C43.759 26.8587 43.531 27.4947 43.531 28.2987V32.5467C43.531 33.1107 43.255 33.3927 42.703 33.3927ZM54.7858 33.4287C54.1858 33.4287 53.6398 33.3087 53.1478 33.0687C52.6678 32.8287 52.2898 32.5047 52.0138 32.0967C51.7498 31.6887 51.6178 31.2327 51.6178 30.7287C51.6178 30.0807 51.7798 29.5707 52.1038 29.1987C52.4278 28.8267 52.9738 28.5627 53.7418 28.4067C54.5098 28.2387 55.5418 28.1547 56.8378 28.1547H57.6838V29.1987H56.8738C55.9498 29.1987 55.2178 29.2407 54.6778 29.3247C54.1498 29.4087 53.7778 29.5587 53.5618 29.7747C53.3458 29.9787 53.2378 30.2667 53.2378 30.6387C53.2378 31.1067 53.3998 31.4907 53.7238 31.7907C54.0598 32.0907 54.5158 32.2407 55.0918 32.2407C55.5478 32.2407 55.9498 32.1327 56.2978 31.9167C56.6458 31.6887 56.9218 31.3887 57.1258 31.0167C57.3298 30.6327 57.4318 30.1947 57.4318 29.7027V27.6327C57.4318 26.9247 57.2878 26.4147 56.9998 26.1027C56.7118 25.7787 56.2258 25.6167 55.5418 25.6167C55.1458 25.6167 54.7378 25.6707 54.3178 25.7787C53.8978 25.8867 53.4598 26.0547 53.0038 26.2827C52.8238 26.3667 52.6678 26.3967 52.5358 26.3727C52.4038 26.3367 52.2958 26.2647 52.2118 26.1567C52.1398 26.0367 52.0978 25.9107 52.0858 25.7787C52.0858 25.6347 52.1158 25.4967 52.1758 25.3647C52.2478 25.2327 52.3678 25.1367 52.5358 25.0767C53.0638 24.8127 53.5858 24.6267 54.1018 24.5187C54.6298 24.3987 55.1218 24.3387 55.5778 24.3387C56.3578 24.3387 56.9998 24.4647 57.5038 24.7167C58.0078 24.9567 58.3858 25.3347 58.6378 25.8507C58.8898 26.3547 59.0158 27.0027 59.0158 27.7947V32.5467C59.0158 32.8227 58.9498 33.0327 58.8178 33.1767C58.6858 33.3207 58.4938 33.3927 58.2418 33.3927C58.0018 33.3927 57.8098 33.3207 57.6658 33.1767C57.5338 33.0327 57.4678 32.8227 57.4678 32.5467V31.2687H57.6298C57.5338 31.7127 57.3538 32.0967 57.0898 32.4207C56.8258 32.7447 56.4958 32.9967 56.0998 33.1767C55.7158 33.3447 55.2778 33.4287 54.7858 33.4287ZM62.2415 33.3927C61.9655 33.3927 61.7555 33.3207 61.6115 33.1767C61.4675 33.0327 61.3955 32.8227 61.3955 32.5467V25.2027C61.3955 24.9267 61.4675 24.7227 61.6115 24.5907C61.7555 24.4467 61.9535 24.3747 62.2055 24.3747C62.4575 24.3747 62.6495 24.4467 62.7815 24.5907C62.9255 24.7227 62.9975 24.9267 62.9975 25.2027V26.5887H62.8175C63.0095 25.8687 63.3695 25.3227 63.8975 24.9507C64.4255 24.5787 65.0915 24.3687 65.8955 24.3207C66.0875 24.3087 66.2435 24.3567 66.3635 24.4647C66.4835 24.5607 66.5495 24.7287 66.5615 24.9687C66.5735 25.1967 66.5195 25.3827 66.3995 25.5267C66.2795 25.6587 66.0935 25.7367 65.8415 25.7607L65.5175 25.7787C64.7255 25.8627 64.1135 26.1207 63.6815 26.5527C63.2615 26.9847 63.0515 27.5787 63.0515 28.3347V32.5467C63.0515 32.8227 62.9795 33.0327 62.8355 33.1767C62.7035 33.3207 62.5055 33.3927 62.2415 33.3927ZM70.4738 33.4287C69.8738 33.4287 69.3278 33.3087 68.8358 33.0687C68.3558 32.8287 67.9778 32.5047 67.7018 32.0967C67.4378 31.6887 67.3058 31.2327 67.3058 30.7287C67.3058 30.0807 67.4678 29.5707 67.7918 29.1987C68.1158 28.8267 68.6618 28.5627 69.4298 28.4067C70.1978 28.2387 71.2298 28.1547 72.5258 28.1547H73.3718V29.1987H72.5618C71.6378 29.1987 70.9058 29.2407 70.3658 29.3247C69.8378 29.4087 69.4658 29.5587 69.2498 29.7747C69.0338 29.9787 68.9258 30.2667 68.9258 30.6387C68.9258 31.1067 69.0878 31.4907 69.4118 31.7907C69.7478 32.0907 70.2038 32.2407 70.7798 32.2407C71.2358 32.2407 71.6378 32.1327 71.9858 31.9167C72.3338 31.6887 72.6098 31.3887 72.8138 31.0167C73.0178 30.6327 73.1198 30.1947 73.1198 29.7027V27.6327C73.1198 26.9247 72.9758 26.4147 72.6878 26.1027C72.3998 25.7787 71.9138 25.6167 71.2298 25.6167C70.8338 25.6167 70.4258 25.6707 70.0058 25.7787C69.5858 25.8867 69.1478 26.0547 68.6918 26.2827C68.5118 26.3667 68.3558 26.3967 68.2238 26.3727C68.0918 26.3367 67.9838 26.2647 67.8998 26.1567C67.8278 26.0367 67.7858 25.9107 67.7738 25.7787C67.7738 25.6347 67.8038 25.4967 67.8638 25.3647C67.9358 25.2327 68.0558 25.1367 68.2238 25.0767C68.7518 24.8127 69.2738 24.6267 69.7898 24.5187C70.3178 24.3987 70.8098 24.3387 71.2658 24.3387C72.0458 24.3387 72.6878 24.4647 73.1918 24.7167C73.6958 24.9567 74.0738 25.3347 74.3258 25.8507C74.5778 26.3547 74.7038 27.0027 74.7038 27.7947V32.5467C74.7038 32.8227 74.6378 33.0327 74.5058 33.1767C74.3738 33.3207 74.1818 33.3927 73.9298 33.3927C73.6898 33.3927 73.4978 33.3207 73.3538 33.1767C73.2218 33.0327 73.1558 32.8227 73.1558 32.5467V31.2687H73.3178C73.2218 31.7127 73.0418 32.0967 72.7778 32.4207C72.5138 32.7447 72.1838 32.9967 71.7878 33.1767C71.4038 33.3447 70.9658 33.4287 70.4738 33.4287ZM80.8815 33.4287C79.9935 33.4287 79.2255 33.2427 78.5775 32.8707C77.9295 32.4867 77.4315 31.9527 77.0835 31.2687C76.7355 30.5727 76.5615 29.7567 76.5615 28.8207C76.5615 28.1247 76.6575 27.5007 76.8495 26.9487C77.0535 26.3967 77.3415 25.9287 77.7135 25.5447C78.0855 25.1487 78.5355 24.8487 79.0635 24.6447C79.6035 24.4407 80.2095 24.3387 80.8815 24.3387C81.3015 24.3387 81.7455 24.4047 82.2135 24.5367C82.6815 24.6687 83.1135 24.8847 83.5095 25.1847C83.6415 25.2807 83.7255 25.3947 83.7615 25.5267C83.7975 25.6467 83.7975 25.7727 83.7615 25.9047C83.7375 26.0367 83.6775 26.1507 83.5815 26.2467C83.4975 26.3307 83.3835 26.3787 83.2395 26.3907C83.1075 26.4027 82.9635 26.3607 82.8075 26.2647C82.5195 26.0487 82.2135 25.8927 81.8895 25.7967C81.5775 25.7007 81.2775 25.6527 80.9895 25.6527C80.5455 25.6527 80.1495 25.7247 79.8015 25.8687C79.4655 26.0127 79.1775 26.2227 78.9375 26.4987C78.7095 26.7627 78.5355 27.0927 78.4155 27.4887C78.2955 27.8727 78.2355 28.3227 78.2355 28.8387C78.2355 29.8587 78.4755 30.6627 78.9555 31.2507C79.4355 31.8267 80.1135 32.1147 80.9895 32.1147C81.2775 32.1147 81.5775 32.0727 81.8895 31.9887C82.2015 31.8927 82.5075 31.7367 82.8075 31.5207C82.9635 31.4247 83.1075 31.3887 83.2395 31.4127C83.3715 31.4247 83.4795 31.4787 83.5635 31.5747C83.6595 31.6587 83.7195 31.7667 83.7435 31.8987C83.7675 32.0187 83.7555 32.1447 83.7075 32.2767C83.6715 32.4087 83.5875 32.5167 83.4555 32.6007C83.0715 32.8887 82.6515 33.0987 82.1955 33.2307C81.7395 33.3627 81.3015 33.4287 80.8815 33.4287ZM88.9062 33.4287C88.1982 33.4287 87.6042 33.3027 87.1242 33.0507C86.6562 32.7987 86.3022 32.4327 86.0622 31.9527C85.8342 31.4727 85.7202 30.8847 85.7202 30.1887V25.7607H84.5682C84.3522 25.7607 84.1842 25.7067 84.0642 25.5987C83.9442 25.4787 83.8842 25.3227 83.8842 25.1307C83.8842 24.9267 83.9442 24.7707 84.0642 24.6627C84.1842 24.5547 84.3522 24.5007 84.5682 24.5007H85.7202V22.5387C85.7202 22.2627 85.7922 22.0587 85.9362 21.9267C86.0802 21.7827 86.2842 21.7107 86.5482 21.7107C86.8122 21.7107 87.0102 21.7827 87.1422 21.9267C87.2862 22.0587 87.3582 22.2627 87.3582 22.5387V24.5007H89.5362C89.7642 24.5007 89.9382 24.5547 90.0582 24.6627C90.1782 24.7707 90.2382 24.9267 90.2382 25.1307C90.2382 25.3227 90.1782 25.4787 90.0582 25.5987C89.9382 25.7067 89.7642 25.7607 89.5362 25.7607H87.3582V30.0447C87.3582 30.7047 87.4962 31.2027 87.7722 31.5387C88.0482 31.8747 88.5042 32.0427 89.1402 32.0427C89.3682 32.0427 89.5602 32.0247 89.7162 31.9887C89.8722 31.9407 90.0102 31.9167 90.1302 31.9167C90.2382 31.9047 90.3282 31.9407 90.4002 32.0247C90.4842 32.1087 90.5262 32.2647 90.5262 32.4927C90.5262 32.6607 90.4962 32.8167 90.4362 32.9607C90.3882 33.0927 90.2862 33.1827 90.1302 33.2307C89.9862 33.2787 89.7942 33.3207 89.5542 33.3567C89.3142 33.4047 89.0982 33.4287 88.9062 33.4287ZM95.4855 33.4287C94.5375 33.4287 93.7215 33.2487 93.0375 32.8887C92.3655 32.5167 91.8435 31.9947 91.4715 31.3227C91.0995 30.6387 90.9135 29.8347 90.9135 28.9107C90.9135 27.9987 91.0935 27.2007 91.4535 26.5167C91.8255 25.8327 92.3295 25.2987 92.9655 24.9147C93.6135 24.5307 94.3515 24.3387 95.1795 24.3387C95.7675 24.3387 96.2955 24.4407 96.7635 24.6447C97.2435 24.8367 97.6515 25.1187 97.9875 25.4907C98.3235 25.8627 98.5755 26.3187 98.7435 26.8587C98.9235 27.3867 99.0135 27.9867 99.0135 28.6587C99.0135 28.8507 98.9535 29.0007 98.8335 29.1087C98.7255 29.2047 98.5635 29.2527 98.3475 29.2527H92.1915V28.2087H97.9335L97.6275 28.4607C97.6275 27.8367 97.5315 27.3087 97.3395 26.8767C97.1595 26.4327 96.8895 26.0967 96.5295 25.8687C96.1815 25.6407 95.7435 25.5267 95.2155 25.5267C94.6395 25.5267 94.1475 25.6647 93.7395 25.9407C93.3315 26.2047 93.0195 26.5827 92.8035 27.0747C92.5875 27.5547 92.4795 28.1127 92.4795 28.7487V28.8567C92.4795 29.9367 92.7375 30.7527 93.2535 31.3047C93.7695 31.8567 94.5135 32.1327 95.4855 32.1327C95.8695 32.1327 96.2595 32.0847 96.6555 31.9887C97.0635 31.8927 97.4535 31.7187 97.8255 31.4667C98.0055 31.3587 98.1675 31.3107 98.3115 31.3227C98.4675 31.3227 98.5935 31.3707 98.6895 31.4667C98.7855 31.5507 98.8455 31.6587 98.8695 31.7907C98.8935 31.9107 98.8755 32.0427 98.8155 32.1867C98.7555 32.3307 98.6415 32.4567 98.4735 32.5647C98.0775 32.8407 97.6035 33.0567 97.0515 33.2127C96.5115 33.3567 95.9895 33.4287 95.4855 33.4287ZM101.699 33.3927C101.423 33.3927 101.213 33.3207 101.069 33.1767C100.925 33.0327 100.853 32.8227 100.853 32.5467V25.2027C100.853 24.9267 100.925 24.7227 101.069 24.5907C101.213 24.4467 101.411 24.3747 101.663 24.3747C101.915 24.3747 102.107 24.4467 102.239 24.5907C102.383 24.7227 102.455 24.9267 102.455 25.2027V26.5887H102.275C102.467 25.8687 102.827 25.3227 103.355 24.9507C103.883 24.5787 104.549 24.3687 105.353 24.3207C105.545 24.3087 105.701 24.3567 105.821 24.4647C105.941 24.5607 106.007 24.7287 106.019 24.9687C106.031 25.1967 105.977 25.3827 105.857 25.5267C105.737 25.6587 105.551 25.7367 105.299 25.7607L104.975 25.7787C104.183 25.8627 103.571 26.1207 103.139 26.5527C102.719 26.9847 102.509 27.5787 102.509 28.3347V32.5467C102.509 32.8227 102.437 33.0327 102.293 33.1767C102.161 33.3207 101.963 33.3927 101.699 33.3927ZM110.165 33.4287C109.625 33.4287 109.079 33.3687 108.527 33.2487C107.987 33.1167 107.477 32.8947 106.997 32.5827C106.865 32.4987 106.769 32.3967 106.709 32.2767C106.661 32.1447 106.643 32.0187 106.655 31.8987C106.679 31.7667 106.733 31.6527 106.817 31.5567C106.901 31.4607 107.003 31.4067 107.123 31.3947C107.255 31.3707 107.393 31.4007 107.537 31.4847C108.005 31.7487 108.455 31.9347 108.887 32.0427C109.331 32.1507 109.769 32.2047 110.201 32.2047C110.861 32.2047 111.359 32.0847 111.695 31.8447C112.031 31.6047 112.199 31.2867 112.199 30.8907C112.199 30.5547 112.085 30.2967 111.857 30.1167C111.641 29.9247 111.299 29.7807 110.831 29.6847L109.157 29.3427C108.413 29.1747 107.849 28.8987 107.465 28.5147C107.093 28.1187 106.907 27.6147 106.907 27.0027C106.907 26.4627 107.051 25.9947 107.339 25.5987C107.639 25.1907 108.053 24.8787 108.581 24.6627C109.109 24.4467 109.715 24.3387 110.399 24.3387C110.927 24.3387 111.425 24.4107 111.893 24.5547C112.373 24.6867 112.805 24.8907 113.189 25.1667C113.333 25.2507 113.423 25.3587 113.459 25.4907C113.507 25.6107 113.513 25.7367 113.477 25.8687C113.453 25.9887 113.399 26.0907 113.315 26.1747C113.231 26.2587 113.123 26.3127 112.991 26.3367C112.859 26.3487 112.715 26.3127 112.559 26.2287C112.211 25.9887 111.851 25.8207 111.479 25.7247C111.119 25.6167 110.759 25.5627 110.399 25.5627C109.751 25.5627 109.259 25.6887 108.923 25.9407C108.599 26.1927 108.437 26.5227 108.437 26.9307C108.437 27.2427 108.533 27.5007 108.725 27.7047C108.929 27.9087 109.247 28.0587 109.679 28.1547L111.353 28.4967C112.133 28.6647 112.721 28.9347 113.117 29.3067C113.513 29.6667 113.711 30.1587 113.711 30.7827C113.711 31.5987 113.387 32.2467 112.739 32.7267C112.103 33.1947 111.245 33.4287 110.165 33.4287Z" fill="black"/>
</svg>
