<svg width="102" height="63" viewBox="0 0 102 63" fill="none" xmlns="http://www.w3.org/2000/svg">
<rect x="1.81885" y="3.83331" width="98.0099" height="57.6667" rx="19.5" fill="#FDD8C1" stroke="#6B2F00" stroke-width="3"/>
<rect x="11.4171" y="1.5" width="88.1831" height="49.7333" rx="19.5" fill="#F9EFE3" stroke="#6B2F00" stroke-width="3"/>
<path d="M29.5788 33.4287C29.0148 33.4287 28.4688 33.3807 27.9408 33.2847C27.4128 33.2007 26.9148 33.0687 26.4468 32.8887C25.9788 32.7087 25.5588 32.4867 25.1868 32.2227C25.0308 32.1147 24.9168 31.9827 24.8448 31.8267C24.7848 31.6707 24.7668 31.5207 24.7908 31.3767C24.8268 31.2207 24.8928 31.0887 24.9888 30.9807C25.0968 30.8727 25.2228 30.8067 25.3668 30.7827C25.5108 30.7587 25.6668 30.8067 25.8348 30.9267C26.3868 31.2987 26.9628 31.5687 27.5628 31.7367C28.1748 31.9047 28.8468 31.9887 29.5788 31.9887C30.6348 31.9887 31.4088 31.7967 31.9008 31.4127C32.4048 31.0287 32.6568 30.5247 32.6568 29.9007C32.6568 29.3847 32.4768 28.9827 32.1168 28.6947C31.7568 28.3947 31.1508 28.1607 30.2988 27.9927L28.3908 27.5967C27.2628 27.3567 26.4168 26.9607 25.8528 26.4087C25.3008 25.8567 25.0248 25.1187 25.0248 24.1947C25.0248 23.6307 25.1388 23.1207 25.3668 22.6647C25.5948 22.1967 25.9188 21.7947 26.3388 21.4587C26.7588 21.1227 27.2508 20.8647 27.8148 20.6847C28.3908 20.5047 29.0268 20.4147 29.7228 20.4147C30.4668 20.4147 31.1628 20.5167 31.8108 20.7207C32.4708 20.9247 33.0648 21.2247 33.5928 21.6207C33.7368 21.7287 33.8328 21.8607 33.8808 22.0167C33.9288 22.1607 33.9348 22.3047 33.8988 22.4487C33.8748 22.5927 33.8088 22.7127 33.7008 22.8087C33.6048 22.9047 33.4788 22.9587 33.3228 22.9707C33.1788 22.9827 33.0168 22.9287 32.8368 22.8087C32.3568 22.4727 31.8648 22.2327 31.3608 22.0887C30.8568 21.9327 30.3048 21.8547 29.7048 21.8547C29.0928 21.8547 28.5588 21.9507 28.1028 22.1427C27.6588 22.3347 27.3108 22.6047 27.0588 22.9527C26.8188 23.2887 26.6988 23.6847 26.6988 24.1407C26.6988 24.6927 26.8668 25.1247 27.2028 25.4367C27.5388 25.7487 28.1028 25.9887 28.8948 26.1567L30.7848 26.5347C31.9848 26.7867 32.8728 27.1767 33.4488 27.7047C34.0368 28.2207 34.3308 28.9167 34.3308 29.7927C34.3308 30.3447 34.2168 30.8427 33.9888 31.2867C33.7728 31.7307 33.4608 32.1147 33.0528 32.4387C32.6448 32.7507 32.1468 32.9967 31.5588 33.1767C30.9708 33.3447 30.3108 33.4287 29.5788 33.4287ZM39.2657 33.4287C38.5577 33.4287 37.9637 33.2967 37.4837 33.0327C37.0157 32.7687 36.6677 32.3787 36.4397 31.8627C36.2117 31.3467 36.0977 30.6987 36.0977 29.9187V25.2027C36.0977 24.9267 36.1637 24.7227 36.2957 24.5907C36.4397 24.4467 36.6437 24.3747 36.9077 24.3747C37.1717 24.3747 37.3757 24.4467 37.5197 24.5907C37.6637 24.7227 37.7357 24.9267 37.7357 25.2027V29.9187C37.7357 30.6627 37.8857 31.2147 38.1857 31.5747C38.4857 31.9227 38.9597 32.0967 39.6077 32.0967C40.3277 32.0967 40.9097 31.8567 41.3537 31.3767C41.8097 30.8967 42.0377 30.2607 42.0377 29.4687V25.2027C42.0377 24.9267 42.1037 24.7227 42.2357 24.5907C42.3797 24.4467 42.5837 24.3747 42.8477 24.3747C43.1117 24.3747 43.3157 24.4467 43.4597 24.5907C43.6037 24.7227 43.6757 24.9267 43.6757 25.2027V32.5467C43.6757 33.1107 43.4117 33.3927 42.8837 33.3927C42.6197 33.3927 42.4157 33.3207 42.2717 33.1767C42.1397 33.0327 42.0737 32.8227 42.0737 32.5467V30.9807L42.3077 31.2867C42.0677 31.9827 41.6777 32.5167 41.1377 32.8887C40.6097 33.2487 39.9857 33.4287 39.2657 33.4287ZM46.9234 36.6327C46.6714 36.6327 46.4734 36.5607 46.3294 36.4167C46.1854 36.2727 46.1134 36.0687 46.1134 35.8047V25.2027C46.1134 24.9267 46.1854 24.7227 46.3294 24.5907C46.4734 24.4467 46.6714 24.3747 46.9234 24.3747C47.1874 24.3747 47.3854 24.4467 47.5174 24.5907C47.6614 24.7227 47.7334 24.9267 47.7334 25.2027V26.8407L47.5354 26.5167C47.7274 25.8567 48.1054 25.3287 48.6694 24.9327C49.2334 24.5367 49.9114 24.3387 50.7034 24.3387C51.4834 24.3387 52.1614 24.5247 52.7374 24.8967C53.3134 25.2567 53.7634 25.7787 54.0874 26.4627C54.4114 27.1347 54.5734 27.9387 54.5734 28.8747C54.5734 29.7987 54.4114 30.6087 54.0874 31.3047C53.7754 31.9887 53.3254 32.5167 52.7374 32.8887C52.1614 33.2487 51.4834 33.4287 50.7034 33.4287C49.9234 33.4287 49.2514 33.2307 48.6874 32.8347C48.1234 32.4387 47.7454 31.9167 47.5534 31.2687H47.7514V35.8047C47.7514 36.0687 47.6794 36.2727 47.5354 36.4167C47.3914 36.5607 47.1874 36.6327 46.9234 36.6327ZM50.3254 32.1327C50.8414 32.1327 51.2914 32.0067 51.6754 31.7547C52.0714 31.5027 52.3774 31.1367 52.5934 30.6567C52.8094 30.1767 52.9174 29.5827 52.9174 28.8747C52.9174 27.8187 52.6834 27.0147 52.2154 26.4627C51.7474 25.9107 51.1174 25.6347 50.3254 25.6347C49.7974 25.6347 49.3354 25.7607 48.9394 26.0127C48.5554 26.2527 48.2554 26.6127 48.0394 27.0927C47.8354 27.5727 47.7334 28.1667 47.7334 28.8747C47.7334 29.9307 47.9674 30.7407 48.4354 31.3047C48.9034 31.8567 49.5334 32.1327 50.3254 32.1327ZM57.2899 36.6327C57.0379 36.6327 56.8399 36.5607 56.6959 36.4167C56.5519 36.2727 56.4799 36.0687 56.4799 35.8047V25.2027C56.4799 24.9267 56.5519 24.7227 56.6959 24.5907C56.8399 24.4467 57.0379 24.3747 57.2899 24.3747C57.5539 24.3747 57.7519 24.4467 57.8839 24.5907C58.0279 24.7227 58.0999 24.9267 58.0999 25.2027V26.8407L57.9019 26.5167C58.0939 25.8567 58.4719 25.3287 59.0359 24.9327C59.5999 24.5367 60.2779 24.3387 61.0699 24.3387C61.8499 24.3387 62.5279 24.5247 63.1039 24.8967C63.6799 25.2567 64.1299 25.7787 64.4539 26.4627C64.7779 27.1347 64.9399 27.9387 64.9399 28.8747C64.9399 29.7987 64.7779 30.6087 64.4539 31.3047C64.1419 31.9887 63.6919 32.5167 63.1039 32.8887C62.5279 33.2487 61.8499 33.4287 61.0699 33.4287C60.2899 33.4287 59.6179 33.2307 59.0539 32.8347C58.4899 32.4387 58.1119 31.9167 57.9199 31.2687H58.1179V35.8047C58.1179 36.0687 58.0459 36.2727 57.9019 36.4167C57.7579 36.5607 57.5539 36.6327 57.2899 36.6327ZM60.6919 32.1327C61.2079 32.1327 61.6579 32.0067 62.0419 31.7547C62.4379 31.5027 62.7439 31.1367 62.9599 30.6567C63.1759 30.1767 63.2839 29.5827 63.2839 28.8747C63.2839 27.8187 63.0499 27.0147 62.5819 26.4627C62.1139 25.9107 61.4839 25.6347 60.6919 25.6347C60.1639 25.6347 59.7019 25.7607 59.3059 26.0127C58.9219 26.2527 58.6219 26.6127 58.4059 27.0927C58.2019 27.5727 58.0999 28.1667 58.0999 28.8747C58.0999 29.9307 58.3339 30.7407 58.8019 31.3047C59.2699 31.8567 59.8999 32.1327 60.6919 32.1327ZM70.5723 33.4287C69.7083 33.4287 68.9583 33.2427 68.3223 32.8707C67.6863 32.4987 67.1943 31.9707 66.8463 31.2867C66.4983 30.6027 66.3243 29.7987 66.3243 28.8747C66.3243 28.1787 66.4203 27.5547 66.6123 27.0027C66.8163 26.4387 67.1043 25.9587 67.4763 25.5627C67.8483 25.1667 68.2923 24.8667 68.8083 24.6627C69.3363 24.4467 69.9243 24.3387 70.5723 24.3387C71.4363 24.3387 72.1863 24.5247 72.8223 24.8967C73.4583 25.2687 73.9503 25.7967 74.2983 26.4807C74.6463 27.1527 74.8203 27.9507 74.8203 28.8747C74.8203 29.5707 74.7183 30.2007 74.5143 30.7647C74.3223 31.3287 74.0403 31.8087 73.6683 32.2047C73.2963 32.6007 72.8463 32.9067 72.3183 33.1227C71.8023 33.3267 71.2203 33.4287 70.5723 33.4287ZM70.5723 32.1327C71.1003 32.1327 71.5563 32.0067 71.9403 31.7547C72.3363 31.5027 72.6363 31.1367 72.8403 30.6567C73.0563 30.1767 73.1643 29.5827 73.1643 28.8747C73.1643 27.8187 72.9303 27.0147 72.4623 26.4627C71.9943 25.9107 71.3643 25.6347 70.5723 25.6347C70.0563 25.6347 69.6003 25.7607 69.2043 26.0127C68.8203 26.2527 68.5203 26.6127 68.3043 27.0927C68.0883 27.5727 67.9803 28.1667 67.9803 28.8747C67.9803 29.9307 68.2143 30.7407 68.6823 31.3047C69.1623 31.8567 69.7923 32.1327 70.5723 32.1327ZM77.5666 33.3927C77.2906 33.3927 77.0806 33.3207 76.9366 33.1767C76.7926 33.0327 76.7206 32.8227 76.7206 32.5467V25.2027C76.7206 24.9267 76.7926 24.7227 76.9366 24.5907C77.0806 24.4467 77.2786 24.3747 77.5306 24.3747C77.7826 24.3747 77.9746 24.4467 78.1066 24.5907C78.2506 24.7227 78.3226 24.9267 78.3226 25.2027V26.5887H78.1426C78.3346 25.8687 78.6946 25.3227 79.2226 24.9507C79.7506 24.5787 80.4166 24.3687 81.2206 24.3207C81.4126 24.3087 81.5686 24.3567 81.6886 24.4647C81.8086 24.5607 81.8746 24.7287 81.8866 24.9687C81.8986 25.1967 81.8446 25.3827 81.7246 25.5267C81.6046 25.6587 81.4186 25.7367 81.1666 25.7607L80.8426 25.7787C80.0506 25.8627 79.4386 26.1207 79.0066 26.5527C78.5866 26.9847 78.3766 27.5787 78.3766 28.3347V32.5467C78.3766 32.8227 78.3046 33.0327 78.1606 33.1767C78.0286 33.3207 77.8306 33.3927 77.5666 33.3927ZM87.225 33.4287C86.517 33.4287 85.923 33.3027 85.443 33.0507C84.975 32.7987 84.621 32.4327 84.381 31.9527C84.153 31.4727 84.039 30.8847 84.039 30.1887V25.7607H82.887C82.671 25.7607 82.503 25.7067 82.383 25.5987C82.263 25.4787 82.203 25.3227 82.203 25.1307C82.203 24.9267 82.263 24.7707 82.383 24.6627C82.503 24.5547 82.671 24.5007 82.887 24.5007H84.039V22.5387C84.039 22.2627 84.111 22.0587 84.255 21.9267C84.399 21.7827 84.603 21.7107 84.867 21.7107C85.131 21.7107 85.329 21.7827 85.461 21.9267C85.605 22.0587 85.677 22.2627 85.677 22.5387V24.5007H87.855C88.083 24.5007 88.257 24.5547 88.377 24.6627C88.497 24.7707 88.557 24.9267 88.557 25.1307C88.557 25.3227 88.497 25.4787 88.377 25.5987C88.257 25.7067 88.083 25.7607 87.855 25.7607H85.677V30.0447C85.677 30.7047 85.815 31.2027 86.091 31.5387C86.367 31.8747 86.823 32.0427 87.459 32.0427C87.687 32.0427 87.879 32.0247 88.035 31.9887C88.191 31.9407 88.329 31.9167 88.449 31.9167C88.557 31.9047 88.647 31.9407 88.719 32.0247C88.803 32.1087 88.845 32.2647 88.845 32.4927C88.845 32.6607 88.815 32.8167 88.755 32.9607C88.707 33.0927 88.605 33.1827 88.449 33.2307C88.305 33.2787 88.113 33.3207 87.873 33.3567C87.633 33.4047 87.417 33.4287 87.225 33.4287Z" fill="black"/>
</svg>
