<svg width="291" height="109" viewBox="0 0 291 109" fill="none" xmlns="http://www.w3.org/2000/svg">
<rect x="1.5" y="5.53699" width="287.667" height="101.963" rx="19.5" fill="#FDD8C1" stroke="#6B2F00" stroke-width="3"/>
<rect x="18.4556" y="1.5" width="270.711" height="88.237" rx="19.5" fill="#F9EFE3" stroke="#6B2F00" stroke-width="3"/>
<path d="M75.2932 61.245C74.8732 61.245 74.5348 61.1517 74.2782 60.965C74.0448 60.7783 73.9048 60.5217 73.8582 60.195C73.8115 59.8683 73.8815 59.5067 74.0682 59.11L83.6232 37.48C83.8332 36.99 84.1015 36.64 84.4282 36.43C84.7548 36.1967 85.1165 36.08 85.5132 36.08C85.9098 36.08 86.2598 36.1967 86.5632 36.43C86.8898 36.64 87.1698 36.99 87.4032 37.48L96.9582 59.11C97.1448 59.5067 97.2148 59.88 97.1682 60.23C97.1448 60.5567 97.0165 60.8133 96.7832 61C96.5498 61.1633 96.2232 61.245 95.8032 61.245C95.3365 61.245 94.9632 61.1283 94.6832 60.895C94.4032 60.6383 94.1582 60.2767 93.9482 59.81L91.4632 54L92.9682 54.84H77.9882L79.4932 54L77.0082 59.81C76.7982 60.3233 76.5648 60.6967 76.3082 60.93C76.0515 61.14 75.7132 61.245 75.2932 61.245ZM85.4432 40L79.9832 52.915L79.1432 52.18H91.8132L91.0082 52.915L85.5132 40H85.4432ZM102.082 67.545C101.592 67.545 101.207 67.405 100.927 67.125C100.647 66.845 100.507 66.4483 100.507 65.935V45.32C100.507 44.7833 100.647 44.3867 100.927 44.13C101.207 43.85 101.592 43.71 102.082 43.71C102.595 43.71 102.98 43.85 103.237 44.13C103.517 44.3867 103.657 44.7833 103.657 45.32V48.505L103.272 47.875C103.645 46.5917 104.38 45.565 105.477 44.795C106.574 44.025 107.892 43.64 109.432 43.64C110.949 43.64 112.267 44.0017 113.387 44.725C114.507 45.425 115.382 46.44 116.012 47.77C116.642 49.0767 116.957 50.64 116.957 52.46C116.957 54.2567 116.642 55.8317 116.012 57.185C115.405 58.515 114.53 59.5417 113.387 60.265C112.267 60.965 110.949 61.315 109.432 61.315C107.915 61.315 106.609 60.93 105.512 60.16C104.415 59.39 103.68 58.375 103.307 57.115H103.692V65.935C103.692 66.4483 103.552 66.845 103.272 67.125C102.992 67.405 102.595 67.545 102.082 67.545ZM108.697 58.795C109.7 58.795 110.575 58.55 111.322 58.06C112.092 57.57 112.687 56.8583 113.107 55.925C113.527 54.9917 113.737 53.8367 113.737 52.46C113.737 50.4067 113.282 48.8433 112.372 47.77C111.462 46.6967 110.237 46.16 108.697 46.16C107.67 46.16 106.772 46.405 106.002 46.895C105.255 47.3617 104.672 48.0617 104.252 48.995C103.855 49.9283 103.657 51.0833 103.657 52.46C103.657 54.5133 104.112 56.0883 105.022 57.185C105.932 58.2583 107.157 58.795 108.697 58.795ZM122.239 67.545C121.749 67.545 121.364 67.405 121.084 67.125C120.804 66.845 120.664 66.4483 120.664 65.935V45.32C120.664 44.7833 120.804 44.3867 121.084 44.13C121.364 43.85 121.749 43.71 122.239 43.71C122.752 43.71 123.137 43.85 123.394 44.13C123.674 44.3867 123.814 44.7833 123.814 45.32V48.505L123.429 47.875C123.802 46.5917 124.537 45.565 125.634 44.795C126.731 44.025 128.049 43.64 129.589 43.64C131.106 43.64 132.424 44.0017 133.544 44.725C134.664 45.425 135.539 46.44 136.169 47.77C136.799 49.0767 137.114 50.64 137.114 52.46C137.114 54.2567 136.799 55.8317 136.169 57.185C135.562 58.515 134.687 59.5417 133.544 60.265C132.424 60.965 131.106 61.315 129.589 61.315C128.072 61.315 126.766 60.93 125.669 60.16C124.572 59.39 123.837 58.375 123.464 57.115H123.849V65.935C123.849 66.4483 123.709 66.845 123.429 67.125C123.149 67.405 122.752 67.545 122.239 67.545ZM128.854 58.795C129.857 58.795 130.732 58.55 131.479 58.06C132.249 57.57 132.844 56.8583 133.264 55.925C133.684 54.9917 133.894 53.8367 133.894 52.46C133.894 50.4067 133.439 48.8433 132.529 47.77C131.619 46.6967 130.394 46.16 128.854 46.16C127.827 46.16 126.929 46.405 126.159 46.895C125.412 47.3617 124.829 48.0617 124.409 48.995C124.012 49.9283 123.814 51.0833 123.814 52.46C123.814 54.5133 124.269 56.0883 125.179 57.185C126.089 58.2583 127.314 58.795 128.854 58.795ZM158.067 61.315C156.97 61.315 155.909 61.2217 154.882 61.035C153.855 60.8717 152.887 60.615 151.977 60.265C151.067 59.915 150.25 59.4833 149.527 58.97C149.224 58.76 149.002 58.5033 148.862 58.2C148.745 57.8967 148.71 57.605 148.757 57.325C148.827 57.0217 148.955 56.765 149.142 56.555C149.352 56.345 149.597 56.2167 149.877 56.17C150.157 56.1233 150.46 56.2167 150.787 56.45C151.86 57.1733 152.98 57.6983 154.147 58.025C155.337 58.3517 156.644 58.515 158.067 58.515C160.12 58.515 161.625 58.1417 162.582 57.395C163.562 56.6483 164.052 55.6683 164.052 54.455C164.052 53.4517 163.702 52.67 163.002 52.11C162.302 51.5267 161.124 51.0717 159.467 50.745L155.757 49.975C153.564 49.5083 151.919 48.7383 150.822 47.665C149.749 46.5917 149.212 45.1567 149.212 43.36C149.212 42.2633 149.434 41.2717 149.877 40.385C150.32 39.475 150.95 38.6933 151.767 38.04C152.584 37.3867 153.54 36.885 154.637 36.535C155.757 36.185 156.994 36.01 158.347 36.01C159.794 36.01 161.147 36.2083 162.407 36.605C163.69 37.0017 164.845 37.585 165.872 38.355C166.152 38.565 166.339 38.8217 166.432 39.125C166.525 39.405 166.537 39.685 166.467 39.965C166.42 40.245 166.292 40.4783 166.082 40.665C165.895 40.8517 165.65 40.9567 165.347 40.98C165.067 41.0033 164.752 40.8983 164.402 40.665C163.469 40.0117 162.512 39.545 161.532 39.265C160.552 38.9617 159.479 38.81 158.312 38.81C157.122 38.81 156.084 38.9967 155.197 39.37C154.334 39.7433 153.657 40.2683 153.167 40.945C152.7 41.5983 152.467 42.3683 152.467 43.255C152.467 44.3283 152.794 45.1683 153.447 45.775C154.1 46.3817 155.197 46.8483 156.737 47.175L160.412 47.91C162.745 48.4 164.472 49.1583 165.592 50.185C166.735 51.1883 167.307 52.5417 167.307 54.245C167.307 55.3183 167.085 56.2867 166.642 57.15C166.222 58.0133 165.615 58.76 164.822 59.39C164.029 59.9967 163.06 60.475 161.917 60.825C160.774 61.1517 159.49 61.315 158.067 61.315ZM177.78 61.315C176.404 61.315 175.249 61.07 174.315 60.58C173.405 60.09 172.717 59.3783 172.25 58.445C171.807 57.5117 171.585 56.3683 171.585 55.015V46.405H169.345C168.925 46.405 168.599 46.3 168.365 46.09C168.132 45.8567 168.015 45.5533 168.015 45.18C168.015 44.7833 168.132 44.48 168.365 44.27C168.599 44.06 168.925 43.955 169.345 43.955H171.585V40.14C171.585 39.6033 171.725 39.2067 172.005 38.95C172.285 38.67 172.682 38.53 173.195 38.53C173.709 38.53 174.094 38.67 174.35 38.95C174.63 39.2067 174.77 39.6033 174.77 40.14V43.955H179.005C179.449 43.955 179.787 44.06 180.02 44.27C180.254 44.48 180.37 44.7833 180.37 45.18C180.37 45.5533 180.254 45.8567 180.02 46.09C179.787 46.3 179.449 46.405 179.005 46.405H174.77V54.735C174.77 56.0183 175.039 56.9867 175.575 57.64C176.112 58.2933 176.999 58.62 178.235 58.62C178.679 58.62 179.052 58.585 179.355 58.515C179.659 58.4217 179.927 58.375 180.16 58.375C180.37 58.3517 180.545 58.4217 180.685 58.585C180.849 58.7483 180.93 59.0517 180.93 59.495C180.93 59.8217 180.872 60.125 180.755 60.405C180.662 60.6617 180.464 60.8367 180.16 60.93C179.88 61.0233 179.507 61.105 179.04 61.175C178.574 61.2683 178.154 61.315 177.78 61.315ZM189.943 61.315C188.263 61.315 186.805 60.9533 185.568 60.23C184.332 59.5067 183.375 58.48 182.698 57.15C182.022 55.82 181.683 54.2567 181.683 52.46C181.683 51.1067 181.87 49.8933 182.243 48.82C182.64 47.7233 183.2 46.79 183.923 46.02C184.647 45.25 185.51 44.6667 186.513 44.27C187.54 43.85 188.683 43.64 189.943 43.64C191.623 43.64 193.082 44.0017 194.318 44.725C195.555 45.4483 196.512 46.475 197.188 47.805C197.865 49.1117 198.203 50.6633 198.203 52.46C198.203 53.8133 198.005 55.0383 197.608 56.135C197.235 57.2317 196.687 58.165 195.963 58.935C195.24 59.705 194.365 60.3 193.338 60.72C192.335 61.1167 191.203 61.315 189.943 61.315ZM189.943 58.795C190.97 58.795 191.857 58.55 192.603 58.06C193.373 57.57 193.957 56.8583 194.353 55.925C194.773 54.9917 194.983 53.8367 194.983 52.46C194.983 50.4067 194.528 48.8433 193.618 47.77C192.708 46.6967 191.483 46.16 189.943 46.16C188.94 46.16 188.053 46.405 187.283 46.895C186.537 47.3617 185.953 48.0617 185.533 48.995C185.113 49.9283 184.903 51.0833 184.903 52.46C184.903 54.5133 185.358 56.0883 186.268 57.185C187.202 58.2583 188.427 58.795 189.943 58.795ZM203.543 61.245C203.007 61.245 202.598 61.105 202.318 60.825C202.038 60.545 201.898 60.1367 201.898 59.6V45.32C201.898 44.7833 202.038 44.3867 202.318 44.13C202.598 43.85 202.983 43.71 203.473 43.71C203.963 43.71 204.337 43.85 204.593 44.13C204.873 44.3867 205.013 44.7833 205.013 45.32V48.015H204.663C205.037 46.615 205.737 45.5533 206.763 44.83C207.79 44.1067 209.085 43.6983 210.648 43.605C211.022 43.5817 211.325 43.675 211.558 43.885C211.792 44.0717 211.92 44.3983 211.943 44.865C211.967 45.3083 211.862 45.67 211.628 45.95C211.395 46.2067 211.033 46.3583 210.543 46.405L209.913 46.44C208.373 46.6033 207.183 47.105 206.343 47.945C205.527 48.785 205.118 49.94 205.118 51.41V59.6C205.118 60.1367 204.978 60.545 204.698 60.825C204.442 61.105 204.057 61.245 203.543 61.245ZM221.932 61.315C220.089 61.315 218.502 60.965 217.172 60.265C215.866 59.5417 214.851 58.5267 214.127 57.22C213.404 55.89 213.042 54.3267 213.042 52.53C213.042 50.7567 213.392 49.205 214.092 47.875C214.816 46.545 215.796 45.5067 217.032 44.76C218.292 44.0133 219.727 43.64 221.337 43.64C222.481 43.64 223.507 43.8383 224.417 44.235C225.351 44.6083 226.144 45.1567 226.797 45.88C227.451 46.6033 227.941 47.49 228.267 48.54C228.617 49.5667 228.792 50.7333 228.792 52.04C228.792 52.4133 228.676 52.705 228.442 52.915C228.232 53.1017 227.917 53.195 227.497 53.195H215.527V51.165H226.692L226.097 51.655C226.097 50.4417 225.911 49.415 225.537 48.575C225.187 47.7117 224.662 47.0583 223.962 46.615C223.286 46.1717 222.434 45.95 221.407 45.95C220.287 45.95 219.331 46.2183 218.537 46.755C217.744 47.2683 217.137 48.0033 216.717 48.96C216.297 49.8933 216.087 50.9783 216.087 52.215V52.425C216.087 54.525 216.589 56.1117 217.592 57.185C218.596 58.2583 220.042 58.795 221.932 58.795C222.679 58.795 223.437 58.7017 224.207 58.515C225.001 58.3283 225.759 57.99 226.482 57.5C226.832 57.29 227.147 57.1967 227.427 57.22C227.731 57.22 227.976 57.3133 228.162 57.5C228.349 57.6633 228.466 57.8733 228.512 58.13C228.559 58.3633 228.524 58.62 228.407 58.9C228.291 59.18 228.069 59.425 227.742 59.635C226.972 60.1717 226.051 60.5917 224.977 60.895C223.927 61.175 222.912 61.315 221.932 61.315Z" fill="black"/>
</svg>
