<svg width="360" height="135" viewBox="0 0 360 135" fill="none" xmlns="http://www.w3.org/2000/svg">
<rect x="1.5" y="6.5" width="357" height="127" rx="19.5" fill="#FDD8C1" stroke="#6B2F00" stroke-width="3"/>
<rect x="22.5" y="1.5" width="336" height="110" rx="19.5" fill="#F9EFE3" stroke="#6B2F00" stroke-width="3"/>
<path d="M70.2635 70.315C67.8135 70.315 65.7135 69.8017 63.9635 68.775C62.2135 67.7483 60.8602 66.29 59.9035 64.4C58.9702 62.4867 58.5035 60.235 58.5035 57.645C58.5035 55.7083 58.7719 53.97 59.3085 52.43C59.8452 50.8667 60.6152 49.5367 61.6185 48.44C62.6219 47.32 63.8469 46.4683 65.2935 45.885C66.7635 45.3017 68.4202 45.01 70.2635 45.01C71.6635 45.01 73.0052 45.2083 74.2885 45.605C75.5952 46.0017 76.7152 46.5617 77.6485 47.285C78.0219 47.5417 78.2669 47.8333 78.3835 48.16C78.5002 48.4867 78.5119 48.8017 78.4185 49.105C78.3485 49.385 78.1969 49.63 77.9635 49.84C77.7535 50.0267 77.4852 50.1317 77.1585 50.155C76.8319 50.155 76.4819 50.0267 76.1085 49.77C75.2919 49.14 74.3935 48.685 73.4135 48.405C72.4569 48.1017 71.4302 47.95 70.3335 47.95C68.5369 47.95 67.0085 48.335 65.7485 49.105C64.5119 49.8517 63.5669 50.9483 62.9135 52.395C62.2835 53.8183 61.9685 55.5683 61.9685 57.645C61.9685 59.6983 62.2835 61.46 62.9135 62.93C63.5669 64.3767 64.5119 65.485 65.7485 66.255C67.0085 67.0017 68.5369 67.375 70.3335 67.375C71.4302 67.375 72.4685 67.2233 73.4485 66.92C74.4519 66.6167 75.3735 66.15 76.2135 65.52C76.5869 65.2633 76.9252 65.1467 77.2285 65.17C77.5552 65.1933 77.8235 65.2983 78.0335 65.485C78.2435 65.6483 78.3835 65.8817 78.4535 66.185C78.5469 66.465 78.5469 66.7567 78.4535 67.06C78.3602 67.3633 78.1502 67.6317 77.8235 67.865C76.8669 68.6817 75.7235 69.3 74.3935 69.72C73.0869 70.1167 71.7102 70.315 70.2635 70.315ZM83.8017 70.245C83.3117 70.245 82.9267 70.105 82.6467 69.825C82.3667 69.545 82.2267 69.1367 82.2267 68.6V46.69C82.2267 46.1533 82.3667 45.7567 82.6467 45.5C82.9267 45.22 83.3117 45.08 83.8017 45.08C84.315 45.08 84.7117 45.22 84.9917 45.5C85.2717 45.7567 85.4117 46.1533 85.4117 46.69V56.665H84.9567C85.4467 55.335 86.24 54.3317 87.3367 53.655C88.4567 52.9783 89.7284 52.64 91.1517 52.64C92.5284 52.64 93.66 52.8967 94.5467 53.41C95.4334 53.9 96.0984 54.6467 96.5417 55.65C96.985 56.6533 97.2067 57.9133 97.2067 59.43V68.6C97.2067 69.1367 97.0667 69.545 96.7867 69.825C96.53 70.105 96.145 70.245 95.6317 70.245C95.1184 70.245 94.7217 70.105 94.4417 69.825C94.1617 69.545 94.0217 69.1367 94.0217 68.6V59.605C94.0217 58.0883 93.73 56.98 93.1467 56.28C92.5634 55.58 91.63 55.23 90.3467 55.23C88.8534 55.23 87.6517 55.6967 86.7417 56.63C85.855 57.54 85.4117 58.7767 85.4117 60.34V68.6C85.4117 69.6967 84.875 70.245 83.8017 70.245ZM109.746 70.315C107.903 70.315 106.316 69.965 104.986 69.265C103.679 68.5417 102.664 67.5267 101.941 66.22C101.218 64.89 100.856 63.3267 100.856 61.53C100.856 59.7567 101.206 58.205 101.906 56.875C102.629 55.545 103.609 54.5067 104.846 53.76C106.106 53.0133 107.541 52.64 109.151 52.64C110.294 52.64 111.321 52.8383 112.231 53.235C113.164 53.6083 113.958 54.1567 114.611 54.88C115.264 55.6033 115.754 56.49 116.081 57.54C116.431 58.5667 116.606 59.7333 116.606 61.04C116.606 61.4133 116.489 61.705 116.256 61.915C116.046 62.1017 115.731 62.195 115.311 62.195H103.341V60.165H114.506L113.911 60.655C113.911 59.4417 113.724 58.415 113.351 57.575C113.001 56.7117 112.476 56.0583 111.776 55.615C111.099 55.1717 110.248 54.95 109.221 54.95C108.101 54.95 107.144 55.2183 106.351 55.755C105.558 56.2683 104.951 57.0033 104.531 57.96C104.111 58.8933 103.901 59.9783 103.901 61.215V61.425C103.901 63.525 104.403 65.1117 105.406 66.185C106.409 67.2583 107.856 67.795 109.746 67.795C110.493 67.795 111.251 67.7017 112.021 67.515C112.814 67.3283 113.573 66.99 114.296 66.5C114.646 66.29 114.961 66.1967 115.241 66.22C115.544 66.22 115.789 66.3133 115.976 66.5C116.163 66.6633 116.279 66.8733 116.326 67.13C116.373 67.3633 116.338 67.62 116.221 67.9C116.104 68.18 115.883 68.425 115.556 68.635C114.786 69.1717 113.864 69.5917 112.791 69.895C111.741 70.175 110.726 70.315 109.746 70.315ZM127.567 70.315C125.841 70.315 124.347 69.9533 123.087 69.23C121.827 68.4833 120.859 67.445 120.182 66.115C119.506 64.7617 119.167 63.175 119.167 61.355C119.167 60.0017 119.354 58.7883 119.727 57.715C120.124 56.6417 120.684 55.7317 121.407 54.985C122.131 54.215 123.006 53.6317 124.032 53.235C125.082 52.8383 126.261 52.64 127.567 52.64C128.384 52.64 129.247 52.7683 130.157 53.025C131.067 53.2817 131.907 53.7017 132.677 54.285C132.934 54.4717 133.097 54.6933 133.167 54.95C133.237 55.1833 133.237 55.4283 133.167 55.685C133.121 55.9417 133.004 56.1633 132.817 56.35C132.654 56.5133 132.432 56.6067 132.152 56.63C131.896 56.6533 131.616 56.5717 131.312 56.385C130.752 55.965 130.157 55.6617 129.527 55.475C128.921 55.2883 128.337 55.195 127.777 55.195C126.914 55.195 126.144 55.335 125.467 55.615C124.814 55.895 124.254 56.3033 123.787 56.84C123.344 57.3533 123.006 57.995 122.772 58.765C122.539 59.5117 122.422 60.3867 122.422 61.39C122.422 63.3733 122.889 64.9367 123.822 66.08C124.756 67.2 126.074 67.76 127.777 67.76C128.337 67.76 128.921 67.6783 129.527 67.515C130.134 67.3283 130.729 67.025 131.312 66.605C131.616 66.4183 131.896 66.3483 132.152 66.395C132.409 66.4183 132.619 66.5233 132.782 66.71C132.969 66.8733 133.086 67.0833 133.132 67.34C133.179 67.5733 133.156 67.8183 133.062 68.075C132.992 68.3317 132.829 68.5417 132.572 68.705C131.826 69.265 131.009 69.6733 130.122 69.93C129.236 70.1867 128.384 70.315 127.567 70.315ZM137.642 70.245C137.152 70.245 136.767 70.105 136.487 69.825C136.207 69.545 136.067 69.1367 136.067 68.6V46.69C136.067 46.1533 136.207 45.7567 136.487 45.5C136.767 45.22 137.152 45.08 137.642 45.08C138.155 45.08 138.552 45.22 138.832 45.5C139.112 45.7567 139.252 46.1533 139.252 46.69V60.48H139.322L146.182 53.795C146.532 53.445 146.847 53.1767 147.127 52.99C147.407 52.8033 147.768 52.71 148.212 52.71C148.655 52.71 148.993 52.8267 149.227 53.06C149.46 53.27 149.577 53.55 149.577 53.9C149.577 54.2267 149.413 54.5533 149.087 54.88L141.807 61.95V60.375L149.752 68.04C150.078 68.3667 150.23 68.705 150.207 69.055C150.207 69.405 150.078 69.6967 149.822 69.93C149.588 70.14 149.273 70.245 148.877 70.245C148.41 70.245 148.025 70.1517 147.722 69.965C147.442 69.7783 147.115 69.4867 146.742 69.09L139.322 62.09H139.252V68.6C139.252 69.6967 138.715 70.245 137.642 70.245ZM163.771 70.175C163.281 70.175 162.896 70.0233 162.616 69.72C162.336 69.4167 162.196 68.9967 162.196 68.46V54.495C162.196 53.935 162.336 53.515 162.616 53.235C162.896 52.9317 163.281 52.78 163.771 52.78C164.285 52.78 164.681 52.9317 164.961 53.235C165.241 53.515 165.381 53.935 165.381 54.495V68.46C165.381 68.9967 165.241 69.4167 164.961 69.72C164.705 70.0233 164.308 70.175 163.771 70.175ZM163.771 49C163.141 49 162.64 48.8367 162.266 48.51C161.916 48.16 161.741 47.705 161.741 47.145C161.741 46.5383 161.916 46.0833 162.266 45.78C162.64 45.4533 163.141 45.29 163.771 45.29C164.448 45.29 164.95 45.4533 165.276 45.78C165.626 46.0833 165.801 46.5383 165.801 47.145C165.801 47.705 165.626 48.16 165.276 48.51C164.95 48.8367 164.448 49 163.771 49ZM177.187 70.315C175.81 70.315 174.655 70.07 173.722 69.58C172.812 69.09 172.124 68.3783 171.657 67.445C171.214 66.5117 170.992 65.3683 170.992 64.015V55.405H168.752C168.332 55.405 168.005 55.3 167.772 55.09C167.539 54.8567 167.422 54.5533 167.422 54.18C167.422 53.7833 167.539 53.48 167.772 53.27C168.005 53.06 168.332 52.955 168.752 52.955H170.992V49.14C170.992 48.6033 171.132 48.2067 171.412 47.95C171.692 47.67 172.089 47.53 172.602 47.53C173.115 47.53 173.5 47.67 173.757 47.95C174.037 48.2067 174.177 48.6033 174.177 49.14V52.955H178.412C178.855 52.955 179.194 53.06 179.427 53.27C179.66 53.48 179.777 53.7833 179.777 54.18C179.777 54.5533 179.66 54.8567 179.427 55.09C179.194 55.3 178.855 55.405 178.412 55.405H174.177V63.735C174.177 65.0183 174.445 65.9867 174.982 66.64C175.519 67.2933 176.405 67.62 177.642 67.62C178.085 67.62 178.459 67.585 178.762 67.515C179.065 67.4217 179.334 67.375 179.567 67.375C179.777 67.3517 179.952 67.4217 180.092 67.585C180.255 67.7483 180.337 68.0517 180.337 68.495C180.337 68.8217 180.279 69.125 180.162 69.405C180.069 69.6617 179.87 69.8367 179.567 69.93C179.287 70.0233 178.914 70.105 178.447 70.175C177.98 70.2683 177.56 70.315 177.187 70.315ZM198.262 70.315C196.582 70.315 195.123 69.9533 193.887 69.23C192.65 68.5067 191.693 67.48 191.017 66.15C190.34 64.82 190.002 63.2567 190.002 61.46C190.002 60.1067 190.188 58.8933 190.562 57.82C190.958 56.7233 191.518 55.79 192.242 55.02C192.965 54.25 193.828 53.6667 194.832 53.27C195.858 52.85 197.002 52.64 198.262 52.64C199.942 52.64 201.4 53.0017 202.637 53.725C203.873 54.4483 204.83 55.475 205.507 56.805C206.183 58.1117 206.522 59.6633 206.522 61.46C206.522 62.8133 206.323 64.0383 205.927 65.135C205.553 66.2317 205.005 67.165 204.282 67.935C203.558 68.705 202.683 69.3 201.657 69.72C200.653 70.1167 199.522 70.315 198.262 70.315ZM198.262 67.795C199.288 67.795 200.175 67.55 200.922 67.06C201.692 66.57 202.275 65.8583 202.672 64.925C203.092 63.9917 203.302 62.8367 203.302 61.46C203.302 59.4067 202.847 57.8433 201.937 56.77C201.027 55.6967 199.802 55.16 198.262 55.16C197.258 55.16 196.372 55.405 195.602 55.895C194.855 56.3617 194.272 57.0617 193.852 57.995C193.432 58.9283 193.222 60.0833 193.222 61.46C193.222 63.5133 193.677 65.0883 194.587 66.185C195.52 67.2583 196.745 67.795 198.262 67.795ZM216.307 70.315C214.93 70.315 213.775 70.0583 212.842 69.545C211.932 69.0317 211.255 68.2733 210.812 67.27C210.368 66.2667 210.147 65.0067 210.147 63.49V54.32C210.147 53.7833 210.275 53.3867 210.532 53.13C210.812 52.85 211.208 52.71 211.722 52.71C212.235 52.71 212.632 52.85 212.912 53.13C213.192 53.3867 213.332 53.7833 213.332 54.32V63.49C213.332 64.9367 213.623 66.01 214.207 66.71C214.79 67.3867 215.712 67.725 216.972 67.725C218.372 67.725 219.503 67.2583 220.367 66.325C221.253 65.3917 221.697 64.155 221.697 62.615V54.32C221.697 53.7833 221.825 53.3867 222.082 53.13C222.362 52.85 222.758 52.71 223.272 52.71C223.785 52.71 224.182 52.85 224.462 53.13C224.742 53.3867 224.882 53.7833 224.882 54.32V68.6C224.882 69.6967 224.368 70.245 223.342 70.245C222.828 70.245 222.432 70.105 222.152 69.825C221.895 69.545 221.767 69.1367 221.767 68.6V65.555L222.222 66.15C221.755 67.5033 220.997 68.5417 219.947 69.265C218.92 69.965 217.707 70.315 216.307 70.315ZM236.692 70.315C235.315 70.315 234.16 70.07 233.227 69.58C232.317 69.09 231.628 68.3783 231.162 67.445C230.718 66.5117 230.497 65.3683 230.497 64.015V55.405H228.257C227.837 55.405 227.51 55.3 227.277 55.09C227.043 54.8567 226.927 54.5533 226.927 54.18C226.927 53.7833 227.043 53.48 227.277 53.27C227.51 53.06 227.837 52.955 228.257 52.955H230.497V49.14C230.497 48.6033 230.637 48.2067 230.917 47.95C231.197 47.67 231.593 47.53 232.107 47.53C232.62 47.53 233.005 47.67 233.262 47.95C233.542 48.2067 233.682 48.6033 233.682 49.14V52.955H237.917C238.36 52.955 238.698 53.06 238.932 53.27C239.165 53.48 239.282 53.7833 239.282 54.18C239.282 54.5533 239.165 54.8567 238.932 55.09C238.698 55.3 238.36 55.405 237.917 55.405H233.682V63.735C233.682 65.0183 233.95 65.9867 234.487 66.64C235.023 67.2933 235.91 67.62 237.147 67.62C237.59 67.62 237.963 67.585 238.267 67.515C238.57 67.4217 238.838 67.375 239.072 67.375C239.282 67.3517 239.457 67.4217 239.597 67.585C239.76 67.7483 239.842 68.0517 239.842 68.495C239.842 68.8217 239.783 69.125 239.667 69.405C239.573 69.6617 239.375 69.8367 239.072 69.93C238.792 70.0233 238.418 70.105 237.952 70.175C237.485 70.2683 237.065 70.315 236.692 70.315ZM252.097 70.245C251.607 70.245 251.222 70.105 250.942 69.825C250.662 69.545 250.522 69.1367 250.522 68.6V46.69C250.522 46.1533 250.662 45.7567 250.942 45.5C251.222 45.22 251.607 45.08 252.097 45.08C252.61 45.08 253.007 45.22 253.287 45.5C253.567 45.7567 253.707 46.1533 253.707 46.69V56.665H253.252C253.742 55.335 254.535 54.3317 255.632 53.655C256.752 52.9783 258.023 52.64 259.447 52.64C260.823 52.64 261.955 52.8967 262.842 53.41C263.728 53.9 264.393 54.6467 264.837 55.65C265.28 56.6533 265.502 57.9133 265.502 59.43V68.6C265.502 69.1367 265.362 69.545 265.082 69.825C264.825 70.105 264.44 70.245 263.927 70.245C263.413 70.245 263.017 70.105 262.737 69.825C262.457 69.545 262.317 69.1367 262.317 68.6V59.605C262.317 58.0883 262.025 56.98 261.442 56.28C260.858 55.58 259.925 55.23 258.642 55.23C257.148 55.23 255.947 55.6967 255.037 56.63C254.15 57.54 253.707 58.7767 253.707 60.34V68.6C253.707 69.6967 253.17 70.245 252.097 70.245ZM278.041 70.315C276.198 70.315 274.611 69.965 273.281 69.265C271.974 68.5417 270.959 67.5267 270.236 66.22C269.513 64.89 269.151 63.3267 269.151 61.53C269.151 59.7567 269.501 58.205 270.201 56.875C270.924 55.545 271.904 54.5067 273.141 53.76C274.401 53.0133 275.836 52.64 277.446 52.64C278.589 52.64 279.616 52.8383 280.526 53.235C281.459 53.6083 282.253 54.1567 282.906 54.88C283.559 55.6033 284.049 56.49 284.376 57.54C284.726 58.5667 284.901 59.7333 284.901 61.04C284.901 61.4133 284.784 61.705 284.551 61.915C284.341 62.1017 284.026 62.195 283.606 62.195H271.636V60.165H282.801L282.206 60.655C282.206 59.4417 282.019 58.415 281.646 57.575C281.296 56.7117 280.771 56.0583 280.071 55.615C279.394 55.1717 278.543 54.95 277.516 54.95C276.396 54.95 275.439 55.2183 274.646 55.755C273.853 56.2683 273.246 57.0033 272.826 57.96C272.406 58.8933 272.196 59.9783 272.196 61.215V61.425C272.196 63.525 272.698 65.1117 273.701 66.185C274.704 67.2583 276.151 67.795 278.041 67.795C278.788 67.795 279.546 67.7017 280.316 67.515C281.109 67.3283 281.868 66.99 282.591 66.5C282.941 66.29 283.256 66.1967 283.536 66.22C283.839 66.22 284.084 66.3133 284.271 66.5C284.458 66.6633 284.574 66.8733 284.621 67.13C284.668 67.3633 284.633 67.62 284.516 67.9C284.399 68.18 284.178 68.425 283.851 68.635C283.081 69.1717 282.159 69.5917 281.086 69.895C280.036 70.175 279.021 70.315 278.041 70.315ZM290.122 70.245C289.586 70.245 289.177 70.105 288.897 69.825C288.617 69.545 288.477 69.1367 288.477 68.6V54.32C288.477 53.7833 288.617 53.3867 288.897 53.13C289.177 52.85 289.562 52.71 290.052 52.71C290.542 52.71 290.916 52.85 291.172 53.13C291.452 53.3867 291.592 53.7833 291.592 54.32V57.015H291.242C291.616 55.615 292.316 54.5533 293.342 53.83C294.369 53.1067 295.664 52.6983 297.227 52.605C297.601 52.5817 297.904 52.675 298.137 52.885C298.371 53.0717 298.499 53.3983 298.522 53.865C298.546 54.3083 298.441 54.67 298.207 54.95C297.974 55.2067 297.612 55.3583 297.122 55.405L296.492 55.44C294.952 55.6033 293.762 56.105 292.922 56.945C292.106 57.785 291.697 58.94 291.697 60.41V68.6C291.697 69.1367 291.557 69.545 291.277 69.825C291.021 70.105 290.636 70.245 290.122 70.245ZM308.511 70.315C306.668 70.315 305.081 69.965 303.751 69.265C302.445 68.5417 301.43 67.5267 300.706 66.22C299.983 64.89 299.621 63.3267 299.621 61.53C299.621 59.7567 299.971 58.205 300.671 56.875C301.395 55.545 302.375 54.5067 303.611 53.76C304.871 53.0133 306.306 52.64 307.916 52.64C309.06 52.64 310.086 52.8383 310.996 53.235C311.93 53.6083 312.723 54.1567 313.376 54.88C314.03 55.6033 314.52 56.49 314.846 57.54C315.196 58.5667 315.371 59.7333 315.371 61.04C315.371 61.4133 315.255 61.705 315.021 61.915C314.811 62.1017 314.496 62.195 314.076 62.195H302.106V60.165H313.271L312.676 60.655C312.676 59.4417 312.49 58.415 312.116 57.575C311.766 56.7117 311.241 56.0583 310.541 55.615C309.865 55.1717 309.013 54.95 307.986 54.95C306.866 54.95 305.91 55.2183 305.116 55.755C304.323 56.2683 303.716 57.0033 303.296 57.96C302.876 58.8933 302.666 59.9783 302.666 61.215V61.425C302.666 63.525 303.168 65.1117 304.171 66.185C305.175 67.2583 306.621 67.795 308.511 67.795C309.258 67.795 310.016 67.7017 310.786 67.515C311.58 67.3283 312.338 66.99 313.061 66.5C313.411 66.29 313.726 66.1967 314.006 66.22C314.31 66.22 314.555 66.3133 314.741 66.5C314.928 66.6633 315.045 66.8733 315.091 67.13C315.138 67.3633 315.103 67.62 314.986 67.9C314.87 68.18 314.648 68.425 314.321 68.635C313.551 69.1717 312.63 69.5917 311.556 69.895C310.506 70.175 309.491 70.315 308.511 70.315ZM320.488 63.525C320.184 63.525 319.928 63.4317 319.718 63.245C319.531 63.035 319.426 62.72 319.403 62.3L318.633 47.145C318.586 46.515 318.726 46.0133 319.053 45.64C319.379 45.2667 319.858 45.08 320.488 45.08C321.094 45.08 321.561 45.2667 321.888 45.64C322.214 46.0133 322.354 46.515 322.308 47.145L321.538 62.3C321.514 62.72 321.409 63.035 321.223 63.245C321.036 63.4317 320.791 63.525 320.488 63.525ZM320.488 70.14C319.881 70.14 319.379 69.9417 318.983 69.545C318.586 69.1483 318.388 68.6467 318.388 68.04C318.388 67.4333 318.586 66.9433 318.983 66.57C319.379 66.1967 319.881 66.01 320.488 66.01C321.141 66.01 321.643 66.1967 321.993 66.57C322.366 66.9433 322.553 67.4333 322.553 68.04C322.553 68.6467 322.366 69.1483 321.993 69.545C321.643 69.9417 321.141 70.14 320.488 70.14Z" fill="black"/>
</svg>
