<svg width="291" height="109" viewBox="0 0 291 109" fill="none" xmlns="http://www.w3.org/2000/svg">
<rect x="1.5" y="5.53699" width="287.667" height="101.963" rx="19.5" fill="#FDD8C1" stroke="#6B2F00" stroke-width="3"/>
<rect x="18.4556" y="1.5" width="270.711" height="88.237" rx="19.5" fill="#F9EFE3" stroke="#6B2F00" stroke-width="3"/>
<path d="M65.2704 57.315C62.6337 57.315 60.3937 56.8133 58.5503 55.81C56.7303 54.7833 55.342 53.325 54.3853 51.435C53.452 49.545 52.9853 47.2933 52.9853 44.68C52.9853 42.72 53.2537 40.97 53.7903 39.43C54.327 37.8667 55.1087 36.5367 56.1353 35.44C57.1853 34.32 58.4453 33.4683 59.9153 32.885C61.4087 32.3017 63.0887 32.01 64.9553 32.01C66.402 32.01 67.802 32.2083 69.1554 32.605C70.5087 32.9783 71.7454 33.5967 72.8654 34.46C73.1454 34.67 73.3204 34.915 73.3903 35.195C73.4837 35.475 73.4953 35.755 73.4253 36.035C73.3554 36.315 73.2154 36.56 73.0054 36.77C72.8187 36.98 72.5737 37.1083 72.2703 37.155C71.9904 37.1783 71.687 37.085 71.3604 36.875C70.4037 36.175 69.4004 35.6733 68.3504 35.37C67.3237 35.0667 66.192 34.915 64.9553 34.915C63.112 34.915 61.5487 35.3 60.2653 36.07C58.982 36.8167 58.0137 37.925 57.3603 39.395C56.7303 40.8417 56.4153 42.6033 56.4153 44.68C56.4153 47.8767 57.162 50.3033 58.6553 51.96C60.172 53.6167 62.412 54.445 65.3753 54.445C66.472 54.445 67.5337 54.34 68.5603 54.13C69.6103 53.92 70.6137 53.6283 71.5704 53.255L70.8704 55.005V46.57H66.1103C65.6903 46.57 65.352 46.4533 65.0954 46.22C64.862 45.9867 64.7453 45.6717 64.7453 45.275C64.7453 44.8783 64.862 44.575 65.0954 44.365C65.352 44.155 65.6903 44.05 66.1103 44.05H72.3053C72.7253 44.05 73.052 44.1667 73.2854 44.4C73.542 44.6333 73.6704 44.9717 73.6704 45.415V54.41C73.6704 54.7833 73.6004 55.11 73.4604 55.39C73.3204 55.6467 73.087 55.8333 72.7603 55.95C71.7803 56.3467 70.6137 56.6733 69.2604 56.93C67.907 57.1867 66.577 57.315 65.2704 57.315ZM85.8334 57.315C84.1534 57.315 82.6951 56.9533 81.4584 56.23C80.2217 55.5067 79.2651 54.48 78.5884 53.15C77.9117 51.82 77.5734 50.2567 77.5734 48.46C77.5734 47.1067 77.7601 45.8933 78.1334 44.82C78.5301 43.7233 79.0901 42.79 79.8134 42.02C80.5367 41.25 81.4001 40.6667 82.4034 40.27C83.4301 39.85 84.5734 39.64 85.8334 39.64C87.5134 39.64 88.9717 40.0017 90.2084 40.725C91.4451 41.4483 92.4017 42.475 93.0784 43.805C93.7551 45.1117 94.0934 46.6633 94.0934 48.46C94.0934 49.8133 93.8951 51.0383 93.4984 52.135C93.1251 53.2317 92.5767 54.165 91.8534 54.935C91.1301 55.705 90.2551 56.3 89.2284 56.72C88.2251 57.1167 87.0934 57.315 85.8334 57.315ZM85.8334 54.795C86.8601 54.795 87.7467 54.55 88.4934 54.06C89.2634 53.57 89.8467 52.8583 90.2434 51.925C90.6634 50.9917 90.8734 49.8367 90.8734 48.46C90.8734 46.4067 90.4184 44.8433 89.5084 43.77C88.5984 42.6967 87.3734 42.16 85.8334 42.16C84.8301 42.16 83.9434 42.405 83.1734 42.895C82.4267 43.3617 81.8434 44.0617 81.4234 44.995C81.0034 45.9283 80.7934 47.0833 80.7934 48.46C80.7934 50.5133 81.2484 52.0883 82.1584 53.185C83.0917 54.2583 84.3167 54.795 85.8334 54.795ZM105.033 57.315C103.353 57.315 101.895 56.9533 100.658 56.23C99.4217 55.5067 98.465 54.48 97.7884 53.15C97.1117 51.82 96.7734 50.2567 96.7734 48.46C96.7734 47.1067 96.96 45.8933 97.3334 44.82C97.73 43.7233 98.29 42.79 99.0134 42.02C99.7367 41.25 100.6 40.6667 101.603 40.27C102.63 39.85 103.773 39.64 105.033 39.64C106.713 39.64 108.172 40.0017 109.408 40.725C110.645 41.4483 111.602 42.475 112.278 43.805C112.955 45.1117 113.293 46.6633 113.293 48.46C113.293 49.8133 113.095 51.0383 112.698 52.135C112.325 53.2317 111.777 54.165 111.053 54.935C110.33 55.705 109.455 56.3 108.428 56.72C107.425 57.1167 106.293 57.315 105.033 57.315ZM105.033 54.795C106.06 54.795 106.947 54.55 107.693 54.06C108.463 53.57 109.047 52.8583 109.443 51.925C109.863 50.9917 110.073 49.8367 110.073 48.46C110.073 46.4067 109.618 44.8433 108.708 43.77C107.798 42.6967 106.573 42.16 105.033 42.16C104.03 42.16 103.143 42.405 102.373 42.895C101.627 43.3617 101.043 44.0617 100.623 44.995C100.203 45.9283 99.9934 47.0833 99.9934 48.46C99.9934 50.5133 100.448 52.0883 101.358 53.185C102.292 54.2583 103.517 54.795 105.033 54.795ZM124.653 63.615C123.393 63.615 122.168 63.475 120.978 63.195C119.812 62.915 118.75 62.4833 117.793 61.9C117.49 61.7133 117.28 61.4917 117.163 61.235C117.07 61.0017 117.047 60.7567 117.093 60.5C117.163 60.2433 117.28 60.01 117.443 59.8C117.63 59.6133 117.84 59.485 118.073 59.415C118.33 59.3683 118.587 59.4267 118.843 59.59C119.87 60.1733 120.85 60.57 121.783 60.78C122.717 60.99 123.603 61.095 124.443 61.095C126.1 61.095 127.337 60.6633 128.153 59.8C128.993 58.96 129.413 57.7233 129.413 56.09V52.31H129.728C129.402 53.6167 128.667 54.655 127.523 55.425C126.403 56.195 125.097 56.58 123.603 56.58C122.063 56.58 120.722 56.23 119.578 55.53C118.435 54.8067 117.548 53.815 116.918 52.555C116.288 51.2717 115.973 49.79 115.973 48.11C115.973 46.8267 116.148 45.6717 116.498 44.645C116.872 43.595 117.385 42.7083 118.038 41.985C118.715 41.2383 119.52 40.6667 120.453 40.27C121.387 39.85 122.437 39.64 123.603 39.64C125.12 39.64 126.438 40.025 127.558 40.795C128.678 41.565 129.402 42.6033 129.728 43.91L129.343 44.4V41.32C129.343 40.7833 129.483 40.3867 129.763 40.13C130.043 39.85 130.44 39.71 130.953 39.71C131.443 39.71 131.828 39.85 132.108 40.13C132.388 40.3867 132.528 40.7833 132.528 41.32V55.67C132.528 58.3067 131.852 60.29 130.498 61.62C129.168 62.95 127.22 63.615 124.653 63.615ZM124.303 54.06C125.353 54.06 126.252 53.8267 126.998 53.36C127.768 52.87 128.352 52.1817 128.748 51.295C129.168 50.385 129.378 49.3233 129.378 48.11C129.378 46.2667 128.923 44.82 128.013 43.77C127.103 42.6967 125.867 42.16 124.303 42.16C123.253 42.16 122.343 42.405 121.573 42.895C120.827 43.3617 120.243 44.0383 119.823 44.925C119.403 45.8117 119.193 46.8733 119.193 48.11C119.193 49.93 119.648 51.3767 120.558 52.45C121.492 53.5233 122.74 54.06 124.303 54.06ZM142.603 57.315C140.853 57.315 139.523 56.8017 138.613 55.775C137.703 54.725 137.248 53.22 137.248 51.26V33.69C137.248 33.1533 137.388 32.7567 137.668 32.5C137.948 32.22 138.333 32.08 138.823 32.08C139.336 32.08 139.733 32.22 140.013 32.5C140.293 32.7567 140.433 33.1533 140.433 33.69V51.015C140.433 52.2283 140.678 53.1383 141.168 53.745C141.681 54.3283 142.405 54.62 143.338 54.62C143.548 54.62 143.735 54.62 143.898 54.62C144.061 54.5967 144.225 54.5733 144.388 54.55C144.645 54.5267 144.831 54.5967 144.948 54.76C145.065 54.9233 145.123 55.25 145.123 55.74C145.123 56.1833 145.018 56.5333 144.808 56.79C144.621 57.0233 144.306 57.175 143.863 57.245C143.653 57.2683 143.443 57.28 143.233 57.28C143.023 57.3033 142.813 57.315 142.603 57.315ZM155.094 57.315C153.251 57.315 151.664 56.965 150.334 56.265C149.028 55.5417 148.013 54.5267 147.289 53.22C146.566 51.89 146.204 50.3267 146.204 48.53C146.204 46.7567 146.554 45.205 147.254 43.875C147.978 42.545 148.958 41.5067 150.194 40.76C151.454 40.0133 152.889 39.64 154.499 39.64C155.643 39.64 156.669 39.8383 157.579 40.235C158.513 40.6083 159.306 41.1567 159.959 41.88C160.613 42.6033 161.103 43.49 161.429 44.54C161.779 45.5667 161.954 46.7333 161.954 48.04C161.954 48.4133 161.838 48.705 161.604 48.915C161.394 49.1017 161.079 49.195 160.659 49.195H148.689V47.165H159.854L159.259 47.655C159.259 46.4417 159.073 45.415 158.699 44.575C158.349 43.7117 157.824 43.0583 157.124 42.615C156.448 42.1717 155.596 41.95 154.569 41.95C153.449 41.95 152.493 42.2183 151.699 42.755C150.906 43.2683 150.299 44.0033 149.879 44.96C149.459 45.8933 149.249 46.9783 149.249 48.215V48.425C149.249 50.525 149.751 52.1117 150.754 53.185C151.758 54.2583 153.204 54.795 155.094 54.795C155.841 54.795 156.599 54.7017 157.369 54.515C158.163 54.3283 158.921 53.99 159.644 53.5C159.994 53.29 160.309 53.1967 160.589 53.22C160.893 53.22 161.138 53.3133 161.324 53.5C161.511 53.6633 161.628 53.8733 161.674 54.13C161.721 54.3633 161.686 54.62 161.569 54.9C161.453 55.18 161.231 55.425 160.904 55.635C160.134 56.1717 159.213 56.5917 158.139 56.895C157.089 57.175 156.074 57.315 155.094 57.315ZM176.302 57.245C175.788 57.245 175.392 57.105 175.112 56.825C174.832 56.5217 174.692 56.1017 174.692 55.565V33.97C174.692 33.4333 174.832 33.025 175.112 32.745C175.415 32.465 175.823 32.325 176.337 32.325H184.667C187.327 32.325 189.368 32.9783 190.792 34.285C192.238 35.5917 192.962 37.4233 192.962 39.78C192.962 42.16 192.238 44.0033 190.792 45.31C189.368 46.6167 187.327 47.27 184.667 47.27H177.947V55.565C177.947 56.1017 177.807 56.5217 177.527 56.825C177.27 57.105 176.862 57.245 176.302 57.245ZM177.947 44.645H184.247C186.067 44.645 187.432 44.2367 188.342 43.42C189.275 42.58 189.742 41.3667 189.742 39.78C189.742 38.1933 189.275 37.0033 188.342 36.21C187.432 35.3933 186.067 34.985 184.247 34.985H177.947V44.645ZM201.527 57.315C199.777 57.315 198.447 56.8017 197.537 55.775C196.627 54.725 196.172 53.22 196.172 51.26V33.69C196.172 33.1533 196.312 32.7567 196.592 32.5C196.872 32.22 197.257 32.08 197.747 32.08C198.26 32.08 198.657 32.22 198.937 32.5C199.217 32.7567 199.357 33.1533 199.357 33.69V51.015C199.357 52.2283 199.602 53.1383 200.092 53.745C200.605 54.3283 201.328 54.62 202.262 54.62C202.472 54.62 202.658 54.62 202.822 54.62C202.985 54.5967 203.148 54.5733 203.312 54.55C203.568 54.5267 203.755 54.5967 203.872 54.76C203.988 54.9233 204.047 55.25 204.047 55.74C204.047 56.1833 203.942 56.5333 203.732 56.79C203.545 57.0233 203.23 57.175 202.787 57.245C202.577 57.2683 202.367 57.28 202.157 57.28C201.947 57.3033 201.737 57.315 201.527 57.315ZM211.739 57.315C210.572 57.315 209.511 57.0817 208.554 56.615C207.621 56.1483 206.886 55.5183 206.349 54.725C205.836 53.9317 205.579 53.045 205.579 52.065C205.579 50.805 205.894 49.8133 206.524 49.09C207.154 48.3667 208.216 47.8533 209.709 47.55C211.202 47.2233 213.209 47.06 215.729 47.06H217.374V49.09H215.799C214.002 49.09 212.579 49.1717 211.529 49.335C210.502 49.4983 209.779 49.79 209.359 50.21C208.939 50.6067 208.729 51.1667 208.729 51.89C208.729 52.8 209.044 53.5467 209.674 54.13C210.327 54.7133 211.214 55.005 212.334 55.005C213.221 55.005 214.002 54.795 214.679 54.375C215.356 53.9317 215.892 53.3483 216.289 52.625C216.686 51.8783 216.884 51.0267 216.884 50.07V46.045C216.884 44.6683 216.604 43.6767 216.044 43.07C215.484 42.44 214.539 42.125 213.209 42.125C212.439 42.125 211.646 42.23 210.829 42.44C210.012 42.65 209.161 42.9767 208.274 43.42C207.924 43.5833 207.621 43.6417 207.364 43.595C207.107 43.525 206.897 43.385 206.734 43.175C206.594 42.9417 206.512 42.6967 206.489 42.44C206.489 42.16 206.547 41.8917 206.664 41.635C206.804 41.3783 207.037 41.1917 207.364 41.075C208.391 40.5617 209.406 40.2 210.409 39.99C211.436 39.7567 212.392 39.64 213.279 39.64C214.796 39.64 216.044 39.885 217.024 40.375C218.004 40.8417 218.739 41.5767 219.229 42.58C219.719 43.56 219.964 44.82 219.964 46.36V55.6C219.964 56.1367 219.836 56.545 219.579 56.825C219.322 57.105 218.949 57.245 218.459 57.245C217.992 57.245 217.619 57.105 217.339 56.825C217.082 56.545 216.954 56.1367 216.954 55.6V53.115H217.269C217.082 53.9783 216.732 54.725 216.219 55.355C215.706 55.985 215.064 56.475 214.294 56.825C213.547 57.1517 212.696 57.315 211.739 57.315ZM228.34 63.545C227.967 63.545 227.652 63.44 227.395 63.23C227.162 63.0433 227.022 62.775 226.975 62.425C226.952 62.0983 227.022 61.7483 227.185 61.375L229.565 55.985V57.315L222.95 41.915C222.787 41.5183 222.729 41.1567 222.775 40.83C222.822 40.5033 222.974 40.235 223.23 40.025C223.51 39.815 223.884 39.71 224.35 39.71C224.747 39.71 225.062 39.8033 225.295 39.99C225.529 40.1767 225.75 40.5033 225.96 40.97L231.455 54.515H230.475L236.075 40.97C236.262 40.5033 236.484 40.1767 236.74 39.99C236.997 39.8033 237.347 39.71 237.79 39.71C238.187 39.71 238.49 39.815 238.7 40.025C238.934 40.235 239.074 40.5033 239.12 40.83C239.167 41.1567 239.097 41.5067 238.91 41.88L230.09 62.285C229.857 62.775 229.612 63.1017 229.355 63.265C229.122 63.4517 228.784 63.545 228.34 63.545Z" fill="black"/>
</svg>
