<svg width="165" height="63" viewBox="0 0 165 63" fill="none" xmlns="http://www.w3.org/2000/svg">
<rect x="1.5" y="3.83331" width="161.541" height="57.6667" rx="19.5" fill="#FDD8C1" stroke="#6B2F00" stroke-width="3"/>
<rect x="11.0983" y="1.5" width="151.943" height="49.7333" rx="19.5" fill="#F9EFE3" stroke="#6B2F00" stroke-width="3"/>
<path d="M19.0462 18.3967L21.3002 16.0867V24.5427L19.7602 23.3247H28.2442V27.1187H19.7602L21.3002 25.8027V35.2667H16.3162V14.6167H29.4902V18.3967H19.0462ZM32.0584 35.2667V14.6167H36.9864V35.2667H32.0584ZM48.3141 35.6167C46.6528 35.6167 45.1361 35.2153 43.7641 34.4127C42.4015 33.6007 41.3188 32.4107 40.5161 30.8427C39.7135 29.2653 39.3121 27.3193 39.3121 25.0047C39.3121 22.6993 39.7368 20.7487 40.5861 19.1527C41.4448 17.5567 42.5928 16.348 44.0301 15.5267C45.4768 14.696 47.0868 14.2807 48.8601 14.2807C50.3535 14.2807 51.6181 14.5187 52.6541 14.9947C53.6995 15.4613 54.5441 16.0633 55.1881 16.8007C55.8415 17.538 56.3128 18.3127 56.6021 19.1247C56.9008 19.9367 57.0501 20.6787 57.0501 21.3507C57.0501 21.3787 57.0501 21.4067 57.0501 21.4347C57.0501 21.4627 57.0501 21.4907 57.0501 21.5187H52.1921C52.1921 21.4907 52.1921 21.4627 52.1921 21.4347C52.1921 21.4067 52.1921 21.3787 52.1921 21.3507C52.1921 20.9587 52.1175 20.576 51.9681 20.2027C51.8281 19.8293 51.6135 19.4933 51.3241 19.1947C51.0348 18.896 50.6848 18.658 50.2741 18.4807C49.8635 18.3033 49.3921 18.2147 48.8601 18.2147C48.1415 18.2147 47.4368 18.4247 46.7461 18.8447C46.0648 19.2553 45.5001 19.9553 45.0521 20.9447C44.6135 21.9247 44.3941 23.278 44.3941 25.0047C44.3941 26.3113 44.5201 27.3987 44.7721 28.2667C45.0241 29.1253 45.3555 29.8067 45.7661 30.3107C46.1861 30.8147 46.6575 31.174 47.1801 31.3887C47.7028 31.594 48.2348 31.6967 48.7761 31.6967C49.5321 31.6967 50.1715 31.5707 50.6941 31.3187C51.2261 31.0667 51.6461 30.754 51.9541 30.3807C52.2621 30.0073 52.4581 29.6433 52.5421 29.2887V28.2247H48.7761V24.6967H56.9661V35.2667H54.5021L54.0261 32.9847C53.9608 33.1713 53.8021 33.414 53.5501 33.7127C53.3075 34.0113 52.9621 34.3053 52.5141 34.5947C52.0661 34.884 51.4921 35.1267 50.7921 35.3227C50.1015 35.5187 49.2755 35.6167 48.3141 35.6167ZM75.9079 27.8607C75.9079 30.4553 75.1939 32.3967 73.7659 33.6847C72.3472 34.9727 70.4059 35.6167 67.9419 35.6167C65.4779 35.6167 63.5366 34.9727 62.1179 33.6847C60.6992 32.3967 59.9899 30.4553 59.9899 27.8607C59.9899 27.5153 59.9899 27.156 59.9899 26.7827C59.9899 26.4 59.9899 26.0033 59.9899 25.5927V14.6167H65.0019V26.3487C65.0019 26.6473 65.0019 26.932 65.0019 27.2027C65.0019 27.4733 65.0019 27.73 65.0019 27.9727C65.0019 29.2233 65.2212 30.1567 65.6599 30.7727C66.1079 31.3887 66.8686 31.6967 67.9419 31.6967C69.0152 31.6967 69.7759 31.3887 70.2239 30.7727C70.6812 30.1567 70.9099 29.2233 70.9099 27.9727V14.6167H75.9079V27.8607ZM78.8499 35.2667V14.6167H87.6139C89.8725 14.6167 91.5479 15.1253 92.6399 16.1427C93.7412 17.1507 94.2919 18.5787 94.2919 20.4267C94.2919 21.4907 94.0912 22.396 93.6899 23.1427C93.2885 23.88 92.7892 24.454 92.1919 24.8647C91.5945 25.266 91.0112 25.49 90.4419 25.5367C91.0299 25.574 91.5805 25.7187 92.0939 25.9707C92.6165 26.2133 93.0365 26.61 93.3539 27.1607C93.6805 27.702 93.8439 28.43 93.8439 29.3447C93.8439 29.9793 93.8439 30.5953 93.8439 31.1927C93.8439 31.7807 93.8439 32.392 93.8439 33.0267C93.8439 33.5027 93.8812 33.9507 93.9559 34.3707C94.0305 34.7813 94.1425 35.08 94.2919 35.2667H89.2939C89.1632 35.052 89.0559 34.744 88.9719 34.3427C88.8972 33.9413 88.8599 33.5027 88.8599 33.0267C88.8599 32.4667 88.8599 31.9487 88.8599 31.4727C88.8599 30.9967 88.8599 30.4787 88.8599 29.9187C88.8599 29.144 88.6732 28.5373 88.2999 28.0987C87.9359 27.66 87.3152 27.4407 86.4379 27.4407H82.4199L83.7359 25.8867V35.2667H78.8499ZM83.7359 25.4387L82.4199 23.6607H86.4939C87.0072 23.6607 87.4645 23.5487 87.8659 23.3247C88.2672 23.1007 88.5799 22.7833 88.8039 22.3727C89.0372 21.9527 89.1539 21.4627 89.1539 20.9027C89.1539 20.156 88.9112 19.5493 88.4259 19.0827C87.9499 18.616 87.2872 18.3827 86.4379 18.3827H82.2939L83.7359 16.8287V25.4387ZM95.8282 35.2667L100.798 14.6027H108.722L113.678 35.2667H108.554L104.76 17.6127H104.788L100.938 35.2667H95.8282ZM99.7762 30.7027V26.8807H109.772V30.7027H99.7762ZM122.878 35.6167C121.375 35.6167 120.036 35.374 118.86 34.8887C117.684 34.4033 116.76 33.6847 116.088 32.7327C115.416 31.7713 115.08 30.5767 115.08 29.1487C115.08 29.018 115.08 28.892 115.08 28.7707C115.08 28.6493 115.08 28.5187 115.08 28.3787H120.078C120.078 28.5 120.078 28.6167 120.078 28.7287C120.078 28.8313 120.078 28.9387 120.078 29.0507C120.078 29.8627 120.311 30.5067 120.778 30.9827C121.254 31.4587 121.968 31.6967 122.92 31.6967C123.863 31.6967 124.591 31.552 125.104 31.2627C125.627 30.9733 125.888 30.4973 125.888 29.8347C125.888 29.3587 125.669 28.9293 125.23 28.5467C124.801 28.164 124.217 27.814 123.48 27.4967C122.743 27.17 121.912 26.8667 120.988 26.5867C119.98 26.2693 119.037 25.8493 118.16 25.3267C117.283 24.7947 116.573 24.118 116.032 23.2967C115.491 22.466 115.22 21.4393 115.22 20.2167C115.22 18.966 115.556 17.902 116.228 17.0247C116.909 16.138 117.824 15.4613 118.972 14.9947C120.129 14.5187 121.427 14.2807 122.864 14.2807C124.348 14.2807 125.669 14.514 126.826 14.9807C127.993 15.4473 128.912 16.138 129.584 17.0527C130.256 17.9673 130.592 19.0967 130.592 20.4407C130.592 20.5807 130.592 20.7113 130.592 20.8327C130.592 20.954 130.592 21.08 130.592 21.2107H125.608C125.608 21.1453 125.608 21.0613 125.608 20.9587C125.608 20.8467 125.608 20.7533 125.608 20.6787C125.608 19.9227 125.398 19.3207 124.978 18.8727C124.558 18.4153 123.872 18.1867 122.92 18.1867C121.996 18.1867 121.282 18.3547 120.778 18.6907C120.274 19.0267 120.022 19.5307 120.022 20.2027C120.022 20.688 120.218 21.1033 120.61 21.4487C121.002 21.794 121.539 22.1113 122.22 22.4007C122.901 22.6807 123.676 22.9747 124.544 23.2827C125.785 23.712 126.873 24.188 127.806 24.7107C128.739 25.2333 129.463 25.8867 129.976 26.6707C130.489 27.4547 130.746 28.458 130.746 29.6807C130.746 30.95 130.41 32.028 129.738 32.9147C129.075 33.792 128.151 34.464 126.966 34.9307C125.781 35.388 124.418 35.6167 122.878 35.6167ZM150.045 14.6167V35.2667H145.033V25.5367L147.287 26.8807H135.891L138.145 25.6067V35.2667H133.133V14.6167H138.145V24.4167L135.891 23.1007H147.287L145.033 24.4027V14.6167H150.045ZM152.949 35.2667V14.6167H157.877V35.2667H152.949Z" fill="black"/>
</svg>
