<svg width="1317" height="63" viewBox="0 0 1317 63" fill="none" xmlns="http://www.w3.org/2000/svg">
<rect x="1216.82" y="3.83337" width="98.0099" height="57.6667" rx="19.5" fill="#FDD8C1" stroke="#6B2F00" stroke-width="3"/>
<rect x="1226.42" y="1.5" width="88.1831" height="49.7333" rx="19.5" fill="#F9EFE3" stroke="#6B2F00" stroke-width="3"/>
<path d="M1244.58 33.4287C1244.01 33.4287 1243.47 33.3807 1242.94 33.2847C1242.41 33.2007 1241.91 33.0687 1241.45 32.8887C1240.98 32.7087 1240.56 32.4867 1240.19 32.2227C1240.03 32.1147 1239.92 31.9827 1239.84 31.8267C1239.78 31.6707 1239.77 31.5207 1239.79 31.3767C1239.83 31.2207 1239.89 31.0887 1239.99 30.9807C1240.1 30.8727 1240.22 30.8067 1240.37 30.7827C1240.51 30.7587 1240.67 30.8067 1240.83 30.9267C1241.39 31.2987 1241.96 31.5687 1242.56 31.7367C1243.17 31.9047 1243.85 31.9887 1244.58 31.9887C1245.63 31.9887 1246.41 31.7967 1246.9 31.4127C1247.4 31.0287 1247.66 30.5247 1247.66 29.9007C1247.66 29.3847 1247.48 28.9827 1247.12 28.6947C1246.76 28.3947 1246.15 28.1607 1245.3 27.9927L1243.39 27.5967C1242.26 27.3567 1241.42 26.9607 1240.85 26.4087C1240.3 25.8567 1240.02 25.1187 1240.02 24.1947C1240.02 23.6307 1240.14 23.1207 1240.37 22.6647C1240.59 22.1967 1240.92 21.7947 1241.34 21.4587C1241.76 21.1227 1242.25 20.8647 1242.81 20.6847C1243.39 20.5047 1244.03 20.4147 1244.72 20.4147C1245.47 20.4147 1246.16 20.5167 1246.81 20.7207C1247.47 20.9247 1248.06 21.2247 1248.59 21.6207C1248.74 21.7287 1248.83 21.8607 1248.88 22.0167C1248.93 22.1607 1248.93 22.3047 1248.9 22.4487C1248.87 22.5927 1248.81 22.7127 1248.7 22.8087C1248.6 22.9047 1248.48 22.9587 1248.32 22.9707C1248.18 22.9827 1248.02 22.9287 1247.84 22.8087C1247.36 22.4727 1246.86 22.2327 1246.36 22.0887C1245.86 21.9327 1245.3 21.8547 1244.7 21.8547C1244.09 21.8547 1243.56 21.9507 1243.1 22.1427C1242.66 22.3347 1242.31 22.6047 1242.06 22.9527C1241.82 23.2887 1241.7 23.6847 1241.7 24.1407C1241.7 24.6927 1241.87 25.1247 1242.2 25.4367C1242.54 25.7487 1243.1 25.9887 1243.89 26.1567L1245.78 26.5347C1246.98 26.7867 1247.87 27.1767 1248.45 27.7047C1249.04 28.2207 1249.33 28.9167 1249.33 29.7927C1249.33 30.3447 1249.22 30.8427 1248.99 31.2867C1248.77 31.7307 1248.46 32.1147 1248.05 32.4387C1247.64 32.7507 1247.15 32.9967 1246.56 33.1767C1245.97 33.3447 1245.31 33.4287 1244.58 33.4287ZM1254.27 33.4287C1253.56 33.4287 1252.96 33.2967 1252.48 33.0327C1252.02 32.7687 1251.67 32.3787 1251.44 31.8627C1251.21 31.3467 1251.1 30.6987 1251.1 29.9187V25.2027C1251.1 24.9267 1251.16 24.7227 1251.3 24.5907C1251.44 24.4467 1251.64 24.3747 1251.91 24.3747C1252.17 24.3747 1252.38 24.4467 1252.52 24.5907C1252.66 24.7227 1252.74 24.9267 1252.74 25.2027V29.9187C1252.74 30.6627 1252.89 31.2147 1253.19 31.5747C1253.49 31.9227 1253.96 32.0967 1254.61 32.0967C1255.33 32.0967 1255.91 31.8567 1256.35 31.3767C1256.81 30.8967 1257.04 30.2607 1257.04 29.4687V25.2027C1257.04 24.9267 1257.1 24.7227 1257.24 24.5907C1257.38 24.4467 1257.58 24.3747 1257.85 24.3747C1258.11 24.3747 1258.32 24.4467 1258.46 24.5907C1258.6 24.7227 1258.68 24.9267 1258.68 25.2027V32.5467C1258.68 33.1107 1258.41 33.3927 1257.88 33.3927C1257.62 33.3927 1257.42 33.3207 1257.27 33.1767C1257.14 33.0327 1257.07 32.8227 1257.07 32.5467V30.9807L1257.31 31.2867C1257.07 31.9827 1256.68 32.5167 1256.14 32.8887C1255.61 33.2487 1254.99 33.4287 1254.27 33.4287ZM1261.92 36.6327C1261.67 36.6327 1261.47 36.5607 1261.33 36.4167C1261.19 36.2727 1261.11 36.0687 1261.11 35.8047V25.2027C1261.11 24.9267 1261.19 24.7227 1261.33 24.5907C1261.47 24.4467 1261.67 24.3747 1261.92 24.3747C1262.19 24.3747 1262.39 24.4467 1262.52 24.5907C1262.66 24.7227 1262.73 24.9267 1262.73 25.2027V26.8407L1262.54 26.5167C1262.73 25.8567 1263.11 25.3287 1263.67 24.9327C1264.23 24.5367 1264.91 24.3387 1265.7 24.3387C1266.48 24.3387 1267.16 24.5247 1267.74 24.8967C1268.31 25.2567 1268.76 25.7787 1269.09 26.4627C1269.41 27.1347 1269.57 27.9387 1269.57 28.8747C1269.57 29.7987 1269.41 30.6087 1269.09 31.3047C1268.78 31.9887 1268.33 32.5167 1267.74 32.8887C1267.16 33.2487 1266.48 33.4287 1265.7 33.4287C1264.92 33.4287 1264.25 33.2307 1263.69 32.8347C1263.12 32.4387 1262.75 31.9167 1262.55 31.2687H1262.75V35.8047C1262.75 36.0687 1262.68 36.2727 1262.54 36.4167C1262.39 36.5607 1262.19 36.6327 1261.92 36.6327ZM1265.33 32.1327C1265.84 32.1327 1266.29 32.0067 1266.68 31.7547C1267.07 31.5027 1267.38 31.1367 1267.59 30.6567C1267.81 30.1767 1267.92 29.5827 1267.92 28.8747C1267.92 27.8187 1267.68 27.0147 1267.22 26.4627C1266.75 25.9107 1266.12 25.6347 1265.33 25.6347C1264.8 25.6347 1264.34 25.7607 1263.94 26.0127C1263.56 26.2527 1263.26 26.6127 1263.04 27.0927C1262.84 27.5727 1262.73 28.1667 1262.73 28.8747C1262.73 29.9307 1262.97 30.7407 1263.44 31.3047C1263.9 31.8567 1264.53 32.1327 1265.33 32.1327ZM1272.29 36.6327C1272.04 36.6327 1271.84 36.5607 1271.7 36.4167C1271.55 36.2727 1271.48 36.0687 1271.48 35.8047V25.2027C1271.48 24.9267 1271.55 24.7227 1271.7 24.5907C1271.84 24.4467 1272.04 24.3747 1272.29 24.3747C1272.55 24.3747 1272.75 24.4467 1272.88 24.5907C1273.03 24.7227 1273.1 24.9267 1273.1 25.2027V26.8407L1272.9 26.5167C1273.09 25.8567 1273.47 25.3287 1274.04 24.9327C1274.6 24.5367 1275.28 24.3387 1276.07 24.3387C1276.85 24.3387 1277.53 24.5247 1278.1 24.8967C1278.68 25.2567 1279.13 25.7787 1279.45 26.4627C1279.78 27.1347 1279.94 27.9387 1279.94 28.8747C1279.94 29.7987 1279.78 30.6087 1279.45 31.3047C1279.14 31.9887 1278.69 32.5167 1278.1 32.8887C1277.53 33.2487 1276.85 33.4287 1276.07 33.4287C1275.29 33.4287 1274.62 33.2307 1274.05 32.8347C1273.49 32.4387 1273.11 31.9167 1272.92 31.2687H1273.12V35.8047C1273.12 36.0687 1273.05 36.2727 1272.9 36.4167C1272.76 36.5607 1272.55 36.6327 1272.29 36.6327ZM1275.69 32.1327C1276.21 32.1327 1276.66 32.0067 1277.04 31.7547C1277.44 31.5027 1277.74 31.1367 1277.96 30.6567C1278.18 30.1767 1278.28 29.5827 1278.28 28.8747C1278.28 27.8187 1278.05 27.0147 1277.58 26.4627C1277.11 25.9107 1276.48 25.6347 1275.69 25.6347C1275.16 25.6347 1274.7 25.7607 1274.31 26.0127C1273.92 26.2527 1273.62 26.6127 1273.41 27.0927C1273.2 27.5727 1273.1 28.1667 1273.1 28.8747C1273.1 29.9307 1273.33 30.7407 1273.8 31.3047C1274.27 31.8567 1274.9 32.1327 1275.69 32.1327ZM1285.57 33.4287C1284.71 33.4287 1283.96 33.2427 1283.32 32.8707C1282.69 32.4987 1282.19 31.9707 1281.85 31.2867C1281.5 30.6027 1281.32 29.7987 1281.32 28.8747C1281.32 28.1787 1281.42 27.5547 1281.61 27.0027C1281.82 26.4387 1282.1 25.9587 1282.48 25.5627C1282.85 25.1667 1283.29 24.8667 1283.81 24.6627C1284.34 24.4467 1284.92 24.3387 1285.57 24.3387C1286.44 24.3387 1287.19 24.5247 1287.82 24.8967C1288.46 25.2687 1288.95 25.7967 1289.3 26.4807C1289.65 27.1527 1289.82 27.9507 1289.82 28.8747C1289.82 29.5707 1289.72 30.2007 1289.51 30.7647C1289.32 31.3287 1289.04 31.8087 1288.67 32.2047C1288.3 32.6007 1287.85 32.9067 1287.32 33.1227C1286.8 33.3267 1286.22 33.4287 1285.57 33.4287ZM1285.57 32.1327C1286.1 32.1327 1286.56 32.0067 1286.94 31.7547C1287.34 31.5027 1287.64 31.1367 1287.84 30.6567C1288.06 30.1767 1288.16 29.5827 1288.16 28.8747C1288.16 27.8187 1287.93 27.0147 1287.46 26.4627C1286.99 25.9107 1286.36 25.6347 1285.57 25.6347C1285.06 25.6347 1284.6 25.7607 1284.2 26.0127C1283.82 26.2527 1283.52 26.6127 1283.3 27.0927C1283.09 27.5727 1282.98 28.1667 1282.98 28.8747C1282.98 29.9307 1283.21 30.7407 1283.68 31.3047C1284.16 31.8567 1284.79 32.1327 1285.57 32.1327ZM1292.57 33.3927C1292.29 33.3927 1292.08 33.3207 1291.94 33.1767C1291.79 33.0327 1291.72 32.8227 1291.72 32.5467V25.2027C1291.72 24.9267 1291.79 24.7227 1291.94 24.5907C1292.08 24.4467 1292.28 24.3747 1292.53 24.3747C1292.78 24.3747 1292.97 24.4467 1293.11 24.5907C1293.25 24.7227 1293.32 24.9267 1293.32 25.2027V26.5887H1293.14C1293.33 25.8687 1293.69 25.3227 1294.22 24.9507C1294.75 24.5787 1295.42 24.3687 1296.22 24.3207C1296.41 24.3087 1296.57 24.3567 1296.69 24.4647C1296.81 24.5607 1296.87 24.7287 1296.89 24.9687C1296.9 25.1967 1296.84 25.3827 1296.72 25.5267C1296.6 25.6587 1296.42 25.7367 1296.17 25.7607L1295.84 25.7787C1295.05 25.8627 1294.44 26.1207 1294.01 26.5527C1293.59 26.9847 1293.38 27.5787 1293.38 28.3347V32.5467C1293.38 32.8227 1293.3 33.0327 1293.16 33.1767C1293.03 33.3207 1292.83 33.3927 1292.57 33.3927ZM1302.22 33.4287C1301.52 33.4287 1300.92 33.3027 1300.44 33.0507C1299.97 32.7987 1299.62 32.4327 1299.38 31.9527C1299.15 31.4727 1299.04 30.8847 1299.04 30.1887V25.7607H1297.89C1297.67 25.7607 1297.5 25.7067 1297.38 25.5987C1297.26 25.4787 1297.2 25.3227 1297.2 25.1307C1297.2 24.9267 1297.26 24.7707 1297.38 24.6627C1297.5 24.5547 1297.67 24.5007 1297.89 24.5007H1299.04V22.5387C1299.04 22.2627 1299.11 22.0587 1299.25 21.9267C1299.4 21.7827 1299.6 21.7107 1299.87 21.7107C1300.13 21.7107 1300.33 21.7827 1300.46 21.9267C1300.6 22.0587 1300.68 22.2627 1300.68 22.5387V24.5007H1302.85C1303.08 24.5007 1303.26 24.5547 1303.38 24.6627C1303.5 24.7707 1303.56 24.9267 1303.56 25.1307C1303.56 25.3227 1303.5 25.4787 1303.38 25.5987C1303.26 25.7067 1303.08 25.7607 1302.85 25.7607H1300.68V30.0447C1300.68 30.7047 1300.81 31.2027 1301.09 31.5387C1301.37 31.8747 1301.82 32.0427 1302.46 32.0427C1302.69 32.0427 1302.88 32.0247 1303.03 31.9887C1303.19 31.9407 1303.33 31.9167 1303.45 31.9167C1303.56 31.9047 1303.65 31.9407 1303.72 32.0247C1303.8 32.1087 1303.84 32.2647 1303.84 32.4927C1303.84 32.6607 1303.81 32.8167 1303.75 32.9607C1303.71 33.0927 1303.6 33.1827 1303.45 33.2307C1303.3 33.2787 1303.11 33.3207 1302.87 33.3567C1302.63 33.4047 1302.42 33.4287 1302.22 33.4287Z" fill="black"/>
<rect x="1140.49" y="4.76672" width="58.246" height="56.7333" rx="19.5" fill="#FDD8C1" stroke="#6B2F00" stroke-width="3"/>
<rect x="1150.09" y="1.5" width="48.6477" height="49.7333" rx="19.5" fill="#F9EFE3" stroke="#6B2F00" stroke-width="3"/>
<g clip-path="url(#clip0_133_1297)">
<path d="M1180.36 21.7144C1180.03 21.3766 1179.64 21.1086 1179.21 20.9257C1178.78 20.7429 1178.31 20.6488 1177.85 20.6488C1177.38 20.6488 1176.91 20.7429 1176.48 20.9257C1176.05 21.1086 1175.66 21.3766 1175.33 21.7144L1174.64 22.4152L1173.95 21.7144C1173.29 21.0323 1172.38 20.6492 1171.44 20.6492C1170.49 20.6492 1169.58 21.0323 1168.92 21.7144C1168.25 22.3965 1167.87 23.3215 1167.87 24.2861C1167.87 25.2507 1168.25 26.1758 1168.92 26.8578L1174.64 32.7021L1180.36 26.8578C1180.7 26.5202 1180.96 26.1193 1181.14 25.678C1181.32 25.2367 1181.41 24.7638 1181.41 24.2861C1181.41 23.8085 1181.32 23.3355 1181.14 22.8942C1180.96 22.453 1180.7 22.0521 1180.36 21.7144Z" stroke="#1E1E1E" stroke-width="1.6" stroke-linecap="round" stroke-linejoin="round"/>
</g>
<rect x="884.537" y="3.83337" width="161.541" height="57.6667" rx="19.5" fill="#FDD8C1" stroke="#6B2F00" stroke-width="3"/>
<rect x="894.135" y="1.5" width="151.943" height="49.7333" rx="19.5" fill="#F9EFE3" stroke="#6B2F00" stroke-width="3"/>
<path d="M908.598 33.4287C908.034 33.4287 907.488 33.3807 906.96 33.2847C906.432 33.2007 905.934 33.0687 905.466 32.8887C904.998 32.7087 904.578 32.4867 904.206 32.2227C904.05 32.1147 903.936 31.9827 903.864 31.8267C903.804 31.6707 903.786 31.5207 903.81 31.3767C903.846 31.2207 903.912 31.0887 904.008 30.9807C904.116 30.8727 904.242 30.8067 904.386 30.7827C904.53 30.7587 904.686 30.8067 904.854 30.9267C905.406 31.2987 905.982 31.5687 906.582 31.7367C907.194 31.9047 907.866 31.9887 908.598 31.9887C909.654 31.9887 910.428 31.7967 910.92 31.4127C911.424 31.0287 911.676 30.5247 911.676 29.9007C911.676 29.3847 911.496 28.9827 911.136 28.6947C910.776 28.3947 910.17 28.1607 909.318 27.9927L907.41 27.5967C906.282 27.3567 905.436 26.9607 904.872 26.4087C904.32 25.8567 904.044 25.1187 904.044 24.1947C904.044 23.6307 904.158 23.1207 904.386 22.6647C904.614 22.1967 904.938 21.7947 905.358 21.4587C905.778 21.1227 906.27 20.8647 906.834 20.6847C907.41 20.5047 908.046 20.4147 908.742 20.4147C909.486 20.4147 910.182 20.5167 910.83 20.7207C911.49 20.9247 912.084 21.2247 912.612 21.6207C912.756 21.7287 912.852 21.8607 912.9 22.0167C912.948 22.1607 912.954 22.3047 912.918 22.4487C912.894 22.5927 912.828 22.7127 912.72 22.8087C912.624 22.9047 912.498 22.9587 912.342 22.9707C912.198 22.9827 912.036 22.9287 911.856 22.8087C911.376 22.4727 910.884 22.2327 910.38 22.0887C909.876 21.9327 909.324 21.8547 908.724 21.8547C908.112 21.8547 907.578 21.9507 907.122 22.1427C906.678 22.3347 906.33 22.6047 906.078 22.9527C905.838 23.2887 905.718 23.6847 905.718 24.1407C905.718 24.6927 905.886 25.1247 906.222 25.4367C906.558 25.7487 907.122 25.9887 907.914 26.1567L909.804 26.5347C911.004 26.7867 911.892 27.1767 912.468 27.7047C913.056 28.2207 913.35 28.9167 913.35 29.7927C913.35 30.3447 913.236 30.8427 913.008 31.2867C912.792 31.7307 912.48 32.1147 912.072 32.4387C911.664 32.7507 911.166 32.9967 910.578 33.1767C909.99 33.3447 909.33 33.4287 908.598 33.4287ZM915.963 33.3567C915.711 33.3567 915.513 33.2787 915.369 33.1227C915.225 32.9667 915.153 32.7507 915.153 32.4747V25.2927C915.153 25.0047 915.225 24.7887 915.369 24.6447C915.513 24.4887 915.711 24.4107 915.963 24.4107C916.227 24.4107 916.431 24.4887 916.575 24.6447C916.719 24.7887 916.791 25.0047 916.791 25.2927V32.4747C916.791 32.7507 916.719 32.9667 916.575 33.1227C916.443 33.2787 916.239 33.3567 915.963 33.3567ZM915.963 22.4667C915.639 22.4667 915.381 22.3827 915.189 22.2147C915.009 22.0347 914.919 21.8007 914.919 21.5127C914.919 21.2007 915.009 20.9667 915.189 20.8107C915.381 20.6427 915.639 20.5587 915.963 20.5587C916.311 20.5587 916.569 20.6427 916.737 20.8107C916.917 20.9667 917.007 21.2007 917.007 21.5127C917.007 21.8007 916.917 22.0347 916.737 22.2147C916.569 22.3827 916.311 22.4667 915.963 22.4667ZM923.168 36.6687C922.52 36.6687 921.89 36.5967 921.278 36.4527C920.678 36.3087 920.132 36.0867 919.64 35.7867C919.484 35.6907 919.376 35.5767 919.316 35.4447C919.268 35.3247 919.256 35.1987 919.28 35.0667C919.316 34.9347 919.376 34.8147 919.46 34.7067C919.556 34.6107 919.664 34.5447 919.784 34.5087C919.916 34.4847 920.048 34.5147 920.18 34.5987C920.708 34.8987 921.212 35.1027 921.692 35.2107C922.172 35.3187 922.628 35.3727 923.06 35.3727C923.912 35.3727 924.548 35.1507 924.968 34.7067C925.4 34.2747 925.616 33.6387 925.616 32.7987V30.8547H925.778C925.61 31.5267 925.232 32.0607 924.644 32.4567C924.068 32.8527 923.396 33.0507 922.628 33.0507C921.836 33.0507 921.146 32.8707 920.558 32.5107C919.97 32.1387 919.514 31.6287 919.19 30.9807C918.866 30.3207 918.704 29.5587 918.704 28.6947C918.704 28.0347 918.794 27.4407 918.974 26.9127C919.166 26.3727 919.43 25.9167 919.766 25.5447C920.114 25.1607 920.528 24.8667 921.008 24.6627C921.488 24.4467 922.028 24.3387 922.628 24.3387C923.408 24.3387 924.086 24.5367 924.662 24.9327C925.238 25.3287 925.61 25.8627 925.778 26.5347L925.58 26.7867V25.2027C925.58 24.9267 925.652 24.7227 925.796 24.5907C925.94 24.4467 926.144 24.3747 926.408 24.3747C926.66 24.3747 926.858 24.4467 927.002 24.5907C927.146 24.7227 927.218 24.9267 927.218 25.2027V32.5827C927.218 33.9387 926.87 34.9587 926.174 35.6427C925.49 36.3267 924.488 36.6687 923.168 36.6687ZM922.988 31.7547C923.528 31.7547 923.99 31.6347 924.374 31.3947C924.77 31.1427 925.07 30.7887 925.274 30.3327C925.49 29.8647 925.598 29.3187 925.598 28.6947C925.598 27.7467 925.364 27.0027 924.896 26.4627C924.428 25.9107 923.792 25.6347 922.988 25.6347C922.448 25.6347 921.98 25.7607 921.584 26.0127C921.2 26.2527 920.9 26.6007 920.684 27.0567C920.468 27.5127 920.36 28.0587 920.36 28.6947C920.36 29.6307 920.594 30.3747 921.062 30.9267C921.542 31.4787 922.184 31.7547 922.988 31.7547ZM930.456 33.3927C930.204 33.3927 930.006 33.3207 929.862 33.1767C929.718 33.0327 929.646 32.8227 929.646 32.5467V25.2027C929.646 24.9267 929.718 24.7227 929.862 24.5907C930.006 24.4467 930.204 24.3747 930.456 24.3747C930.708 24.3747 930.9 24.4467 931.032 24.5907C931.176 24.7227 931.248 24.9267 931.248 25.2027V26.6787L931.05 26.4087C931.302 25.7247 931.71 25.2087 932.274 24.8607C932.85 24.5127 933.504 24.3387 934.236 24.3387C934.944 24.3387 935.526 24.4647 935.982 24.7167C936.438 24.9687 936.78 25.3527 937.008 25.8687C937.236 26.3847 937.35 27.0387 937.35 27.8307V32.5467C937.35 32.8227 937.278 33.0327 937.134 33.1767C937.002 33.3207 936.804 33.3927 936.54 33.3927C936.276 33.3927 936.072 33.3207 935.928 33.1767C935.784 33.0327 935.712 32.8227 935.712 32.5467V27.9207C935.712 27.1407 935.562 26.5707 935.262 26.2107C934.962 25.8507 934.482 25.6707 933.822 25.6707C933.054 25.6707 932.436 25.9107 931.968 26.3907C931.512 26.8587 931.284 27.4947 931.284 28.2987V32.5467C931.284 33.1107 931.008 33.3927 930.456 33.3927ZM945.054 33.3567C944.802 33.3567 944.604 33.2787 944.46 33.1227C944.316 32.9667 944.244 32.7507 944.244 32.4747V25.2927C944.244 25.0047 944.316 24.7887 944.46 24.6447C944.604 24.4887 944.802 24.4107 945.054 24.4107C945.318 24.4107 945.522 24.4887 945.666 24.6447C945.81 24.7887 945.882 25.0047 945.882 25.2927V32.4747C945.882 32.7507 945.81 32.9667 945.666 33.1227C945.534 33.2787 945.33 33.3567 945.054 33.3567ZM945.054 22.4667C944.73 22.4667 944.472 22.3827 944.28 22.2147C944.1 22.0347 944.01 21.8007 944.01 21.5127C944.01 21.2007 944.1 20.9667 944.28 20.8107C944.472 20.6427 944.73 20.5587 945.054 20.5587C945.402 20.5587 945.66 20.6427 945.828 20.8107C946.008 20.9667 946.098 21.2007 946.098 21.5127C946.098 21.8007 946.008 22.0347 945.828 22.2147C945.66 22.3827 945.402 22.4667 945.054 22.4667ZM949.127 33.3927C948.875 33.3927 948.677 33.3207 948.533 33.1767C948.389 33.0327 948.317 32.8227 948.317 32.5467V25.2027C948.317 24.9267 948.389 24.7227 948.533 24.5907C948.677 24.4467 948.875 24.3747 949.127 24.3747C949.379 24.3747 949.571 24.4467 949.703 24.5907C949.847 24.7227 949.919 24.9267 949.919 25.2027V26.6787L949.721 26.4087C949.973 25.7247 950.381 25.2087 950.945 24.8607C951.521 24.5127 952.175 24.3387 952.907 24.3387C953.615 24.3387 954.197 24.4647 954.653 24.7167C955.109 24.9687 955.451 25.3527 955.679 25.8687C955.907 26.3847 956.021 27.0387 956.021 27.8307V32.5467C956.021 32.8227 955.949 33.0327 955.805 33.1767C955.673 33.3207 955.475 33.3927 955.211 33.3927C954.947 33.3927 954.743 33.3207 954.599 33.1767C954.455 33.0327 954.383 32.8227 954.383 32.5467V27.9207C954.383 27.1407 954.233 26.5707 953.933 26.2107C953.633 25.8507 953.153 25.6707 952.493 25.6707C951.725 25.6707 951.107 25.9107 950.639 26.3907C950.183 26.8587 949.955 27.4947 949.955 28.2987V32.5467C949.955 33.1107 949.679 33.3927 949.127 33.3927ZM962.717 33.8607C962.657 34.0407 962.567 34.1667 962.447 34.2387C962.339 34.3107 962.213 34.3467 962.069 34.3467C961.925 34.3467 961.793 34.3107 961.673 34.2387C961.565 34.1787 961.487 34.0827 961.439 33.9507C961.391 33.8187 961.391 33.6567 961.439 33.4647L965.687 20.2707C965.747 20.1027 965.837 19.9827 965.957 19.9107C966.077 19.8267 966.203 19.7847 966.335 19.7847C966.479 19.7847 966.611 19.8207 966.731 19.8927C966.851 19.9647 966.935 20.0667 966.983 20.1987C967.031 20.3187 967.031 20.4747 966.983 20.6667L962.717 33.8607ZM973.477 33.3927C973.213 33.3927 973.009 33.3207 972.865 33.1767C972.721 33.0207 972.649 32.8047 972.649 32.5287V21.4227C972.649 21.1467 972.721 20.9367 972.865 20.7927C973.021 20.6487 973.231 20.5767 973.495 20.5767H977.779C979.147 20.5767 980.197 20.9007 980.929 21.5487C981.673 22.1847 982.045 23.0907 982.045 24.2667C982.045 25.0347 981.877 25.6947 981.541 26.2467C981.205 26.7867 980.719 27.2007 980.083 27.4887C979.447 27.7767 978.679 27.9207 977.779 27.9207L977.959 27.6687H978.355C978.835 27.6687 979.249 27.7887 979.597 28.0287C979.957 28.2687 980.275 28.6527 980.551 29.1807L982.207 32.2227C982.315 32.4147 982.363 32.6007 982.351 32.7807C982.339 32.9607 982.273 33.1107 982.153 33.2307C982.033 33.3387 981.859 33.3927 981.631 33.3927C981.391 33.3927 981.199 33.3447 981.055 33.2487C980.911 33.1407 980.785 32.9847 980.677 32.7807L978.733 29.2167C978.469 28.7127 978.169 28.3827 977.833 28.2267C977.497 28.0587 977.047 27.9747 976.483 27.9747H974.323V32.5287C974.323 32.8047 974.251 33.0207 974.107 33.1767C973.975 33.3207 973.765 33.3927 973.477 33.3927ZM974.323 26.6787H977.509C978.469 26.6787 979.189 26.4807 979.669 26.0847C980.149 25.6767 980.389 25.0827 980.389 24.3027C980.389 23.5227 980.149 22.9347 979.669 22.5387C979.189 22.1427 978.469 21.9447 977.509 21.9447H974.323V26.6787ZM988.186 33.4287C987.238 33.4287 986.422 33.2487 985.738 32.8887C985.066 32.5167 984.544 31.9947 984.172 31.3227C983.8 30.6387 983.614 29.8347 983.614 28.9107C983.614 27.9987 983.794 27.2007 984.154 26.5167C984.526 25.8327 985.03 25.2987 985.666 24.9147C986.314 24.5307 987.052 24.3387 987.88 24.3387C988.468 24.3387 988.996 24.4407 989.464 24.6447C989.944 24.8367 990.352 25.1187 990.688 25.4907C991.024 25.8627 991.276 26.3187 991.444 26.8587C991.624 27.3867 991.714 27.9867 991.714 28.6587C991.714 28.8507 991.654 29.0007 991.534 29.1087C991.426 29.2047 991.264 29.2527 991.048 29.2527H984.892V28.2087H990.634L990.328 28.4607C990.328 27.8367 990.232 27.3087 990.04 26.8767C989.86 26.4327 989.59 26.0967 989.23 25.8687C988.882 25.6407 988.444 25.5267 987.916 25.5267C987.34 25.5267 986.848 25.6647 986.44 25.9407C986.032 26.2047 985.72 26.5827 985.504 27.0747C985.288 27.5547 985.18 28.1127 985.18 28.7487V28.8567C985.18 29.9367 985.438 30.7527 985.954 31.3047C986.47 31.8567 987.214 32.1327 988.186 32.1327C988.57 32.1327 988.96 32.0847 989.356 31.9887C989.764 31.8927 990.154 31.7187 990.526 31.4667C990.706 31.3587 990.868 31.3107 991.012 31.3227C991.168 31.3227 991.294 31.3707 991.39 31.4667C991.486 31.5507 991.546 31.6587 991.57 31.7907C991.594 31.9107 991.576 32.0427 991.516 32.1867C991.456 32.3307 991.342 32.4567 991.174 32.5647C990.778 32.8407 990.304 33.0567 989.752 33.2127C989.212 33.3567 988.69 33.4287 988.186 33.4287ZM997.495 36.6687C996.847 36.6687 996.217 36.5967 995.605 36.4527C995.005 36.3087 994.459 36.0867 993.967 35.7867C993.811 35.6907 993.703 35.5767 993.643 35.4447C993.595 35.3247 993.583 35.1987 993.607 35.0667C993.643 34.9347 993.703 34.8147 993.787 34.7067C993.883 34.6107 993.991 34.5447 994.111 34.5087C994.243 34.4847 994.375 34.5147 994.507 34.5987C995.035 34.8987 995.539 35.1027 996.019 35.2107C996.499 35.3187 996.955 35.3727 997.387 35.3727C998.239 35.3727 998.875 35.1507 999.295 34.7067C999.727 34.2747 999.943 33.6387 999.943 32.7987V30.8547H1000.11C999.937 31.5267 999.559 32.0607 998.971 32.4567C998.395 32.8527 997.723 33.0507 996.955 33.0507C996.163 33.0507 995.473 32.8707 994.885 32.5107C994.297 32.1387 993.841 31.6287 993.517 30.9807C993.193 30.3207 993.031 29.5587 993.031 28.6947C993.031 28.0347 993.121 27.4407 993.301 26.9127C993.493 26.3727 993.757 25.9167 994.093 25.5447C994.441 25.1607 994.855 24.8667 995.335 24.6627C995.815 24.4467 996.355 24.3387 996.955 24.3387C997.735 24.3387 998.413 24.5367 998.989 24.9327C999.565 25.3287 999.937 25.8627 1000.11 26.5347L999.907 26.7867V25.2027C999.907 24.9267 999.979 24.7227 1000.12 24.5907C1000.27 24.4467 1000.47 24.3747 1000.74 24.3747C1000.99 24.3747 1001.19 24.4467 1001.33 24.5907C1001.47 24.7227 1001.55 24.9267 1001.55 25.2027V32.5827C1001.55 33.9387 1001.2 34.9587 1000.5 35.6427C999.817 36.3267 998.815 36.6687 997.495 36.6687ZM997.315 31.7547C997.855 31.7547 998.317 31.6347 998.701 31.3947C999.097 31.1427 999.397 30.7887 999.601 30.3327C999.817 29.8647 999.925 29.3187 999.925 28.6947C999.925 27.7467 999.691 27.0027 999.223 26.4627C998.755 25.9107 998.119 25.6347 997.315 25.6347C996.775 25.6347 996.307 25.7607 995.911 26.0127C995.527 26.2527 995.227 26.6007 995.011 27.0567C994.795 27.5127 994.687 28.0587 994.687 28.6947C994.687 29.6307 994.921 30.3747 995.389 30.9267C995.869 31.4787 996.511 31.7547 997.315 31.7547ZM1004.78 33.3567C1004.53 33.3567 1004.33 33.2787 1004.19 33.1227C1004.04 32.9667 1003.97 32.7507 1003.97 32.4747V25.2927C1003.97 25.0047 1004.04 24.7887 1004.19 24.6447C1004.33 24.4887 1004.53 24.4107 1004.78 24.4107C1005.05 24.4107 1005.25 24.4887 1005.39 24.6447C1005.54 24.7887 1005.61 25.0047 1005.61 25.2927V32.4747C1005.61 32.7507 1005.54 32.9667 1005.39 33.1227C1005.26 33.2787 1005.06 33.3567 1004.78 33.3567ZM1004.78 22.4667C1004.46 22.4667 1004.2 22.3827 1004.01 22.2147C1003.83 22.0347 1003.74 21.8007 1003.74 21.5127C1003.74 21.2007 1003.83 20.9667 1004.01 20.8107C1004.2 20.6427 1004.46 20.5587 1004.78 20.5587C1005.13 20.5587 1005.39 20.6427 1005.56 20.8107C1005.74 20.9667 1005.83 21.2007 1005.83 21.5127C1005.83 21.8007 1005.74 22.0347 1005.56 22.2147C1005.39 22.3827 1005.13 22.4667 1004.78 22.4667ZM1011.07 33.4287C1010.53 33.4287 1009.98 33.3687 1009.43 33.2487C1008.89 33.1167 1008.38 32.8947 1007.9 32.5827C1007.77 32.4987 1007.67 32.3967 1007.61 32.2767C1007.57 32.1447 1007.55 32.0187 1007.56 31.8987C1007.58 31.7667 1007.64 31.6527 1007.72 31.5567C1007.81 31.4607 1007.91 31.4067 1008.03 31.3947C1008.16 31.3707 1008.3 31.4007 1008.44 31.4847C1008.91 31.7487 1009.36 31.9347 1009.79 32.0427C1010.24 32.1507 1010.67 32.2047 1011.11 32.2047C1011.77 32.2047 1012.26 32.0847 1012.6 31.8447C1012.94 31.6047 1013.1 31.2867 1013.1 30.8907C1013.1 30.5547 1012.99 30.2967 1012.76 30.1167C1012.55 29.9247 1012.2 29.7807 1011.74 29.6847L1010.06 29.3427C1009.32 29.1747 1008.75 28.8987 1008.37 28.5147C1008 28.1187 1007.81 27.6147 1007.81 27.0027C1007.81 26.4627 1007.96 25.9947 1008.24 25.5987C1008.54 25.1907 1008.96 24.8787 1009.49 24.6627C1010.01 24.4467 1010.62 24.3387 1011.3 24.3387C1011.83 24.3387 1012.33 24.4107 1012.8 24.5547C1013.28 24.6867 1013.71 24.8907 1014.09 25.1667C1014.24 25.2507 1014.33 25.3587 1014.36 25.4907C1014.41 25.6107 1014.42 25.7367 1014.38 25.8687C1014.36 25.9887 1014.3 26.0907 1014.22 26.1747C1014.14 26.2587 1014.03 26.3127 1013.9 26.3367C1013.76 26.3487 1013.62 26.3127 1013.46 26.2287C1013.12 25.9887 1012.76 25.8207 1012.38 25.7247C1012.02 25.6167 1011.66 25.5627 1011.3 25.5627C1010.66 25.5627 1010.16 25.6887 1009.83 25.9407C1009.5 26.1927 1009.34 26.5227 1009.34 26.9307C1009.34 27.2427 1009.44 27.5007 1009.63 27.7047C1009.83 27.9087 1010.15 28.0587 1010.58 28.1547L1012.26 28.4967C1013.04 28.6647 1013.63 28.9347 1014.02 29.3067C1014.42 29.6667 1014.62 30.1587 1014.62 30.7827C1014.62 31.5987 1014.29 32.2467 1013.64 32.7267C1013.01 33.1947 1012.15 33.4287 1011.07 33.4287ZM1020.1 33.4287C1019.39 33.4287 1018.79 33.3027 1018.31 33.0507C1017.85 32.7987 1017.49 32.4327 1017.25 31.9527C1017.02 31.4727 1016.91 30.8847 1016.91 30.1887V25.7607H1015.76C1015.54 25.7607 1015.37 25.7067 1015.25 25.5987C1015.13 25.4787 1015.07 25.3227 1015.07 25.1307C1015.07 24.9267 1015.13 24.7707 1015.25 24.6627C1015.37 24.5547 1015.54 24.5007 1015.76 24.5007H1016.91V22.5387C1016.91 22.2627 1016.98 22.0587 1017.13 21.9267C1017.27 21.7827 1017.47 21.7107 1017.74 21.7107C1018 21.7107 1018.2 21.7827 1018.33 21.9267C1018.48 22.0587 1018.55 22.2627 1018.55 22.5387V24.5007H1020.73C1020.95 24.5007 1021.13 24.5547 1021.25 24.6627C1021.37 24.7707 1021.43 24.9267 1021.43 25.1307C1021.43 25.3227 1021.37 25.4787 1021.25 25.5987C1021.13 25.7067 1020.95 25.7607 1020.73 25.7607H1018.55V30.0447C1018.55 30.7047 1018.69 31.2027 1018.96 31.5387C1019.24 31.8747 1019.69 32.0427 1020.33 32.0427C1020.56 32.0427 1020.75 32.0247 1020.91 31.9887C1021.06 31.9407 1021.2 31.9167 1021.32 31.9167C1021.43 31.9047 1021.52 31.9407 1021.59 32.0247C1021.67 32.1087 1021.72 32.2647 1021.72 32.4927C1021.72 32.6607 1021.69 32.8167 1021.63 32.9607C1021.58 33.0927 1021.48 33.1827 1021.32 33.2307C1021.18 33.2787 1020.98 33.3207 1020.74 33.3567C1020.5 33.4047 1020.29 33.4287 1020.1 33.4287ZM1026.68 33.4287C1025.73 33.4287 1024.91 33.2487 1024.23 32.8887C1023.56 32.5167 1023.03 31.9947 1022.66 31.3227C1022.29 30.6387 1022.1 29.8347 1022.1 28.9107C1022.1 27.9987 1022.28 27.2007 1022.64 26.5167C1023.02 25.8327 1023.52 25.2987 1024.16 24.9147C1024.8 24.5307 1025.54 24.3387 1026.37 24.3387C1026.96 24.3387 1027.49 24.4407 1027.95 24.6447C1028.43 24.8367 1028.84 25.1187 1029.18 25.4907C1029.51 25.8627 1029.77 26.3187 1029.93 26.8587C1030.11 27.3867 1030.2 27.9867 1030.2 28.6587C1030.2 28.8507 1030.14 29.0007 1030.02 29.1087C1029.92 29.2047 1029.75 29.2527 1029.54 29.2527H1023.38V28.2087H1029.12L1028.82 28.4607C1028.82 27.8367 1028.72 27.3087 1028.53 26.8767C1028.35 26.4327 1028.08 26.0967 1027.72 25.8687C1027.37 25.6407 1026.93 25.5267 1026.41 25.5267C1025.83 25.5267 1025.34 25.6647 1024.93 25.9407C1024.52 26.2047 1024.21 26.5827 1023.99 27.0747C1023.78 27.5547 1023.67 28.1127 1023.67 28.7487V28.8567C1023.67 29.9367 1023.93 30.7527 1024.44 31.3047C1024.96 31.8567 1025.7 32.1327 1026.68 32.1327C1027.06 32.1327 1027.45 32.0847 1027.85 31.9887C1028.25 31.8927 1028.64 31.7187 1029.02 31.4667C1029.2 31.3587 1029.36 31.3107 1029.5 31.3227C1029.66 31.3227 1029.78 31.3707 1029.88 31.4667C1029.98 31.5507 1030.04 31.6587 1030.06 31.7907C1030.08 31.9107 1030.07 32.0427 1030.01 32.1867C1029.95 32.3307 1029.83 32.4567 1029.66 32.5647C1029.27 32.8407 1028.79 33.0567 1028.24 33.2127C1027.7 33.3567 1027.18 33.4287 1026.68 33.4287ZM1032.89 33.3927C1032.61 33.3927 1032.4 33.3207 1032.26 33.1767C1032.12 33.0327 1032.04 32.8227 1032.04 32.5467V25.2027C1032.04 24.9267 1032.12 24.7227 1032.26 24.5907C1032.4 24.4467 1032.6 24.3747 1032.85 24.3747C1033.11 24.3747 1033.3 24.4467 1033.43 24.5907C1033.57 24.7227 1033.65 24.9267 1033.65 25.2027V26.5887H1033.47C1033.66 25.8687 1034.02 25.3227 1034.55 24.9507C1035.07 24.5787 1035.74 24.3687 1036.54 24.3207C1036.74 24.3087 1036.89 24.3567 1037.01 24.4647C1037.13 24.5607 1037.2 24.7287 1037.21 24.9687C1037.22 25.1967 1037.17 25.3827 1037.05 25.5267C1036.93 25.6587 1036.74 25.7367 1036.49 25.7607L1036.17 25.7787C1035.37 25.8627 1034.76 26.1207 1034.33 26.5527C1033.91 26.9847 1033.7 27.5787 1033.7 28.3347V32.5467C1033.7 32.8227 1033.63 33.0327 1033.48 33.1767C1033.35 33.3207 1033.15 33.3927 1032.89 33.3927Z" fill="black"/>
<rect x="653.266" y="3.83337" width="213.189" height="57.6667" rx="19.5" fill="#FDD8C1" stroke="#6B2F00" stroke-width="3"/>
<rect x="662.864" y="1.5" width="203.59" height="49.7333" rx="19.5" fill="#F9EFE3" stroke="#6B2F00" stroke-width="3"/>
<path d="M849.565 33.0166L845.486 28.8516C845.162 29.116 844.79 29.3254 844.369 29.4796C843.948 29.6339 843.5 29.711 843.026 29.711C841.849 29.711 840.854 29.2951 840.039 28.4632C839.224 27.6313 838.817 26.6148 838.817 25.4138C838.817 24.2128 839.224 23.1963 840.039 22.3644C840.854 21.5325 841.849 21.1166 843.026 21.1166C844.202 21.1166 845.197 21.5325 846.012 22.3644C846.827 23.1963 847.234 24.2128 847.234 25.4138C847.234 25.8986 847.159 26.3559 847.008 26.7856C846.857 27.2153 846.652 27.5955 846.393 27.926L850.472 32.091L849.565 33.0166ZM843.026 28.3888C843.835 28.3888 844.523 28.0996 845.09 27.5211C845.656 26.9426 845.939 26.2402 845.939 25.4138C845.939 24.5874 845.656 23.885 845.09 23.3065C844.523 22.728 843.835 22.4388 843.026 22.4388C842.216 22.4388 841.528 22.728 840.962 23.3065C840.395 23.885 840.112 24.5874 840.112 25.4138C840.112 26.2402 840.395 26.9426 840.962 27.5211C841.528 28.0996 842.216 28.3888 843.026 28.3888Z" fill="#1D1B20"/>
<rect x="507.007" y="4.76672" width="128.176" height="56.7333" rx="19.5" fill="#FDD8C1" stroke="#6B2F00" stroke-width="3"/>
<rect x="516.605" y="1.5" width="118.578" height="49.7333" rx="19.5" fill="#F9EFE3" stroke="#6B2F00" stroke-width="3"/>
<path d="M540.741 33.4287C539.481 33.4287 538.401 33.1647 537.501 32.6367C536.601 32.1087 535.905 31.3587 535.413 30.3867C534.933 29.4027 534.693 28.2447 534.693 26.9127C534.693 25.9167 534.831 25.0227 535.107 24.2307C535.383 23.4267 535.779 22.7427 536.295 22.1787C536.811 21.6027 537.441 21.1647 538.185 20.8647C538.941 20.5647 539.793 20.4147 540.741 20.4147C541.461 20.4147 542.151 20.5167 542.811 20.7207C543.483 20.9247 544.059 21.2127 544.539 21.5847C544.731 21.7167 544.857 21.8667 544.917 22.0347C544.977 22.2027 544.983 22.3647 544.935 22.5207C544.899 22.6647 544.821 22.7907 544.701 22.8987C544.593 22.9947 544.455 23.0487 544.287 23.0607C544.119 23.0607 543.939 22.9947 543.747 22.8627C543.327 22.5387 542.865 22.3047 542.361 22.1607C541.869 22.0047 541.341 21.9267 540.777 21.9267C539.853 21.9267 539.067 22.1247 538.419 22.5207C537.783 22.9047 537.297 23.4687 536.961 24.2127C536.637 24.9447 536.475 25.8447 536.475 26.9127C536.475 27.9687 536.637 28.8747 536.961 29.6307C537.297 30.3747 537.783 30.9447 538.419 31.3407C539.067 31.7247 539.853 31.9167 540.777 31.9167C541.341 31.9167 541.875 31.8387 542.379 31.6827C542.895 31.5267 543.369 31.2867 543.801 30.9627C543.993 30.8307 544.167 30.7707 544.323 30.7827C544.491 30.7947 544.629 30.8487 544.737 30.9447C544.845 31.0287 544.917 31.1487 544.953 31.3047C545.001 31.4487 545.001 31.5987 544.953 31.7547C544.905 31.9107 544.797 32.0487 544.629 32.1687C544.137 32.5887 543.549 32.9067 542.865 33.1227C542.193 33.3267 541.485 33.4287 540.741 33.4287ZM547.703 33.3927C547.451 33.3927 547.253 33.3207 547.109 33.1767C546.965 33.0327 546.893 32.8227 546.893 32.5467V21.2787C546.893 21.0027 546.965 20.7987 547.109 20.6667C547.253 20.5227 547.451 20.4507 547.703 20.4507C547.967 20.4507 548.171 20.5227 548.315 20.6667C548.459 20.7987 548.531 21.0027 548.531 21.2787V26.4087H548.297C548.549 25.7247 548.957 25.2087 549.521 24.8607C550.097 24.5127 550.751 24.3387 551.483 24.3387C552.191 24.3387 552.773 24.4707 553.229 24.7347C553.685 24.9867 554.027 25.3707 554.255 25.8867C554.483 26.4027 554.597 27.0507 554.597 27.8307V32.5467C554.597 32.8227 554.525 33.0327 554.381 33.1767C554.249 33.3207 554.051 33.3927 553.787 33.3927C553.523 33.3927 553.319 33.3207 553.175 33.1767C553.031 33.0327 552.959 32.8227 552.959 32.5467V27.9207C552.959 27.1407 552.809 26.5707 552.509 26.2107C552.209 25.8507 551.729 25.6707 551.069 25.6707C550.301 25.6707 549.683 25.9107 549.215 26.3907C548.759 26.8587 548.531 27.4947 548.531 28.2987V32.5467C548.531 33.1107 548.255 33.3927 547.703 33.3927ZM559.786 33.4287C559.186 33.4287 558.64 33.3087 558.148 33.0687C557.668 32.8287 557.29 32.5047 557.014 32.0967C556.75 31.6887 556.618 31.2327 556.618 30.7287C556.618 30.0807 556.78 29.5707 557.104 29.1987C557.428 28.8267 557.974 28.5627 558.742 28.4067C559.51 28.2387 560.542 28.1547 561.838 28.1547H562.684V29.1987H561.874C560.95 29.1987 560.218 29.2407 559.678 29.3247C559.15 29.4087 558.778 29.5587 558.562 29.7747C558.346 29.9787 558.238 30.2667 558.238 30.6387C558.238 31.1067 558.4 31.4907 558.724 31.7907C559.06 32.0907 559.516 32.2407 560.092 32.2407C560.548 32.2407 560.95 32.1327 561.298 31.9167C561.646 31.6887 561.922 31.3887 562.126 31.0167C562.33 30.6327 562.432 30.1947 562.432 29.7027V27.6327C562.432 26.9247 562.288 26.4147 562 26.1027C561.712 25.7787 561.226 25.6167 560.542 25.6167C560.146 25.6167 559.738 25.6707 559.318 25.7787C558.898 25.8867 558.46 26.0547 558.004 26.2827C557.824 26.3667 557.668 26.3967 557.536 26.3727C557.404 26.3367 557.296 26.2647 557.212 26.1567C557.14 26.0367 557.098 25.9107 557.086 25.7787C557.086 25.6347 557.116 25.4967 557.176 25.3647C557.248 25.2327 557.368 25.1367 557.536 25.0767C558.064 24.8127 558.586 24.6267 559.102 24.5187C559.63 24.3987 560.122 24.3387 560.578 24.3387C561.358 24.3387 562 24.4647 562.504 24.7167C563.008 24.9567 563.386 25.3347 563.638 25.8507C563.89 26.3547 564.016 27.0027 564.016 27.7947V32.5467C564.016 32.8227 563.95 33.0327 563.818 33.1767C563.686 33.3207 563.494 33.3927 563.242 33.3927C563.002 33.3927 562.81 33.3207 562.666 33.1767C562.534 33.0327 562.468 32.8227 562.468 32.5467V31.2687H562.63C562.534 31.7127 562.354 32.0967 562.09 32.4207C561.826 32.7447 561.496 32.9967 561.1 33.1767C560.716 33.3447 560.278 33.4287 559.786 33.4287ZM567.241 33.3927C566.965 33.3927 566.755 33.3207 566.611 33.1767C566.467 33.0327 566.395 32.8227 566.395 32.5467V25.2027C566.395 24.9267 566.467 24.7227 566.611 24.5907C566.755 24.4467 566.953 24.3747 567.205 24.3747C567.457 24.3747 567.649 24.4467 567.781 24.5907C567.925 24.7227 567.997 24.9267 567.997 25.2027V26.5887H567.817C568.009 25.8687 568.369 25.3227 568.897 24.9507C569.425 24.5787 570.091 24.3687 570.895 24.3207C571.087 24.3087 571.243 24.3567 571.363 24.4647C571.483 24.5607 571.549 24.7287 571.561 24.9687C571.573 25.1967 571.519 25.3827 571.399 25.5267C571.279 25.6587 571.093 25.7367 570.841 25.7607L570.517 25.7787C569.725 25.8627 569.113 26.1207 568.681 26.5527C568.261 26.9847 568.051 27.5787 568.051 28.3347V32.5467C568.051 32.8227 567.979 33.0327 567.835 33.1767C567.703 33.3207 567.505 33.3927 567.241 33.3927ZM575.474 33.4287C574.874 33.4287 574.328 33.3087 573.836 33.0687C573.356 32.8287 572.978 32.5047 572.702 32.0967C572.438 31.6887 572.306 31.2327 572.306 30.7287C572.306 30.0807 572.468 29.5707 572.792 29.1987C573.116 28.8267 573.662 28.5627 574.43 28.4067C575.198 28.2387 576.23 28.1547 577.526 28.1547H578.372V29.1987H577.562C576.638 29.1987 575.906 29.2407 575.366 29.3247C574.838 29.4087 574.466 29.5587 574.25 29.7747C574.034 29.9787 573.926 30.2667 573.926 30.6387C573.926 31.1067 574.088 31.4907 574.412 31.7907C574.748 32.0907 575.204 32.2407 575.78 32.2407C576.236 32.2407 576.638 32.1327 576.986 31.9167C577.334 31.6887 577.61 31.3887 577.814 31.0167C578.018 30.6327 578.12 30.1947 578.12 29.7027V27.6327C578.12 26.9247 577.976 26.4147 577.688 26.1027C577.4 25.7787 576.914 25.6167 576.23 25.6167C575.834 25.6167 575.426 25.6707 575.006 25.7787C574.586 25.8867 574.148 26.0547 573.692 26.2827C573.512 26.3667 573.356 26.3967 573.224 26.3727C573.092 26.3367 572.984 26.2647 572.9 26.1567C572.828 26.0367 572.786 25.9107 572.774 25.7787C572.774 25.6347 572.804 25.4967 572.864 25.3647C572.936 25.2327 573.056 25.1367 573.224 25.0767C573.752 24.8127 574.274 24.6267 574.79 24.5187C575.318 24.3987 575.81 24.3387 576.266 24.3387C577.046 24.3387 577.688 24.4647 578.192 24.7167C578.696 24.9567 579.074 25.3347 579.326 25.8507C579.578 26.3547 579.704 27.0027 579.704 27.7947V32.5467C579.704 32.8227 579.638 33.0327 579.506 33.1767C579.374 33.3207 579.182 33.3927 578.93 33.3927C578.69 33.3927 578.498 33.3207 578.354 33.1767C578.222 33.0327 578.156 32.8227 578.156 32.5467V31.2687H578.318C578.222 31.7127 578.042 32.0967 577.778 32.4207C577.514 32.7447 577.184 32.9967 576.788 33.1767C576.404 33.3447 575.966 33.4287 575.474 33.4287ZM585.881 33.4287C584.993 33.4287 584.225 33.2427 583.577 32.8707C582.929 32.4867 582.431 31.9527 582.083 31.2687C581.735 30.5727 581.561 29.7567 581.561 28.8207C581.561 28.1247 581.657 27.5007 581.849 26.9487C582.053 26.3967 582.341 25.9287 582.713 25.5447C583.085 25.1487 583.535 24.8487 584.063 24.6447C584.603 24.4407 585.209 24.3387 585.881 24.3387C586.301 24.3387 586.745 24.4047 587.213 24.5367C587.681 24.6687 588.113 24.8847 588.509 25.1847C588.641 25.2807 588.725 25.3947 588.761 25.5267C588.797 25.6467 588.797 25.7727 588.761 25.9047C588.737 26.0367 588.677 26.1507 588.581 26.2467C588.497 26.3307 588.383 26.3787 588.239 26.3907C588.107 26.4027 587.963 26.3607 587.807 26.2647C587.519 26.0487 587.213 25.8927 586.889 25.7967C586.577 25.7007 586.277 25.6527 585.989 25.6527C585.545 25.6527 585.149 25.7247 584.801 25.8687C584.465 26.0127 584.177 26.2227 583.937 26.4987C583.709 26.7627 583.535 27.0927 583.415 27.4887C583.295 27.8727 583.235 28.3227 583.235 28.8387C583.235 29.8587 583.475 30.6627 583.955 31.2507C584.435 31.8267 585.113 32.1147 585.989 32.1147C586.277 32.1147 586.577 32.0727 586.889 31.9887C587.201 31.8927 587.507 31.7367 587.807 31.5207C587.963 31.4247 588.107 31.3887 588.239 31.4127C588.371 31.4247 588.479 31.4787 588.563 31.5747C588.659 31.6587 588.719 31.7667 588.743 31.8987C588.767 32.0187 588.755 32.1447 588.707 32.2767C588.671 32.4087 588.587 32.5167 588.455 32.6007C588.071 32.8887 587.651 33.0987 587.195 33.2307C586.739 33.3627 586.301 33.4287 585.881 33.4287ZM593.906 33.4287C593.198 33.4287 592.604 33.3027 592.124 33.0507C591.656 32.7987 591.302 32.4327 591.062 31.9527C590.834 31.4727 590.72 30.8847 590.72 30.1887V25.7607H589.568C589.352 25.7607 589.184 25.7067 589.064 25.5987C588.944 25.4787 588.884 25.3227 588.884 25.1307C588.884 24.9267 588.944 24.7707 589.064 24.6627C589.184 24.5547 589.352 24.5007 589.568 24.5007H590.72V22.5387C590.72 22.2627 590.792 22.0587 590.936 21.9267C591.08 21.7827 591.284 21.7107 591.548 21.7107C591.812 21.7107 592.01 21.7827 592.142 21.9267C592.286 22.0587 592.358 22.2627 592.358 22.5387V24.5007H594.536C594.764 24.5007 594.938 24.5547 595.058 24.6627C595.178 24.7707 595.238 24.9267 595.238 25.1307C595.238 25.3227 595.178 25.4787 595.058 25.5987C594.938 25.7067 594.764 25.7607 594.536 25.7607H592.358V30.0447C592.358 30.7047 592.496 31.2027 592.772 31.5387C593.048 31.8747 593.504 32.0427 594.14 32.0427C594.368 32.0427 594.56 32.0247 594.716 31.9887C594.872 31.9407 595.01 31.9167 595.13 31.9167C595.238 31.9047 595.328 31.9407 595.4 32.0247C595.484 32.1087 595.526 32.2647 595.526 32.4927C595.526 32.6607 595.496 32.8167 595.436 32.9607C595.388 33.0927 595.286 33.1827 595.13 33.2307C594.986 33.2787 594.794 33.3207 594.554 33.3567C594.314 33.4047 594.098 33.4287 593.906 33.4287ZM600.486 33.4287C599.538 33.4287 598.722 33.2487 598.038 32.8887C597.366 32.5167 596.844 31.9947 596.472 31.3227C596.1 30.6387 595.914 29.8347 595.914 28.9107C595.914 27.9987 596.094 27.2007 596.454 26.5167C596.826 25.8327 597.33 25.2987 597.966 24.9147C598.614 24.5307 599.352 24.3387 600.18 24.3387C600.768 24.3387 601.296 24.4407 601.764 24.6447C602.244 24.8367 602.652 25.1187 602.988 25.4907C603.324 25.8627 603.576 26.3187 603.744 26.8587C603.924 27.3867 604.014 27.9867 604.014 28.6587C604.014 28.8507 603.954 29.0007 603.834 29.1087C603.726 29.2047 603.564 29.2527 603.348 29.2527H597.192V28.2087H602.934L602.628 28.4607C602.628 27.8367 602.532 27.3087 602.34 26.8767C602.16 26.4327 601.89 26.0967 601.53 25.8687C601.182 25.6407 600.744 25.5267 600.216 25.5267C599.64 25.5267 599.148 25.6647 598.74 25.9407C598.332 26.2047 598.02 26.5827 597.804 27.0747C597.588 27.5547 597.48 28.1127 597.48 28.7487V28.8567C597.48 29.9367 597.738 30.7527 598.254 31.3047C598.77 31.8567 599.514 32.1327 600.486 32.1327C600.87 32.1327 601.26 32.0847 601.656 31.9887C602.064 31.8927 602.454 31.7187 602.826 31.4667C603.006 31.3587 603.168 31.3107 603.312 31.3227C603.468 31.3227 603.594 31.3707 603.69 31.4667C603.786 31.5507 603.846 31.6587 603.87 31.7907C603.894 31.9107 603.876 32.0427 603.816 32.1867C603.756 32.3307 603.642 32.4567 603.474 32.5647C603.078 32.8407 602.604 33.0567 602.052 33.2127C601.512 33.3567 600.99 33.4287 600.486 33.4287ZM606.699 33.3927C606.423 33.3927 606.213 33.3207 606.069 33.1767C605.925 33.0327 605.853 32.8227 605.853 32.5467V25.2027C605.853 24.9267 605.925 24.7227 606.069 24.5907C606.213 24.4467 606.411 24.3747 606.663 24.3747C606.915 24.3747 607.107 24.4467 607.239 24.5907C607.383 24.7227 607.455 24.9267 607.455 25.2027V26.5887H607.275C607.467 25.8687 607.827 25.3227 608.355 24.9507C608.883 24.5787 609.549 24.3687 610.353 24.3207C610.545 24.3087 610.701 24.3567 610.821 24.4647C610.941 24.5607 611.007 24.7287 611.019 24.9687C611.031 25.1967 610.977 25.3827 610.857 25.5267C610.737 25.6587 610.551 25.7367 610.299 25.7607L609.975 25.7787C609.183 25.8627 608.571 26.1207 608.139 26.5527C607.719 26.9847 607.509 27.5787 607.509 28.3347V32.5467C607.509 32.8227 607.437 33.0327 607.293 33.1767C607.161 33.3207 606.963 33.3927 606.699 33.3927ZM615.165 33.4287C614.625 33.4287 614.079 33.3687 613.527 33.2487C612.987 33.1167 612.477 32.8947 611.997 32.5827C611.865 32.4987 611.769 32.3967 611.709 32.2767C611.661 32.1447 611.643 32.0187 611.655 31.8987C611.679 31.7667 611.733 31.6527 611.817 31.5567C611.901 31.4607 612.003 31.4067 612.123 31.3947C612.255 31.3707 612.393 31.4007 612.537 31.4847C613.005 31.7487 613.455 31.9347 613.887 32.0427C614.331 32.1507 614.769 32.2047 615.201 32.2047C615.861 32.2047 616.359 32.0847 616.695 31.8447C617.031 31.6047 617.199 31.2867 617.199 30.8907C617.199 30.5547 617.085 30.2967 616.857 30.1167C616.641 29.9247 616.299 29.7807 615.831 29.6847L614.157 29.3427C613.413 29.1747 612.849 28.8987 612.465 28.5147C612.093 28.1187 611.907 27.6147 611.907 27.0027C611.907 26.4627 612.051 25.9947 612.339 25.5987C612.639 25.1907 613.053 24.8787 613.581 24.6627C614.109 24.4467 614.715 24.3387 615.399 24.3387C615.927 24.3387 616.425 24.4107 616.893 24.5547C617.373 24.6867 617.805 24.8907 618.189 25.1667C618.333 25.2507 618.423 25.3587 618.459 25.4907C618.507 25.6107 618.513 25.7367 618.477 25.8687C618.453 25.9887 618.399 26.0907 618.315 26.1747C618.231 26.2587 618.123 26.3127 617.991 26.3367C617.859 26.3487 617.715 26.3127 617.559 26.2287C617.211 25.9887 616.851 25.8207 616.479 25.7247C616.119 25.6167 615.759 25.5627 615.399 25.5627C614.751 25.5627 614.259 25.6887 613.923 25.9407C613.599 26.1927 613.437 26.5227 613.437 26.9307C613.437 27.2427 613.533 27.5007 613.725 27.7047C613.929 27.9087 614.247 28.0587 614.679 28.1547L616.353 28.4967C617.133 28.6647 617.721 28.9347 618.117 29.3067C618.513 29.6667 618.711 30.1587 618.711 30.7827C618.711 31.5987 618.387 32.2467 617.739 32.7267C617.103 33.1947 616.245 33.4287 615.165 33.4287Z" fill="black"/>
<rect x="360.748" y="4.76672" width="128.176" height="56.7333" rx="19.5" fill="#FDD8C1" stroke="#6B2F00" stroke-width="3"/>
<rect x="370.346" y="1.5" width="118.578" height="49.7333" rx="19.5" fill="#F9EFE3" stroke="#6B2F00" stroke-width="3"/>
<path d="M394.684 32.4287C393.424 32.4287 392.344 32.1647 391.444 31.6367C390.544 31.1087 389.848 30.3587 389.356 29.3867C388.876 28.4027 388.636 27.2447 388.636 25.9127C388.636 24.9167 388.774 24.0227 389.05 23.2307C389.326 22.4267 389.722 21.7427 390.238 21.1787C390.754 20.6027 391.384 20.1647 392.128 19.8647C392.884 19.5647 393.736 19.4147 394.684 19.4147C395.404 19.4147 396.094 19.5167 396.754 19.7207C397.426 19.9247 398.002 20.2127 398.482 20.5847C398.674 20.7167 398.8 20.8667 398.86 21.0347C398.92 21.2027 398.926 21.3647 398.878 21.5207C398.842 21.6647 398.764 21.7907 398.644 21.8987C398.536 21.9947 398.398 22.0487 398.23 22.0607C398.062 22.0607 397.882 21.9947 397.69 21.8627C397.27 21.5387 396.808 21.3047 396.304 21.1607C395.812 21.0047 395.284 20.9267 394.72 20.9267C393.796 20.9267 393.01 21.1247 392.362 21.5207C391.726 21.9047 391.24 22.4687 390.904 23.2127C390.58 23.9447 390.418 24.8447 390.418 25.9127C390.418 26.9687 390.58 27.8747 390.904 28.6307C391.24 29.3747 391.726 29.9447 392.362 30.3407C393.01 30.7247 393.796 30.9167 394.72 30.9167C395.284 30.9167 395.818 30.8387 396.322 30.6827C396.838 30.5267 397.312 30.2867 397.744 29.9627C397.936 29.8307 398.11 29.7707 398.266 29.7827C398.434 29.7947 398.572 29.8487 398.68 29.9447C398.788 30.0287 398.86 30.1487 398.896 30.3047C398.944 30.4487 398.944 30.5987 398.896 30.7547C398.848 30.9107 398.74 31.0487 398.572 31.1687C398.08 31.5887 397.492 31.9067 396.808 32.1227C396.136 32.3267 395.428 32.4287 394.684 32.4287ZM403.328 32.4287C402.728 32.4287 402.182 32.3087 401.69 32.0687C401.21 31.8287 400.832 31.5047 400.556 31.0967C400.292 30.6887 400.16 30.2327 400.16 29.7287C400.16 29.0807 400.322 28.5707 400.646 28.1987C400.97 27.8267 401.516 27.5627 402.284 27.4067C403.052 27.2387 404.084 27.1547 405.38 27.1547H406.226V28.1987H405.416C404.492 28.1987 403.76 28.2407 403.22 28.3247C402.692 28.4087 402.32 28.5587 402.104 28.7747C401.888 28.9787 401.78 29.2667 401.78 29.6387C401.78 30.1067 401.942 30.4907 402.266 30.7907C402.602 31.0907 403.058 31.2407 403.634 31.2407C404.09 31.2407 404.492 31.1327 404.84 30.9167C405.188 30.6887 405.464 30.3887 405.668 30.0167C405.872 29.6327 405.974 29.1947 405.974 28.7027V26.6327C405.974 25.9247 405.83 25.4147 405.542 25.1027C405.254 24.7787 404.768 24.6167 404.084 24.6167C403.688 24.6167 403.28 24.6707 402.86 24.7787C402.44 24.8867 402.002 25.0547 401.546 25.2827C401.366 25.3667 401.21 25.3967 401.078 25.3727C400.946 25.3367 400.838 25.2647 400.754 25.1567C400.682 25.0367 400.64 24.9107 400.628 24.7787C400.628 24.6347 400.658 24.4967 400.718 24.3647C400.79 24.2327 400.91 24.1367 401.078 24.0767C401.606 23.8127 402.128 23.6267 402.644 23.5187C403.172 23.3987 403.664 23.3387 404.12 23.3387C404.9 23.3387 405.542 23.4647 406.046 23.7167C406.55 23.9567 406.928 24.3347 407.18 24.8507C407.432 25.3547 407.558 26.0027 407.558 26.7947V31.5467C407.558 31.8227 407.492 32.0327 407.36 32.1767C407.228 32.3207 407.036 32.3927 406.784 32.3927C406.544 32.3927 406.352 32.3207 406.208 32.1767C406.076 32.0327 406.01 31.8227 406.01 31.5467V30.2687H406.172C406.076 30.7127 405.896 31.0967 405.632 31.4207C405.368 31.7447 405.038 31.9967 404.642 32.1767C404.258 32.3447 403.82 32.4287 403.328 32.4287ZM413.573 32.4287C412.865 32.4287 412.271 32.3027 411.791 32.0507C411.323 31.7987 410.969 31.4327 410.729 30.9527C410.501 30.4727 410.387 29.8847 410.387 29.1887V24.7607H409.235C409.019 24.7607 408.851 24.7067 408.731 24.5987C408.611 24.4787 408.551 24.3227 408.551 24.1307C408.551 23.9267 408.611 23.7707 408.731 23.6627C408.851 23.5547 409.019 23.5007 409.235 23.5007H410.387V21.5387C410.387 21.2627 410.459 21.0587 410.603 20.9267C410.747 20.7827 410.951 20.7107 411.215 20.7107C411.479 20.7107 411.677 20.7827 411.809 20.9267C411.953 21.0587 412.025 21.2627 412.025 21.5387V23.5007H414.203C414.431 23.5007 414.605 23.5547 414.725 23.6627C414.845 23.7707 414.905 23.9267 414.905 24.1307C414.905 24.3227 414.845 24.4787 414.725 24.5987C414.605 24.7067 414.431 24.7607 414.203 24.7607H412.025V29.0447C412.025 29.7047 412.163 30.2027 412.439 30.5387C412.715 30.8747 413.171 31.0427 413.807 31.0427C414.035 31.0427 414.227 31.0247 414.383 30.9887C414.539 30.9407 414.677 30.9167 414.797 30.9167C414.905 30.9047 414.995 30.9407 415.067 31.0247C415.151 31.1087 415.193 31.2647 415.193 31.4927C415.193 31.6607 415.163 31.8167 415.103 31.9607C415.055 32.0927 414.953 32.1827 414.797 32.2307C414.653 32.2787 414.461 32.3207 414.221 32.3567C413.981 32.4047 413.765 32.4287 413.573 32.4287ZM420.153 32.4287C419.205 32.4287 418.389 32.2487 417.705 31.8887C417.033 31.5167 416.511 30.9947 416.139 30.3227C415.767 29.6387 415.581 28.8347 415.581 27.9107C415.581 26.9987 415.761 26.2007 416.121 25.5167C416.493 24.8327 416.997 24.2987 417.633 23.9147C418.281 23.5307 419.019 23.3387 419.847 23.3387C420.435 23.3387 420.963 23.4407 421.431 23.6447C421.911 23.8367 422.319 24.1187 422.655 24.4907C422.991 24.8627 423.243 25.3187 423.411 25.8587C423.591 26.3867 423.681 26.9867 423.681 27.6587C423.681 27.8507 423.621 28.0007 423.501 28.1087C423.393 28.2047 423.231 28.2527 423.015 28.2527H416.859V27.2087H422.601L422.295 27.4607C422.295 26.8367 422.199 26.3087 422.007 25.8767C421.827 25.4327 421.557 25.0967 421.197 24.8687C420.849 24.6407 420.411 24.5267 419.883 24.5267C419.307 24.5267 418.815 24.6647 418.407 24.9407C417.999 25.2047 417.687 25.5827 417.471 26.0747C417.255 26.5547 417.147 27.1127 417.147 27.7487V27.8567C417.147 28.9367 417.405 29.7527 417.921 30.3047C418.437 30.8567 419.181 31.1327 420.153 31.1327C420.537 31.1327 420.927 31.0847 421.323 30.9887C421.731 30.8927 422.121 30.7187 422.493 30.4667C422.673 30.3587 422.835 30.3107 422.979 30.3227C423.135 30.3227 423.261 30.3707 423.357 30.4667C423.453 30.5507 423.513 30.6587 423.537 30.7907C423.561 30.9107 423.543 31.0427 423.483 31.1867C423.423 31.3307 423.309 31.4567 423.141 31.5647C422.745 31.8407 422.271 32.0567 421.719 32.2127C421.179 32.3567 420.657 32.4287 420.153 32.4287ZM429.462 35.6687C428.814 35.6687 428.184 35.5967 427.572 35.4527C426.972 35.3087 426.426 35.0867 425.934 34.7867C425.778 34.6907 425.67 34.5767 425.61 34.4447C425.562 34.3247 425.55 34.1987 425.574 34.0667C425.61 33.9347 425.67 33.8147 425.754 33.7067C425.85 33.6107 425.958 33.5447 426.078 33.5087C426.21 33.4847 426.342 33.5147 426.474 33.5987C427.002 33.8987 427.506 34.1027 427.986 34.2107C428.466 34.3187 428.922 34.3727 429.354 34.3727C430.206 34.3727 430.842 34.1507 431.262 33.7067C431.694 33.2747 431.91 32.6387 431.91 31.7987V29.8547H432.072C431.904 30.5267 431.526 31.0607 430.938 31.4567C430.362 31.8527 429.69 32.0507 428.922 32.0507C428.13 32.0507 427.44 31.8707 426.852 31.5107C426.264 31.1387 425.808 30.6287 425.484 29.9807C425.16 29.3207 424.998 28.5587 424.998 27.6947C424.998 27.0347 425.088 26.4407 425.268 25.9127C425.46 25.3727 425.724 24.9167 426.06 24.5447C426.408 24.1607 426.822 23.8667 427.302 23.6627C427.782 23.4467 428.322 23.3387 428.922 23.3387C429.702 23.3387 430.38 23.5367 430.956 23.9327C431.532 24.3287 431.904 24.8627 432.072 25.5347L431.874 25.7867V24.2027C431.874 23.9267 431.946 23.7227 432.09 23.5907C432.234 23.4467 432.438 23.3747 432.702 23.3747C432.954 23.3747 433.152 23.4467 433.296 23.5907C433.44 23.7227 433.512 23.9267 433.512 24.2027V31.5827C433.512 32.9387 433.164 33.9587 432.468 34.6427C431.784 35.3267 430.782 35.6687 429.462 35.6687ZM429.282 30.7547C429.822 30.7547 430.284 30.6347 430.668 30.3947C431.064 30.1427 431.364 29.7887 431.568 29.3327C431.784 28.8647 431.892 28.3187 431.892 27.6947C431.892 26.7467 431.658 26.0027 431.19 25.4627C430.722 24.9107 430.086 24.6347 429.282 24.6347C428.742 24.6347 428.274 24.7607 427.878 25.0127C427.494 25.2527 427.194 25.6007 426.978 26.0567C426.762 26.5127 426.654 27.0587 426.654 27.6947C426.654 28.6307 426.888 29.3747 427.356 29.9267C427.836 30.4787 428.478 30.7547 429.282 30.7547ZM439.665 32.4287C438.801 32.4287 438.051 32.2427 437.415 31.8707C436.779 31.4987 436.287 30.9707 435.939 30.2867C435.591 29.6027 435.417 28.7987 435.417 27.8747C435.417 27.1787 435.513 26.5547 435.705 26.0027C435.909 25.4387 436.197 24.9587 436.569 24.5627C436.941 24.1667 437.385 23.8667 437.901 23.6627C438.429 23.4467 439.017 23.3387 439.665 23.3387C440.529 23.3387 441.279 23.5247 441.915 23.8967C442.551 24.2687 443.043 24.7967 443.391 25.4807C443.739 26.1527 443.913 26.9507 443.913 27.8747C443.913 28.5707 443.811 29.2007 443.607 29.7647C443.415 30.3287 443.133 30.8087 442.761 31.2047C442.389 31.6007 441.939 31.9067 441.411 32.1227C440.895 32.3267 440.313 32.4287 439.665 32.4287ZM439.665 31.1327C440.193 31.1327 440.649 31.0067 441.033 30.7547C441.429 30.5027 441.729 30.1367 441.933 29.6567C442.149 29.1767 442.257 28.5827 442.257 27.8747C442.257 26.8187 442.023 26.0147 441.555 25.4627C441.087 24.9107 440.457 24.6347 439.665 24.6347C439.149 24.6347 438.693 24.7607 438.297 25.0127C437.913 25.2527 437.613 25.6127 437.397 26.0927C437.181 26.5727 437.073 27.1667 437.073 27.8747C437.073 28.9307 437.307 29.7407 437.775 30.3047C438.255 30.8567 438.885 31.1327 439.665 31.1327ZM446.659 32.3927C446.383 32.3927 446.173 32.3207 446.029 32.1767C445.885 32.0327 445.813 31.8227 445.813 31.5467V24.2027C445.813 23.9267 445.885 23.7227 446.029 23.5907C446.173 23.4467 446.371 23.3747 446.623 23.3747C446.875 23.3747 447.067 23.4467 447.199 23.5907C447.343 23.7227 447.415 23.9267 447.415 24.2027V25.5887H447.235C447.427 24.8687 447.787 24.3227 448.315 23.9507C448.843 23.5787 449.509 23.3687 450.313 23.3207C450.505 23.3087 450.661 23.3567 450.781 23.4647C450.901 23.5607 450.967 23.7287 450.979 23.9687C450.991 24.1967 450.937 24.3827 450.817 24.5267C450.697 24.6587 450.511 24.7367 450.259 24.7607L449.935 24.7787C449.143 24.8627 448.531 25.1207 448.099 25.5527C447.679 25.9847 447.469 26.5787 447.469 27.3347V31.5467C447.469 31.8227 447.397 32.0327 447.253 32.1767C447.121 32.3207 446.923 32.3927 446.659 32.3927ZM452.999 32.3567C452.747 32.3567 452.549 32.2787 452.405 32.1227C452.261 31.9667 452.189 31.7507 452.189 31.4747V24.2927C452.189 24.0047 452.261 23.7887 452.405 23.6447C452.549 23.4887 452.747 23.4107 452.999 23.4107C453.263 23.4107 453.467 23.4887 453.611 23.6447C453.755 23.7887 453.827 24.0047 453.827 24.2927V31.4747C453.827 31.7507 453.755 31.9667 453.611 32.1227C453.479 32.2787 453.275 32.3567 452.999 32.3567ZM452.999 21.4667C452.675 21.4667 452.417 21.3827 452.225 21.2147C452.045 21.0347 451.955 20.8007 451.955 20.5127C451.955 20.2007 452.045 19.9667 452.225 19.8107C452.417 19.6427 452.675 19.5587 452.999 19.5587C453.347 19.5587 453.605 19.6427 453.773 19.8107C453.953 19.9667 454.043 20.2007 454.043 20.5127C454.043 20.8007 453.953 21.0347 453.773 21.2147C453.605 21.3827 453.347 21.4667 452.999 21.4667ZM460.313 32.4287C459.365 32.4287 458.549 32.2487 457.865 31.8887C457.193 31.5167 456.671 30.9947 456.299 30.3227C455.927 29.6387 455.741 28.8347 455.741 27.9107C455.741 26.9987 455.921 26.2007 456.281 25.5167C456.653 24.8327 457.157 24.2987 457.793 23.9147C458.441 23.5307 459.179 23.3387 460.007 23.3387C460.595 23.3387 461.123 23.4407 461.591 23.6447C462.071 23.8367 462.479 24.1187 462.815 24.4907C463.151 24.8627 463.403 25.3187 463.571 25.8587C463.751 26.3867 463.841 26.9867 463.841 27.6587C463.841 27.8507 463.781 28.0007 463.661 28.1087C463.553 28.2047 463.391 28.2527 463.175 28.2527H457.019V27.2087H462.761L462.455 27.4607C462.455 26.8367 462.359 26.3087 462.167 25.8767C461.987 25.4327 461.717 25.0967 461.357 24.8687C461.009 24.6407 460.571 24.5267 460.043 24.5267C459.467 24.5267 458.975 24.6647 458.567 24.9407C458.159 25.2047 457.847 25.5827 457.631 26.0747C457.415 26.5547 457.307 27.1127 457.307 27.7487V27.8567C457.307 28.9367 457.565 29.7527 458.081 30.3047C458.597 30.8567 459.341 31.1327 460.313 31.1327C460.697 31.1327 461.087 31.0847 461.483 30.9887C461.891 30.8927 462.281 30.7187 462.653 30.4667C462.833 30.3587 462.995 30.3107 463.139 30.3227C463.295 30.3227 463.421 30.3707 463.517 30.4667C463.613 30.5507 463.673 30.6587 463.697 30.7907C463.721 30.9107 463.703 31.0427 463.643 31.1867C463.583 31.3307 463.469 31.4567 463.301 31.5647C462.905 31.8407 462.431 32.0567 461.879 32.2127C461.339 32.3567 460.817 32.4287 460.313 32.4287ZM468.704 32.4287C468.164 32.4287 467.618 32.3687 467.066 32.2487C466.526 32.1167 466.016 31.8947 465.536 31.5827C465.404 31.4987 465.308 31.3967 465.248 31.2767C465.2 31.1447 465.182 31.0187 465.194 30.8987C465.218 30.7667 465.272 30.6527 465.356 30.5567C465.44 30.4607 465.542 30.4067 465.662 30.3947C465.794 30.3707 465.932 30.4007 466.076 30.4847C466.544 30.7487 466.994 30.9347 467.426 31.0427C467.87 31.1507 468.308 31.2047 468.74 31.2047C469.4 31.2047 469.898 31.0847 470.234 30.8447C470.57 30.6047 470.738 30.2867 470.738 29.8907C470.738 29.5547 470.624 29.2967 470.396 29.1167C470.18 28.9247 469.838 28.7807 469.37 28.6847L467.696 28.3427C466.952 28.1747 466.388 27.8987 466.004 27.5147C465.632 27.1187 465.446 26.6147 465.446 26.0027C465.446 25.4627 465.59 24.9947 465.878 24.5987C466.178 24.1907 466.592 23.8787 467.12 23.6627C467.648 23.4467 468.254 23.3387 468.938 23.3387C469.466 23.3387 469.964 23.4107 470.432 23.5547C470.912 23.6867 471.344 23.8907 471.728 24.1667C471.872 24.2507 471.962 24.3587 471.998 24.4907C472.046 24.6107 472.052 24.7367 472.016 24.8687C471.992 24.9887 471.938 25.0907 471.854 25.1747C471.77 25.2587 471.662 25.3127 471.53 25.3367C471.398 25.3487 471.254 25.3127 471.098 25.2287C470.75 24.9887 470.39 24.8207 470.018 24.7247C469.658 24.6167 469.298 24.5627 468.938 24.5627C468.29 24.5627 467.798 24.6887 467.462 24.9407C467.138 25.1927 466.976 25.5227 466.976 25.9307C466.976 26.2427 467.072 26.5007 467.264 26.7047C467.468 26.9087 467.786 27.0587 468.218 27.1547L469.892 27.4967C470.672 27.6647 471.26 27.9347 471.656 28.3067C472.052 28.6667 472.25 29.1587 472.25 29.7827C472.25 30.5987 471.926 31.2467 471.278 31.7267C470.642 32.1947 469.784 32.4287 468.704 32.4287Z" fill="black"/>
<rect x="181.124" y="3.83337" width="161.541" height="57.6667" rx="19.5" fill="#FDD8C1" stroke="#6B2F00" stroke-width="3"/>
<rect x="190.722" y="1.5" width="151.943" height="49.7333" rx="19.5" fill="#F9EFE3" stroke="#6B2F00" stroke-width="3"/>
<path d="M204.244 33.3927C204.004 33.3927 203.812 33.3207 203.668 33.1767C203.536 33.0327 203.47 32.8347 203.47 32.5827V21.2967C203.47 21.0207 203.536 20.8107 203.668 20.6667C203.8 20.5227 203.974 20.4507 204.19 20.4507C204.394 20.4507 204.55 20.4867 204.658 20.5587C204.766 20.6307 204.886 20.7567 205.018 20.9367L212.65 31.0527H212.2V21.2607C212.2 20.9967 212.266 20.7987 212.398 20.6667C212.542 20.5227 212.74 20.4507 212.992 20.4507C213.244 20.4507 213.436 20.5227 213.568 20.6667C213.7 20.7987 213.766 20.9967 213.766 21.2607V32.5827C213.766 32.8347 213.7 33.0327 213.568 33.1767C213.448 33.3207 213.286 33.3927 213.082 33.3927C212.89 33.3927 212.728 33.3507 212.596 33.2667C212.476 33.1947 212.35 33.0687 212.218 32.8887L204.604 22.7727H205.018V32.5827C205.018 32.8347 204.952 33.0327 204.82 33.1767C204.688 33.3207 204.496 33.3927 204.244 33.3927ZM220.447 33.4287C219.499 33.4287 218.683 33.2487 217.999 32.8887C217.327 32.5167 216.805 31.9947 216.433 31.3227C216.061 30.6387 215.875 29.8347 215.875 28.9107C215.875 27.9987 216.055 27.2007 216.415 26.5167C216.787 25.8327 217.291 25.2987 217.927 24.9147C218.575 24.5307 219.313 24.3387 220.141 24.3387C220.729 24.3387 221.257 24.4407 221.725 24.6447C222.205 24.8367 222.613 25.1187 222.949 25.4907C223.285 25.8627 223.537 26.3187 223.705 26.8587C223.885 27.3867 223.975 27.9867 223.975 28.6587C223.975 28.8507 223.915 29.0007 223.795 29.1087C223.687 29.2047 223.525 29.2527 223.309 29.2527H217.153V28.2087H222.895L222.589 28.4607C222.589 27.8367 222.493 27.3087 222.301 26.8767C222.121 26.4327 221.851 26.0967 221.491 25.8687C221.143 25.6407 220.705 25.5267 220.177 25.5267C219.601 25.5267 219.109 25.6647 218.701 25.9407C218.293 26.2047 217.981 26.5827 217.765 27.0747C217.549 27.5547 217.441 28.1127 217.441 28.7487V28.8567C217.441 29.9367 217.699 30.7527 218.215 31.3047C218.731 31.8567 219.475 32.1327 220.447 32.1327C220.831 32.1327 221.221 32.0847 221.617 31.9887C222.025 31.8927 222.415 31.7187 222.787 31.4667C222.967 31.3587 223.129 31.3107 223.273 31.3227C223.429 31.3227 223.555 31.3707 223.651 31.4667C223.747 31.5507 223.807 31.6587 223.831 31.7907C223.855 31.9107 223.837 32.0427 223.777 32.1867C223.717 32.3307 223.603 32.4567 223.435 32.5647C223.039 32.8407 222.565 33.0567 222.013 33.2127C221.473 33.3567 220.951 33.4287 220.447 33.4287ZM228.806 33.3927C228.578 33.3927 228.38 33.3387 228.212 33.2307C228.044 33.1107 227.912 32.9187 227.816 32.6547L225.134 25.5087C225.05 25.2807 225.026 25.0827 225.062 24.9147C225.098 24.7467 225.182 24.6147 225.314 24.5187C225.446 24.4227 225.62 24.3747 225.836 24.3747C226.04 24.3747 226.202 24.4227 226.322 24.5187C226.442 24.6147 226.544 24.7887 226.628 25.0407L229.076 31.9527H228.644L231.164 25.0047C231.248 24.7887 231.356 24.6327 231.488 24.5367C231.632 24.4287 231.806 24.3747 232.01 24.3747C232.226 24.3747 232.406 24.4287 232.55 24.5367C232.694 24.6327 232.796 24.7887 232.856 25.0047L235.34 31.9527H234.926L237.41 25.0047C237.494 24.7647 237.602 24.6027 237.734 24.5187C237.866 24.4227 238.028 24.3747 238.22 24.3747C238.436 24.3747 238.598 24.4287 238.706 24.5367C238.814 24.6447 238.874 24.7887 238.886 24.9687C238.91 25.1367 238.886 25.3167 238.814 25.5087L236.132 32.6547C236.048 32.9067 235.916 33.0927 235.736 33.2127C235.568 33.3327 235.37 33.3927 235.142 33.3927C234.914 33.3927 234.71 33.3327 234.53 33.2127C234.362 33.0927 234.23 32.9067 234.134 32.6547L231.56 25.5987H232.388L229.814 32.6547C229.718 32.9067 229.586 33.0927 229.418 33.2127C229.25 33.3327 229.046 33.3927 228.806 33.3927ZM249.082 33.4287C248.23 33.4287 247.492 33.2967 246.868 33.0327C246.256 32.7567 245.782 32.3787 245.446 31.8987C245.122 31.4067 244.96 30.8307 244.96 30.1707C244.96 29.7747 245.014 29.4027 245.122 29.0547C245.23 28.7067 245.392 28.3827 245.608 28.0827C245.836 27.7707 246.112 27.4707 246.436 27.1827C246.772 26.8947 247.156 26.6127 247.588 26.3367L248.182 25.9587L247.948 26.3007C247.384 25.7007 246.982 25.1727 246.742 24.7167C246.514 24.2487 246.4 23.7627 246.4 23.2587C246.4 22.6947 246.532 22.2027 246.796 21.7827C247.06 21.3507 247.432 21.0147 247.912 20.7747C248.404 20.5347 248.974 20.4147 249.622 20.4147C250.486 20.4147 251.188 20.6487 251.728 21.1167C252.268 21.5847 252.538 22.2207 252.538 23.0247C252.538 23.4687 252.448 23.8827 252.268 24.2667C252.1 24.6507 251.818 25.0287 251.422 25.4007C251.026 25.7727 250.486 26.1687 249.802 26.5887L249.82 26.1747L253.114 29.8287H252.754C252.922 29.5407 253.066 29.2167 253.186 28.8567C253.318 28.4967 253.426 28.1067 253.51 27.6867C253.606 27.2667 253.672 26.8227 253.708 26.3547C253.744 26.1267 253.822 25.9587 253.942 25.8507C254.062 25.7307 254.23 25.6707 254.446 25.6707C254.674 25.6707 254.848 25.7367 254.968 25.8687C255.088 26.0007 255.136 26.1867 255.112 26.4267C255.064 27.0267 254.974 27.5967 254.842 28.1367C254.71 28.6647 254.548 29.1567 254.356 29.6127C254.164 30.0687 253.948 30.4827 253.708 30.8547L253.69 30.4047L255.472 32.3127C255.64 32.4807 255.718 32.6487 255.706 32.8167C255.706 32.9847 255.64 33.1227 255.508 33.2307C255.376 33.3387 255.202 33.3927 254.986 33.3927C254.794 33.3927 254.638 33.3567 254.518 33.2847C254.398 33.2127 254.266 33.0987 254.122 32.9427L252.79 31.4847H253.204C252.7 32.0967 252.088 32.5767 251.368 32.9247C250.66 33.2607 249.898 33.4287 249.082 33.4287ZM249.154 32.0967C249.826 32.0967 250.42 31.9647 250.936 31.7007C251.452 31.4247 251.908 31.0167 252.304 30.4767L252.268 30.9627L248.47 26.8767L249.118 26.9127L248.578 27.2727C248.098 27.5847 247.708 27.8847 247.408 28.1727C247.12 28.4487 246.91 28.7367 246.778 29.0367C246.646 29.3367 246.58 29.6787 246.58 30.0627C246.58 30.6987 246.802 31.1967 247.246 31.5567C247.69 31.9167 248.326 32.0967 249.154 32.0967ZM249.622 21.6387C249.118 21.6387 248.71 21.7887 248.398 22.0887C248.086 22.3767 247.93 22.7607 247.93 23.2407C247.93 23.4807 247.966 23.7147 248.038 23.9427C248.122 24.1587 248.26 24.3987 248.452 24.6627C248.656 24.9147 248.938 25.2387 249.298 25.6347L248.884 25.6527C249.436 25.3047 249.874 24.9987 250.198 24.7347C250.522 24.4587 250.756 24.1947 250.9 23.9427C251.044 23.6787 251.116 23.4027 251.116 23.1147C251.116 22.6587 250.978 22.2987 250.702 22.0347C250.426 21.7707 250.066 21.6387 249.622 21.6387ZM263.193 33.3927C262.917 33.3927 262.701 33.3147 262.545 33.1587C262.389 33.0027 262.311 32.7807 262.311 32.4927V21.4767C262.311 21.1887 262.389 20.9667 262.545 20.8107C262.701 20.6547 262.923 20.5767 263.211 20.5767H269.673C269.913 20.5767 270.093 20.6367 270.213 20.7567C270.333 20.8647 270.393 21.0267 270.393 21.2427C270.393 21.4707 270.333 21.6447 270.213 21.7647C270.093 21.8847 269.913 21.9447 269.673 21.9447H263.985V26.1927H269.313C269.541 26.1927 269.715 26.2527 269.835 26.3727C269.955 26.4927 270.015 26.6547 270.015 26.8587C270.015 27.0867 269.955 27.2607 269.835 27.3807C269.715 27.5007 269.541 27.5607 269.313 27.5607H263.985V32.4927C263.985 33.0927 263.721 33.3927 263.193 33.3927ZM275.527 33.4287C274.579 33.4287 273.763 33.2487 273.079 32.8887C272.407 32.5167 271.885 31.9947 271.513 31.3227C271.141 30.6387 270.955 29.8347 270.955 28.9107C270.955 27.9987 271.135 27.2007 271.495 26.5167C271.867 25.8327 272.371 25.2987 273.007 24.9147C273.655 24.5307 274.393 24.3387 275.221 24.3387C275.809 24.3387 276.337 24.4407 276.805 24.6447C277.285 24.8367 277.693 25.1187 278.029 25.4907C278.365 25.8627 278.617 26.3187 278.785 26.8587C278.965 27.3867 279.055 27.9867 279.055 28.6587C279.055 28.8507 278.995 29.0007 278.875 29.1087C278.767 29.2047 278.605 29.2527 278.389 29.2527H272.233V28.2087H277.975L277.669 28.4607C277.669 27.8367 277.573 27.3087 277.381 26.8767C277.201 26.4327 276.931 26.0967 276.571 25.8687C276.223 25.6407 275.785 25.5267 275.257 25.5267C274.681 25.5267 274.189 25.6647 273.781 25.9407C273.373 26.2047 273.061 26.5827 272.845 27.0747C272.629 27.5547 272.521 28.1127 272.521 28.7487V28.8567C272.521 29.9367 272.779 30.7527 273.295 31.3047C273.811 31.8567 274.555 32.1327 275.527 32.1327C275.911 32.1327 276.301 32.0847 276.697 31.9887C277.105 31.8927 277.495 31.7187 277.867 31.4667C278.047 31.3587 278.209 31.3107 278.353 31.3227C278.509 31.3227 278.635 31.3707 278.731 31.4667C278.827 31.5507 278.887 31.6587 278.911 31.7907C278.935 31.9107 278.917 32.0427 278.857 32.1867C278.797 32.3307 278.683 32.4567 278.515 32.5647C278.119 32.8407 277.645 33.0567 277.093 33.2127C276.553 33.3567 276.031 33.4287 275.527 33.4287ZM283.684 33.4287C283.084 33.4287 282.538 33.3087 282.046 33.0687C281.566 32.8287 281.188 32.5047 280.912 32.0967C280.648 31.6887 280.516 31.2327 280.516 30.7287C280.516 30.0807 280.678 29.5707 281.002 29.1987C281.326 28.8267 281.872 28.5627 282.64 28.4067C283.408 28.2387 284.44 28.1547 285.736 28.1547H286.582V29.1987H285.772C284.848 29.1987 284.116 29.2407 283.576 29.3247C283.048 29.4087 282.676 29.5587 282.46 29.7747C282.244 29.9787 282.136 30.2667 282.136 30.6387C282.136 31.1067 282.298 31.4907 282.622 31.7907C282.958 32.0907 283.414 32.2407 283.99 32.2407C284.446 32.2407 284.848 32.1327 285.196 31.9167C285.544 31.6887 285.82 31.3887 286.024 31.0167C286.228 30.6327 286.33 30.1947 286.33 29.7027V27.6327C286.33 26.9247 286.186 26.4147 285.898 26.1027C285.61 25.7787 285.124 25.6167 284.44 25.6167C284.044 25.6167 283.636 25.6707 283.216 25.7787C282.796 25.8867 282.358 26.0547 281.902 26.2827C281.722 26.3667 281.566 26.3967 281.434 26.3727C281.302 26.3367 281.194 26.2647 281.11 26.1567C281.038 26.0367 280.996 25.9107 280.984 25.7787C280.984 25.6347 281.014 25.4967 281.074 25.3647C281.146 25.2327 281.266 25.1367 281.434 25.0767C281.962 24.8127 282.484 24.6267 283 24.5187C283.528 24.3987 284.02 24.3387 284.476 24.3387C285.256 24.3387 285.898 24.4647 286.402 24.7167C286.906 24.9567 287.284 25.3347 287.536 25.8507C287.788 26.3547 287.914 27.0027 287.914 27.7947V32.5467C287.914 32.8227 287.848 33.0327 287.716 33.1767C287.584 33.3207 287.392 33.3927 287.14 33.3927C286.9 33.3927 286.708 33.3207 286.564 33.1767C286.432 33.0327 286.366 32.8227 286.366 32.5467V31.2687H286.528C286.432 31.7127 286.252 32.0967 285.988 32.4207C285.724 32.7447 285.394 32.9967 284.998 33.1767C284.614 33.3447 284.176 33.4287 283.684 33.4287ZM293.93 33.4287C293.222 33.4287 292.628 33.3027 292.148 33.0507C291.68 32.7987 291.326 32.4327 291.086 31.9527C290.858 31.4727 290.744 30.8847 290.744 30.1887V25.7607H289.592C289.376 25.7607 289.208 25.7067 289.088 25.5987C288.968 25.4787 288.908 25.3227 288.908 25.1307C288.908 24.9267 288.968 24.7707 289.088 24.6627C289.208 24.5547 289.376 24.5007 289.592 24.5007H290.744V22.5387C290.744 22.2627 290.816 22.0587 290.96 21.9267C291.104 21.7827 291.308 21.7107 291.572 21.7107C291.836 21.7107 292.034 21.7827 292.166 21.9267C292.31 22.0587 292.382 22.2627 292.382 22.5387V24.5007H294.56C294.788 24.5007 294.962 24.5547 295.082 24.6627C295.202 24.7707 295.262 24.9267 295.262 25.1307C295.262 25.3227 295.202 25.4787 295.082 25.5987C294.962 25.7067 294.788 25.7607 294.56 25.7607H292.382V30.0447C292.382 30.7047 292.52 31.2027 292.796 31.5387C293.072 31.8747 293.528 32.0427 294.164 32.0427C294.392 32.0427 294.584 32.0247 294.74 31.9887C294.896 31.9407 295.034 31.9167 295.154 31.9167C295.262 31.9047 295.352 31.9407 295.424 32.0247C295.508 32.1087 295.55 32.2647 295.55 32.4927C295.55 32.6607 295.52 32.8167 295.46 32.9607C295.412 33.0927 295.31 33.1827 295.154 33.2307C295.01 33.2787 294.818 33.3207 294.578 33.3567C294.338 33.4047 294.122 33.4287 293.93 33.4287ZM299.679 33.4287C298.971 33.4287 298.377 33.2967 297.897 33.0327C297.429 32.7687 297.081 32.3787 296.853 31.8627C296.625 31.3467 296.511 30.6987 296.511 29.9187V25.2027C296.511 24.9267 296.577 24.7227 296.709 24.5907C296.853 24.4467 297.057 24.3747 297.321 24.3747C297.585 24.3747 297.789 24.4467 297.933 24.5907C298.077 24.7227 298.149 24.9267 298.149 25.2027V29.9187C298.149 30.6627 298.299 31.2147 298.599 31.5747C298.899 31.9227 299.373 32.0967 300.021 32.0967C300.741 32.0967 301.323 31.8567 301.767 31.3767C302.223 30.8967 302.451 30.2607 302.451 29.4687V25.2027C302.451 24.9267 302.517 24.7227 302.649 24.5907C302.793 24.4467 302.997 24.3747 303.261 24.3747C303.525 24.3747 303.729 24.4467 303.873 24.5907C304.017 24.7227 304.089 24.9267 304.089 25.2027V32.5467C304.089 33.1107 303.825 33.3927 303.297 33.3927C303.033 33.3927 302.829 33.3207 302.685 33.1767C302.553 33.0327 302.487 32.8227 302.487 32.5467V30.9807L302.721 31.2867C302.481 31.9827 302.091 32.5167 301.551 32.8887C301.023 33.2487 300.399 33.4287 299.679 33.4287ZM307.373 33.3927C307.097 33.3927 306.887 33.3207 306.743 33.1767C306.599 33.0327 306.527 32.8227 306.527 32.5467V25.2027C306.527 24.9267 306.599 24.7227 306.743 24.5907C306.887 24.4467 307.085 24.3747 307.337 24.3747C307.589 24.3747 307.781 24.4467 307.913 24.5907C308.057 24.7227 308.129 24.9267 308.129 25.2027V26.5887H307.949C308.141 25.8687 308.501 25.3227 309.029 24.9507C309.557 24.5787 310.223 24.3687 311.027 24.3207C311.219 24.3087 311.375 24.3567 311.495 24.4647C311.615 24.5607 311.681 24.7287 311.693 24.9687C311.705 25.1967 311.651 25.3827 311.531 25.5267C311.411 25.6587 311.225 25.7367 310.973 25.7607L310.649 25.7787C309.857 25.8627 309.245 26.1207 308.813 26.5527C308.393 26.9847 308.183 27.5787 308.183 28.3347V32.5467C308.183 32.8227 308.111 33.0327 307.967 33.1767C307.835 33.3207 307.637 33.3927 307.373 33.3927ZM316.83 33.4287C315.882 33.4287 315.066 33.2487 314.382 32.8887C313.71 32.5167 313.188 31.9947 312.816 31.3227C312.444 30.6387 312.258 29.8347 312.258 28.9107C312.258 27.9987 312.438 27.2007 312.798 26.5167C313.17 25.8327 313.674 25.2987 314.31 24.9147C314.958 24.5307 315.696 24.3387 316.524 24.3387C317.112 24.3387 317.64 24.4407 318.108 24.6447C318.588 24.8367 318.996 25.1187 319.332 25.4907C319.668 25.8627 319.92 26.3187 320.088 26.8587C320.268 27.3867 320.358 27.9867 320.358 28.6587C320.358 28.8507 320.298 29.0007 320.178 29.1087C320.07 29.2047 319.908 29.2527 319.692 29.2527H313.536V28.2087H319.278L318.972 28.4607C318.972 27.8367 318.876 27.3087 318.684 26.8767C318.504 26.4327 318.234 26.0967 317.874 25.8687C317.526 25.6407 317.088 25.5267 316.56 25.5267C315.984 25.5267 315.492 25.6647 315.084 25.9407C314.676 26.2047 314.364 26.5827 314.148 27.0747C313.932 27.5547 313.824 28.1127 313.824 28.7487V28.8567C313.824 29.9367 314.082 30.7527 314.598 31.3047C315.114 31.8567 315.858 32.1327 316.83 32.1327C317.214 32.1327 317.604 32.0847 318 31.9887C318.408 31.8927 318.798 31.7187 319.17 31.4667C319.35 31.3587 319.512 31.3107 319.656 31.3227C319.812 31.3227 319.938 31.3707 320.034 31.4667C320.13 31.5507 320.19 31.6587 320.214 31.7907C320.238 31.9107 320.22 32.0427 320.16 32.1867C320.1 32.3307 319.986 32.4567 319.818 32.5647C319.422 32.8407 318.948 33.0567 318.396 33.2127C317.856 33.3567 317.334 33.4287 316.83 33.4287ZM325.545 33.4287C324.777 33.4287 324.099 33.2487 323.511 32.8887C322.935 32.5167 322.485 31.9887 322.161 31.3047C321.837 30.6087 321.675 29.7987 321.675 28.8747C321.675 27.9387 321.831 27.1347 322.143 26.4627C322.467 25.7787 322.917 25.2567 323.493 24.8967C324.081 24.5247 324.765 24.3387 325.545 24.3387C326.325 24.3387 326.997 24.5367 327.561 24.9327C328.125 25.3167 328.503 25.8327 328.695 26.4807H328.497V21.2787C328.497 21.0027 328.563 20.7987 328.695 20.6667C328.839 20.5227 329.043 20.4507 329.307 20.4507C329.571 20.4507 329.775 20.5227 329.919 20.6667C330.063 20.7987 330.135 21.0027 330.135 21.2787V32.5467C330.135 32.8227 330.063 33.0327 329.919 33.1767C329.775 33.3207 329.571 33.3927 329.307 33.3927C329.055 33.3927 328.857 33.3207 328.713 33.1767C328.569 33.0327 328.497 32.8227 328.497 32.5467V30.9087L328.695 31.2327C328.515 31.9047 328.137 32.4387 327.561 32.8347C326.997 33.2307 326.325 33.4287 325.545 33.4287ZM325.923 32.1327C326.451 32.1327 326.907 32.0067 327.291 31.7547C327.687 31.5027 327.987 31.1367 328.191 30.6567C328.407 30.1767 328.515 29.5827 328.515 28.8747C328.515 27.8187 328.281 27.0147 327.813 26.4627C327.345 25.9107 326.715 25.6347 325.923 25.6347C325.407 25.6347 324.951 25.7607 324.555 26.0127C324.171 26.2527 323.871 26.6127 323.655 27.0927C323.439 27.5727 323.331 28.1667 323.331 28.8747C323.331 29.9307 323.565 30.7407 324.033 31.3047C324.513 31.8567 325.143 32.1327 325.923 32.1327Z" fill="black"/>
<rect x="1.5" y="3.83337" width="161.541" height="57.6667" rx="19.5" fill="#FDD8C1" stroke="#6B2F00" stroke-width="3"/>
<rect x="11.0983" y="1.5" width="151.943" height="49.7333" rx="19.5" fill="#F9EFE3" stroke="#6B2F00" stroke-width="3"/>
<path d="M19.0462 18.3967L21.3002 16.0867V24.5427L19.7602 23.3247H28.2442V27.1187H19.7602L21.3002 25.8027V35.2667H16.3162V14.6167H29.4902V18.3967H19.0462ZM32.0584 35.2667V14.6167H36.9864V35.2667H32.0584ZM48.3141 35.6167C46.6528 35.6167 45.1361 35.2154 43.7641 34.4127C42.4015 33.6007 41.3188 32.4107 40.5161 30.8427C39.7135 29.2654 39.3121 27.3194 39.3121 25.0047C39.3121 22.6994 39.7368 20.7487 40.5861 19.1527C41.4448 17.5567 42.5928 16.3481 44.0301 15.5267C45.4768 14.6961 47.0868 14.2807 48.8601 14.2807C50.3535 14.2807 51.6181 14.5187 52.6541 14.9947C53.6995 15.4614 54.5441 16.0634 55.1881 16.8007C55.8415 17.5381 56.3128 18.3127 56.6021 19.1247C56.9008 19.9367 57.0501 20.6787 57.0501 21.3507C57.0501 21.3787 57.0501 21.4067 57.0501 21.4347C57.0501 21.4627 57.0501 21.4907 57.0501 21.5187H52.1921C52.1921 21.4907 52.1921 21.4627 52.1921 21.4347C52.1921 21.4067 52.1921 21.3787 52.1921 21.3507C52.1921 20.9587 52.1175 20.5761 51.9681 20.2027C51.8281 19.8294 51.6135 19.4934 51.3241 19.1947C51.0348 18.8961 50.6848 18.6581 50.2741 18.4807C49.8635 18.3034 49.3921 18.2147 48.8601 18.2147C48.1415 18.2147 47.4368 18.4247 46.7461 18.8447C46.0648 19.2554 45.5001 19.9554 45.0521 20.9447C44.6135 21.9247 44.3941 23.2781 44.3941 25.0047C44.3941 26.3114 44.5201 27.3987 44.7721 28.2667C45.0241 29.1254 45.3555 29.8067 45.7661 30.3107C46.1861 30.8147 46.6575 31.1741 47.1801 31.3887C47.7028 31.5941 48.2348 31.6967 48.7761 31.6967C49.5321 31.6967 50.1715 31.5707 50.6941 31.3187C51.2261 31.0667 51.6461 30.7541 51.9541 30.3807C52.2621 30.0074 52.4581 29.6434 52.5421 29.2887V28.2247H48.7761V24.6967H56.9661V35.2667H54.5021L54.0261 32.9847C53.9608 33.1714 53.8021 33.4141 53.5501 33.7127C53.3075 34.0114 52.9621 34.3054 52.5141 34.5947C52.0661 34.8841 51.4921 35.1267 50.7921 35.3227C50.1015 35.5187 49.2755 35.6167 48.3141 35.6167ZM75.9079 27.8607C75.9079 30.4554 75.1939 32.3967 73.7659 33.6847C72.3472 34.9727 70.4059 35.6167 67.9419 35.6167C65.4779 35.6167 63.5366 34.9727 62.1179 33.6847C60.6992 32.3967 59.9899 30.4554 59.9899 27.8607C59.9899 27.5154 59.9899 27.1561 59.9899 26.7827C59.9899 26.4001 59.9899 26.0034 59.9899 25.5927V14.6167H65.0019V26.3487C65.0019 26.6474 65.0019 26.9321 65.0019 27.2027C65.0019 27.4734 65.0019 27.7301 65.0019 27.9727C65.0019 29.2234 65.2212 30.1567 65.6599 30.7727C66.1079 31.3887 66.8686 31.6967 67.9419 31.6967C69.0152 31.6967 69.7759 31.3887 70.2239 30.7727C70.6812 30.1567 70.9099 29.2234 70.9099 27.9727V14.6167H75.9079V27.8607ZM78.8499 35.2667V14.6167H87.6139C89.8725 14.6167 91.5479 15.1254 92.6399 16.1427C93.7412 17.1507 94.2919 18.5787 94.2919 20.4267C94.2919 21.4907 94.0912 22.3961 93.6899 23.1427C93.2885 23.8801 92.7892 24.4541 92.1919 24.8647C91.5945 25.2661 91.0112 25.4901 90.4419 25.5367C91.0299 25.5741 91.5805 25.7187 92.0939 25.9707C92.6165 26.2134 93.0365 26.6101 93.3539 27.1607C93.6805 27.7021 93.8439 28.4301 93.8439 29.3447C93.8439 29.9794 93.8439 30.5954 93.8439 31.1927C93.8439 31.7807 93.8439 32.3921 93.8439 33.0267C93.8439 33.5027 93.8812 33.9507 93.9559 34.3707C94.0305 34.7814 94.1425 35.0801 94.2919 35.2667H89.2939C89.1632 35.0521 89.0559 34.7441 88.9719 34.3427C88.8972 33.9414 88.8599 33.5027 88.8599 33.0267C88.8599 32.4667 88.8599 31.9487 88.8599 31.4727C88.8599 30.9967 88.8599 30.4787 88.8599 29.9187C88.8599 29.1441 88.6732 28.5374 88.2999 28.0987C87.9359 27.6601 87.3152 27.4407 86.4379 27.4407H82.4199L83.7359 25.8867V35.2667H78.8499ZM83.7359 25.4387L82.4199 23.6607H86.4939C87.0072 23.6607 87.4645 23.5487 87.8659 23.3247C88.2672 23.1007 88.5799 22.7834 88.8039 22.3727C89.0372 21.9527 89.1539 21.4627 89.1539 20.9027C89.1539 20.1561 88.9112 19.5494 88.4259 19.0827C87.9499 18.6161 87.2872 18.3827 86.4379 18.3827H82.2939L83.7359 16.8287V25.4387ZM95.8282 35.2667L100.798 14.6027H108.722L113.678 35.2667H108.554L104.76 17.6127H104.788L100.938 35.2667H95.8282ZM99.7762 30.7027V26.8807H109.772V30.7027H99.7762ZM122.878 35.6167C121.375 35.6167 120.036 35.3741 118.86 34.8887C117.684 34.4034 116.76 33.6847 116.088 32.7327C115.416 31.7714 115.08 30.5767 115.08 29.1487C115.08 29.0181 115.08 28.8921 115.08 28.7707C115.08 28.6494 115.08 28.5187 115.08 28.3787H120.078C120.078 28.5001 120.078 28.6167 120.078 28.7287C120.078 28.8314 120.078 28.9387 120.078 29.0507C120.078 29.8627 120.311 30.5067 120.778 30.9827C121.254 31.4587 121.968 31.6967 122.92 31.6967C123.863 31.6967 124.591 31.5521 125.104 31.2627C125.627 30.9734 125.888 30.4974 125.888 29.8347C125.888 29.3587 125.669 28.9294 125.23 28.5467C124.801 28.1641 124.217 27.8141 123.48 27.4967C122.743 27.1701 121.912 26.8667 120.988 26.5867C119.98 26.2694 119.037 25.8494 118.16 25.3267C117.283 24.7947 116.573 24.1181 116.032 23.2967C115.491 22.4661 115.22 21.4394 115.22 20.2167C115.22 18.9661 115.556 17.9021 116.228 17.0247C116.909 16.1381 117.824 15.4614 118.972 14.9947C120.129 14.5187 121.427 14.2807 122.864 14.2807C124.348 14.2807 125.669 14.5141 126.826 14.9807C127.993 15.4474 128.912 16.1381 129.584 17.0527C130.256 17.9674 130.592 19.0967 130.592 20.4407C130.592 20.5807 130.592 20.7114 130.592 20.8327C130.592 20.9541 130.592 21.0801 130.592 21.2107H125.608C125.608 21.1454 125.608 21.0614 125.608 20.9587C125.608 20.8467 125.608 20.7534 125.608 20.6787C125.608 19.9227 125.398 19.3207 124.978 18.8727C124.558 18.4154 123.872 18.1867 122.92 18.1867C121.996 18.1867 121.282 18.3547 120.778 18.6907C120.274 19.0267 120.022 19.5307 120.022 20.2027C120.022 20.6881 120.218 21.1034 120.61 21.4487C121.002 21.7941 121.539 22.1114 122.22 22.4007C122.901 22.6807 123.676 22.9747 124.544 23.2827C125.785 23.7121 126.873 24.1881 127.806 24.7107C128.739 25.2334 129.463 25.8867 129.976 26.6707C130.489 27.4547 130.746 28.4581 130.746 29.6807C130.746 30.9501 130.41 32.0281 129.738 32.9147C129.075 33.7921 128.151 34.4641 126.966 34.9307C125.781 35.3881 124.418 35.6167 122.878 35.6167ZM150.045 14.6167V35.2667H145.033V25.5367L147.287 26.8807H135.891L138.145 25.6067V35.2667H133.133V14.6167H138.145V24.4167L135.891 23.1007H147.287L145.033 24.4027V14.6167H150.045ZM152.949 35.2667V14.6167H157.877V35.2667H152.949Z" fill="black"/>
<rect x="1064.16" y="4.76672" width="58.2458" height="56.7333" rx="19.5" fill="#FDD8C1" stroke="#6B2F00" stroke-width="3"/>
<rect x="1073.76" y="1.5" width="48.6476" height="49.7333" rx="19.5" fill="#F9EFE3" stroke="#6B2F00" stroke-width="3"/>
<g clip-path="url(#clip1_133_1297)">
<path d="M1091.57 22.1667L1093.51 19.5222H1101.28L1103.23 22.1667M1091.57 22.1667V31.4222C1091.57 31.7729 1091.71 32.1092 1091.95 32.3572C1092.19 32.6051 1092.52 32.7444 1092.87 32.7444H1101.93C1102.27 32.7444 1102.6 32.6051 1102.85 32.3572C1103.09 32.1092 1103.23 31.7729 1103.23 31.4222V22.1667M1091.57 22.1667H1103.23M1099.99 24.8111C1099.99 25.5125 1099.71 26.1851 1099.23 26.681C1098.74 27.1769 1098.08 27.4555 1097.4 27.4555C1096.71 27.4555 1096.05 27.1769 1095.57 26.681C1095.08 26.1851 1094.81 25.5125 1094.81 24.8111" stroke="#1E1E1E" stroke-width="1.6" stroke-linecap="round" stroke-linejoin="round"/>
</g>
<defs>
<clipPath id="clip0_133_1297">
<rect width="15.54" height="15.8667" fill="white" transform="translate(1166.87 18.6666)"/>
</clipPath>
<clipPath id="clip1_133_1297">
<rect width="15.54" height="15.8667" fill="white" transform="translate(1089.63 18.2)"/>
</clipPath>
</defs>
</svg>
