<svg width="166" height="63" viewBox="0 0 166 63" fill="none" xmlns="http://www.w3.org/2000/svg">
<rect x="2.12402" y="3.83331" width="161.541" height="57.6667" rx="19.5" fill="#FDD8C1" stroke="#6B2F00" stroke-width="3"/>
<rect x="11.7223" y="1.5" width="151.943" height="49.7333" rx="19.5" fill="#F9EFE3" stroke="#6B2F00" stroke-width="3"/>
<path d="M25.2436 33.3927C25.0036 33.3927 24.8116 33.3207 24.6676 33.1767C24.5356 33.0327 24.4696 32.8347 24.4696 32.5827V21.2967C24.4696 21.0207 24.5356 20.8107 24.6676 20.6667C24.7996 20.5227 24.9736 20.4507 25.1896 20.4507C25.3936 20.4507 25.5496 20.4867 25.6576 20.5587C25.7656 20.6307 25.8856 20.7567 26.0176 20.9367L33.6496 31.0527H33.1996V21.2607C33.1996 20.9967 33.2656 20.7987 33.3976 20.6667C33.5416 20.5227 33.7396 20.4507 33.9916 20.4507C34.2436 20.4507 34.4356 20.5227 34.5676 20.6667C34.6996 20.7987 34.7656 20.9967 34.7656 21.2607V32.5827C34.7656 32.8347 34.6996 33.0327 34.5676 33.1767C34.4476 33.3207 34.2856 33.3927 34.0816 33.3927C33.8896 33.3927 33.7276 33.3507 33.5956 33.2667C33.4756 33.1947 33.3496 33.0687 33.2176 32.8887L25.6036 22.7727H26.0176V32.5827C26.0176 32.8347 25.9516 33.0327 25.8196 33.1767C25.6876 33.3207 25.4956 33.3927 25.2436 33.3927ZM41.4474 33.4287C40.4994 33.4287 39.6834 33.2487 38.9994 32.8887C38.3274 32.5167 37.8054 31.9947 37.4334 31.3227C37.0614 30.6387 36.8754 29.8347 36.8754 28.9107C36.8754 27.9987 37.0554 27.2007 37.4154 26.5167C37.7874 25.8327 38.2914 25.2987 38.9274 24.9147C39.5754 24.5307 40.3134 24.3387 41.1414 24.3387C41.7294 24.3387 42.2574 24.4407 42.7254 24.6447C43.2054 24.8367 43.6134 25.1187 43.9494 25.4907C44.2854 25.8627 44.5374 26.3187 44.7054 26.8587C44.8854 27.3867 44.9754 27.9867 44.9754 28.6587C44.9754 28.8507 44.9154 29.0007 44.7954 29.1087C44.6874 29.2047 44.5254 29.2527 44.3094 29.2527H38.1534V28.2087H43.8954L43.5894 28.4607C43.5894 27.8367 43.4934 27.3087 43.3014 26.8767C43.1214 26.4327 42.8514 26.0967 42.4914 25.8687C42.1434 25.6407 41.7054 25.5267 41.1774 25.5267C40.6014 25.5267 40.1094 25.6647 39.7014 25.9407C39.2934 26.2047 38.9814 26.5827 38.7654 27.0747C38.5494 27.5547 38.4414 28.1127 38.4414 28.7487V28.8567C38.4414 29.9367 38.6994 30.7527 39.2154 31.3047C39.7314 31.8567 40.4754 32.1327 41.4474 32.1327C41.8314 32.1327 42.2214 32.0847 42.6174 31.9887C43.0254 31.8927 43.4154 31.7187 43.7874 31.4667C43.9674 31.3587 44.1294 31.3107 44.2734 31.3227C44.4294 31.3227 44.5554 31.3707 44.6514 31.4667C44.7474 31.5507 44.8074 31.6587 44.8314 31.7907C44.8554 31.9107 44.8374 32.0427 44.7774 32.1867C44.7174 32.3307 44.6034 32.4567 44.4354 32.5647C44.0394 32.8407 43.5654 33.0567 43.0134 33.2127C42.4734 33.3567 41.9514 33.4287 41.4474 33.4287ZM49.8056 33.3927C49.5776 33.3927 49.3796 33.3387 49.2116 33.2307C49.0436 33.1107 48.9116 32.9187 48.8156 32.6547L46.1336 25.5087C46.0496 25.2807 46.0256 25.0827 46.0616 24.9147C46.0976 24.7467 46.1816 24.6147 46.3136 24.5187C46.4456 24.4227 46.6196 24.3747 46.8356 24.3747C47.0396 24.3747 47.2016 24.4227 47.3216 24.5187C47.4416 24.6147 47.5436 24.7887 47.6276 25.0407L50.0756 31.9527H49.6436L52.1636 25.0047C52.2476 24.7887 52.3556 24.6327 52.4876 24.5367C52.6316 24.4287 52.8056 24.3747 53.0096 24.3747C53.2256 24.3747 53.4056 24.4287 53.5496 24.5367C53.6936 24.6327 53.7956 24.7887 53.8556 25.0047L56.3396 31.9527H55.9256L58.4096 25.0047C58.4936 24.7647 58.6016 24.6027 58.7336 24.5187C58.8656 24.4227 59.0276 24.3747 59.2196 24.3747C59.4356 24.3747 59.5976 24.4287 59.7056 24.5367C59.8136 24.6447 59.8736 24.7887 59.8856 24.9687C59.9096 25.1367 59.8856 25.3167 59.8136 25.5087L57.1316 32.6547C57.0476 32.9067 56.9156 33.0927 56.7356 33.2127C56.5676 33.3327 56.3696 33.3927 56.1416 33.3927C55.9136 33.3927 55.7096 33.3327 55.5296 33.2127C55.3616 33.0927 55.2296 32.9067 55.1336 32.6547L52.5596 25.5987H53.3876L50.8136 32.6547C50.7176 32.9067 50.5856 33.0927 50.4176 33.2127C50.2496 33.3327 50.0456 33.3927 49.8056 33.3927ZM70.0825 33.4287C69.2305 33.4287 68.4925 33.2967 67.8685 33.0327C67.2565 32.7567 66.7825 32.3787 66.4465 31.8987C66.1225 31.4067 65.9605 30.8307 65.9605 30.1707C65.9605 29.7747 66.0145 29.4027 66.1225 29.0547C66.2305 28.7067 66.3925 28.3827 66.6085 28.0827C66.8365 27.7707 67.1125 27.4707 67.4365 27.1827C67.7725 26.8947 68.1565 26.6127 68.5885 26.3367L69.1825 25.9587L68.9485 26.3007C68.3845 25.7007 67.9825 25.1727 67.7425 24.7167C67.5145 24.2487 67.4005 23.7627 67.4005 23.2587C67.4005 22.6947 67.5325 22.2027 67.7965 21.7827C68.0605 21.3507 68.4325 21.0147 68.9125 20.7747C69.4045 20.5347 69.9745 20.4147 70.6225 20.4147C71.4865 20.4147 72.1885 20.6487 72.7285 21.1167C73.2685 21.5847 73.5385 22.2207 73.5385 23.0247C73.5385 23.4687 73.4485 23.8827 73.2685 24.2667C73.1005 24.6507 72.8185 25.0287 72.4225 25.4007C72.0265 25.7727 71.4865 26.1687 70.8025 26.5887L70.8205 26.1747L74.1145 29.8287H73.7545C73.9225 29.5407 74.0665 29.2167 74.1865 28.8567C74.3185 28.4967 74.4265 28.1067 74.5105 27.6867C74.6065 27.2667 74.6725 26.8227 74.7085 26.3547C74.7445 26.1267 74.8225 25.9587 74.9425 25.8507C75.0625 25.7307 75.2305 25.6707 75.4465 25.6707C75.6745 25.6707 75.8485 25.7367 75.9685 25.8687C76.0885 26.0007 76.1365 26.1867 76.1125 26.4267C76.0645 27.0267 75.9745 27.5967 75.8425 28.1367C75.7105 28.6647 75.5485 29.1567 75.3565 29.6127C75.1645 30.0687 74.9485 30.4827 74.7085 30.8547L74.6905 30.4047L76.4725 32.3127C76.6405 32.4807 76.7185 32.6487 76.7065 32.8167C76.7065 32.9847 76.6405 33.1227 76.5085 33.2307C76.3765 33.3387 76.2025 33.3927 75.9865 33.3927C75.7945 33.3927 75.6385 33.3567 75.5185 33.2847C75.3985 33.2127 75.2665 33.0987 75.1225 32.9427L73.7905 31.4847H74.2045C73.7005 32.0967 73.0885 32.5767 72.3685 32.9247C71.6605 33.2607 70.8985 33.4287 70.0825 33.4287ZM70.1545 32.0967C70.8265 32.0967 71.4205 31.9647 71.9365 31.7007C72.4525 31.4247 72.9085 31.0167 73.3045 30.4767L73.2685 30.9627L69.4705 26.8767L70.1185 26.9127L69.5785 27.2727C69.0985 27.5847 68.7085 27.8847 68.4085 28.1727C68.1205 28.4487 67.9105 28.7367 67.7785 29.0367C67.6465 29.3367 67.5805 29.6787 67.5805 30.0627C67.5805 30.6987 67.8025 31.1967 68.2465 31.5567C68.6905 31.9167 69.3265 32.0967 70.1545 32.0967ZM70.6225 21.6387C70.1185 21.6387 69.7105 21.7887 69.3985 22.0887C69.0865 22.3767 68.9305 22.7607 68.9305 23.2407C68.9305 23.4807 68.9665 23.7147 69.0385 23.9427C69.1225 24.1587 69.2605 24.3987 69.4525 24.6627C69.6565 24.9147 69.9385 25.2387 70.2985 25.6347L69.8845 25.6527C70.4365 25.3047 70.8745 24.9987 71.1985 24.7347C71.5225 24.4587 71.7565 24.1947 71.9005 23.9427C72.0445 23.6787 72.1165 23.4027 72.1165 23.1147C72.1165 22.6587 71.9785 22.2987 71.7025 22.0347C71.4265 21.7707 71.0665 21.6387 70.6225 21.6387ZM84.1929 33.3927C83.9169 33.3927 83.7009 33.3147 83.5449 33.1587C83.3889 33.0027 83.3109 32.7807 83.3109 32.4927V21.4767C83.3109 21.1887 83.3889 20.9667 83.5449 20.8107C83.7009 20.6547 83.9229 20.5767 84.2109 20.5767H90.6729C90.9129 20.5767 91.0929 20.6367 91.2129 20.7567C91.3329 20.8647 91.3929 21.0267 91.3929 21.2427C91.3929 21.4707 91.3329 21.6447 91.2129 21.7647C91.0929 21.8847 90.9129 21.9447 90.6729 21.9447H84.9849V26.1927H90.3129C90.5409 26.1927 90.7149 26.2527 90.8349 26.3727C90.9549 26.4927 91.0149 26.6547 91.0149 26.8587C91.0149 27.0867 90.9549 27.2607 90.8349 27.3807C90.7149 27.5007 90.5409 27.5607 90.3129 27.5607H84.9849V32.4927C84.9849 33.0927 84.7209 33.3927 84.1929 33.3927ZM96.527 33.4287C95.579 33.4287 94.763 33.2487 94.079 32.8887C93.407 32.5167 92.885 31.9947 92.513 31.3227C92.141 30.6387 91.955 29.8347 91.955 28.9107C91.955 27.9987 92.135 27.2007 92.495 26.5167C92.867 25.8327 93.371 25.2987 94.007 24.9147C94.655 24.5307 95.393 24.3387 96.221 24.3387C96.809 24.3387 97.337 24.4407 97.805 24.6447C98.285 24.8367 98.693 25.1187 99.029 25.4907C99.365 25.8627 99.617 26.3187 99.785 26.8587C99.965 27.3867 100.055 27.9867 100.055 28.6587C100.055 28.8507 99.995 29.0007 99.875 29.1087C99.767 29.2047 99.605 29.2527 99.389 29.2527H93.233V28.2087H98.975L98.669 28.4607C98.669 27.8367 98.573 27.3087 98.381 26.8767C98.201 26.4327 97.931 26.0967 97.571 25.8687C97.223 25.6407 96.785 25.5267 96.257 25.5267C95.681 25.5267 95.189 25.6647 94.781 25.9407C94.373 26.2047 94.061 26.5827 93.845 27.0747C93.629 27.5547 93.521 28.1127 93.521 28.7487V28.8567C93.521 29.9367 93.779 30.7527 94.295 31.3047C94.811 31.8567 95.555 32.1327 96.527 32.1327C96.911 32.1327 97.301 32.0847 97.697 31.9887C98.105 31.8927 98.495 31.7187 98.867 31.4667C99.047 31.3587 99.209 31.3107 99.353 31.3227C99.509 31.3227 99.635 31.3707 99.731 31.4667C99.827 31.5507 99.887 31.6587 99.911 31.7907C99.935 31.9107 99.917 32.0427 99.857 32.1867C99.797 32.3307 99.683 32.4567 99.515 32.5647C99.119 32.8407 98.645 33.0567 98.093 33.2127C97.553 33.3567 97.031 33.4287 96.527 33.4287ZM104.684 33.4287C104.084 33.4287 103.538 33.3087 103.046 33.0687C102.566 32.8287 102.188 32.5047 101.912 32.0967C101.648 31.6887 101.516 31.2327 101.516 30.7287C101.516 30.0807 101.678 29.5707 102.002 29.1987C102.326 28.8267 102.872 28.5627 103.64 28.4067C104.408 28.2387 105.44 28.1547 106.736 28.1547H107.582V29.1987H106.772C105.848 29.1987 105.116 29.2407 104.576 29.3247C104.048 29.4087 103.676 29.5587 103.46 29.7747C103.244 29.9787 103.136 30.2667 103.136 30.6387C103.136 31.1067 103.298 31.4907 103.622 31.7907C103.958 32.0907 104.414 32.2407 104.99 32.2407C105.446 32.2407 105.848 32.1327 106.196 31.9167C106.544 31.6887 106.82 31.3887 107.024 31.0167C107.228 30.6327 107.33 30.1947 107.33 29.7027V27.6327C107.33 26.9247 107.186 26.4147 106.898 26.1027C106.61 25.7787 106.124 25.6167 105.44 25.6167C105.044 25.6167 104.636 25.6707 104.216 25.7787C103.796 25.8867 103.358 26.0547 102.902 26.2827C102.722 26.3667 102.566 26.3967 102.434 26.3727C102.302 26.3367 102.194 26.2647 102.11 26.1567C102.038 26.0367 101.996 25.9107 101.984 25.7787C101.984 25.6347 102.014 25.4967 102.074 25.3647C102.146 25.2327 102.266 25.1367 102.434 25.0767C102.962 24.8127 103.484 24.6267 104 24.5187C104.528 24.3987 105.02 24.3387 105.476 24.3387C106.256 24.3387 106.898 24.4647 107.402 24.7167C107.906 24.9567 108.284 25.3347 108.536 25.8507C108.788 26.3547 108.914 27.0027 108.914 27.7947V32.5467C108.914 32.8227 108.848 33.0327 108.716 33.1767C108.584 33.3207 108.392 33.3927 108.14 33.3927C107.9 33.3927 107.708 33.3207 107.564 33.1767C107.432 33.0327 107.366 32.8227 107.366 32.5467V31.2687H107.528C107.432 31.7127 107.252 32.0967 106.988 32.4207C106.724 32.7447 106.394 32.9967 105.998 33.1767C105.614 33.3447 105.176 33.4287 104.684 33.4287ZM114.93 33.4287C114.222 33.4287 113.628 33.3027 113.148 33.0507C112.68 32.7987 112.326 32.4327 112.086 31.9527C111.858 31.4727 111.744 30.8847 111.744 30.1887V25.7607H110.592C110.376 25.7607 110.208 25.7067 110.088 25.5987C109.968 25.4787 109.908 25.3227 109.908 25.1307C109.908 24.9267 109.968 24.7707 110.088 24.6627C110.208 24.5547 110.376 24.5007 110.592 24.5007H111.744V22.5387C111.744 22.2627 111.816 22.0587 111.96 21.9267C112.104 21.7827 112.308 21.7107 112.572 21.7107C112.836 21.7107 113.034 21.7827 113.166 21.9267C113.31 22.0587 113.382 22.2627 113.382 22.5387V24.5007H115.56C115.788 24.5007 115.962 24.5547 116.082 24.6627C116.202 24.7707 116.262 24.9267 116.262 25.1307C116.262 25.3227 116.202 25.4787 116.082 25.5987C115.962 25.7067 115.788 25.7607 115.56 25.7607H113.382V30.0447C113.382 30.7047 113.52 31.2027 113.796 31.5387C114.072 31.8747 114.528 32.0427 115.164 32.0427C115.392 32.0427 115.584 32.0247 115.74 31.9887C115.896 31.9407 116.034 31.9167 116.154 31.9167C116.262 31.9047 116.352 31.9407 116.424 32.0247C116.508 32.1087 116.55 32.2647 116.55 32.4927C116.55 32.6607 116.52 32.8167 116.46 32.9607C116.412 33.0927 116.31 33.1827 116.154 33.2307C116.01 33.2787 115.818 33.3207 115.578 33.3567C115.338 33.4047 115.122 33.4287 114.93 33.4287ZM120.679 33.4287C119.971 33.4287 119.377 33.2967 118.897 33.0327C118.429 32.7687 118.081 32.3787 117.853 31.8627C117.625 31.3467 117.511 30.6987 117.511 29.9187V25.2027C117.511 24.9267 117.577 24.7227 117.709 24.5907C117.853 24.4467 118.057 24.3747 118.321 24.3747C118.585 24.3747 118.789 24.4467 118.933 24.5907C119.077 24.7227 119.149 24.9267 119.149 25.2027V29.9187C119.149 30.6627 119.299 31.2147 119.599 31.5747C119.899 31.9227 120.373 32.0967 121.021 32.0967C121.741 32.0967 122.323 31.8567 122.767 31.3767C123.223 30.8967 123.451 30.2607 123.451 29.4687V25.2027C123.451 24.9267 123.517 24.7227 123.649 24.5907C123.793 24.4467 123.997 24.3747 124.261 24.3747C124.525 24.3747 124.729 24.4467 124.873 24.5907C125.017 24.7227 125.089 24.9267 125.089 25.2027V32.5467C125.089 33.1107 124.825 33.3927 124.297 33.3927C124.033 33.3927 123.829 33.3207 123.685 33.1767C123.553 33.0327 123.487 32.8227 123.487 32.5467V30.9807L123.721 31.2867C123.481 31.9827 123.091 32.5167 122.551 32.8887C122.023 33.2487 121.399 33.4287 120.679 33.4287ZM128.373 33.3927C128.097 33.3927 127.887 33.3207 127.743 33.1767C127.599 33.0327 127.527 32.8227 127.527 32.5467V25.2027C127.527 24.9267 127.599 24.7227 127.743 24.5907C127.887 24.4467 128.085 24.3747 128.337 24.3747C128.589 24.3747 128.781 24.4467 128.913 24.5907C129.057 24.7227 129.129 24.9267 129.129 25.2027V26.5887H128.949C129.141 25.8687 129.501 25.3227 130.029 24.9507C130.557 24.5787 131.223 24.3687 132.027 24.3207C132.219 24.3087 132.375 24.3567 132.495 24.4647C132.615 24.5607 132.681 24.7287 132.693 24.9687C132.705 25.1967 132.651 25.3827 132.531 25.5267C132.411 25.6587 132.225 25.7367 131.973 25.7607L131.649 25.7787C130.857 25.8627 130.245 26.1207 129.813 26.5527C129.393 26.9847 129.183 27.5787 129.183 28.3347V32.5467C129.183 32.8227 129.111 33.0327 128.967 33.1767C128.835 33.3207 128.637 33.3927 128.373 33.3927ZM137.83 33.4287C136.882 33.4287 136.066 33.2487 135.382 32.8887C134.71 32.5167 134.188 31.9947 133.816 31.3227C133.444 30.6387 133.258 29.8347 133.258 28.9107C133.258 27.9987 133.438 27.2007 133.798 26.5167C134.17 25.8327 134.674 25.2987 135.31 24.9147C135.958 24.5307 136.696 24.3387 137.524 24.3387C138.112 24.3387 138.64 24.4407 139.108 24.6447C139.588 24.8367 139.996 25.1187 140.332 25.4907C140.668 25.8627 140.92 26.3187 141.088 26.8587C141.268 27.3867 141.358 27.9867 141.358 28.6587C141.358 28.8507 141.298 29.0007 141.178 29.1087C141.07 29.2047 140.908 29.2527 140.692 29.2527H134.536V28.2087H140.278L139.972 28.4607C139.972 27.8367 139.876 27.3087 139.684 26.8767C139.504 26.4327 139.234 26.0967 138.874 25.8687C138.526 25.6407 138.088 25.5267 137.56 25.5267C136.984 25.5267 136.492 25.6647 136.084 25.9407C135.676 26.2047 135.364 26.5827 135.148 27.0747C134.932 27.5547 134.824 28.1127 134.824 28.7487V28.8567C134.824 29.9367 135.082 30.7527 135.598 31.3047C136.114 31.8567 136.858 32.1327 137.83 32.1327C138.214 32.1327 138.604 32.0847 139 31.9887C139.408 31.8927 139.798 31.7187 140.17 31.4667C140.35 31.3587 140.512 31.3107 140.656 31.3227C140.812 31.3227 140.938 31.3707 141.034 31.4667C141.13 31.5507 141.19 31.6587 141.214 31.7907C141.238 31.9107 141.22 32.0427 141.16 32.1867C141.1 32.3307 140.986 32.4567 140.818 32.5647C140.422 32.8407 139.948 33.0567 139.396 33.2127C138.856 33.3567 138.334 33.4287 137.83 33.4287ZM146.545 33.4287C145.777 33.4287 145.099 33.2487 144.511 32.8887C143.935 32.5167 143.485 31.9887 143.161 31.3047C142.837 30.6087 142.675 29.7987 142.675 28.8747C142.675 27.9387 142.831 27.1347 143.143 26.4627C143.467 25.7787 143.917 25.2567 144.493 24.8967C145.081 24.5247 145.765 24.3387 146.545 24.3387C147.325 24.3387 147.997 24.5367 148.561 24.9327C149.125 25.3167 149.503 25.8327 149.695 26.4807H149.497V21.2787C149.497 21.0027 149.563 20.7987 149.695 20.6667C149.839 20.5227 150.043 20.4507 150.307 20.4507C150.571 20.4507 150.775 20.5227 150.919 20.6667C151.063 20.7987 151.135 21.0027 151.135 21.2787V32.5467C151.135 32.8227 151.063 33.0327 150.919 33.1767C150.775 33.3207 150.571 33.3927 150.307 33.3927C150.055 33.3927 149.857 33.3207 149.713 33.1767C149.569 33.0327 149.497 32.8227 149.497 32.5467V30.9087L149.695 31.2327C149.515 31.9047 149.137 32.4387 148.561 32.8347C147.997 33.2307 147.325 33.4287 146.545 33.4287ZM146.923 32.1327C147.451 32.1327 147.907 32.0067 148.291 31.7547C148.687 31.5027 148.987 31.1367 149.191 30.6567C149.407 30.1767 149.515 29.5827 149.515 28.8747C149.515 27.8187 149.281 27.0147 148.813 26.4627C148.345 25.9107 147.715 25.6347 146.923 25.6347C146.407 25.6347 145.951 25.7607 145.555 26.0127C145.171 26.2527 144.871 26.6127 144.655 27.0927C144.439 27.5727 144.331 28.1667 144.331 28.8747C144.331 29.9307 144.565 30.7407 145.033 31.3047C145.513 31.8567 146.143 32.1327 146.923 32.1327Z" fill="black"/>
</svg>
