<svg width="165" height="63" viewBox="0 0 165 63" fill="none" xmlns="http://www.w3.org/2000/svg">
<rect x="1.53723" y="3.83331" width="161.541" height="57.6667" rx="19.5" fill="#FDD8C1" stroke="#6B2F00" stroke-width="3"/>
<rect x="11.1355" y="1.5" width="151.943" height="49.7333" rx="19.5" fill="#F9EFE3" stroke="#6B2F00" stroke-width="3"/>
<path d="M25.598 33.4287C25.034 33.4287 24.488 33.3807 23.96 33.2847C23.432 33.2007 22.934 33.0687 22.466 32.8887C21.998 32.7087 21.578 32.4867 21.206 32.2227C21.05 32.1147 20.936 31.9827 20.864 31.8267C20.804 31.6707 20.786 31.5207 20.81 31.3767C20.846 31.2207 20.912 31.0887 21.008 30.9807C21.116 30.8727 21.242 30.8067 21.386 30.7827C21.53 30.7587 21.686 30.8067 21.854 30.9267C22.406 31.2987 22.982 31.5687 23.582 31.7367C24.194 31.9047 24.866 31.9887 25.598 31.9887C26.654 31.9887 27.428 31.7967 27.92 31.4127C28.424 31.0287 28.676 30.5247 28.676 29.9007C28.676 29.3847 28.496 28.9827 28.136 28.6947C27.776 28.3947 27.17 28.1607 26.318 27.9927L24.41 27.5967C23.282 27.3567 22.436 26.9607 21.872 26.4087C21.32 25.8567 21.044 25.1187 21.044 24.1947C21.044 23.6307 21.158 23.1207 21.386 22.6647C21.614 22.1967 21.938 21.7947 22.358 21.4587C22.778 21.1227 23.27 20.8647 23.834 20.6847C24.41 20.5047 25.046 20.4147 25.742 20.4147C26.486 20.4147 27.182 20.5167 27.83 20.7207C28.49 20.9247 29.084 21.2247 29.612 21.6207C29.756 21.7287 29.852 21.8607 29.9 22.0167C29.948 22.1607 29.954 22.3047 29.918 22.4487C29.894 22.5927 29.828 22.7127 29.72 22.8087C29.624 22.9047 29.498 22.9587 29.342 22.9707C29.198 22.9827 29.036 22.9287 28.856 22.8087C28.376 22.4727 27.884 22.2327 27.38 22.0887C26.876 21.9327 26.324 21.8547 25.724 21.8547C25.112 21.8547 24.578 21.9507 24.122 22.1427C23.678 22.3347 23.33 22.6047 23.078 22.9527C22.838 23.2887 22.718 23.6847 22.718 24.1407C22.718 24.6927 22.886 25.1247 23.222 25.4367C23.558 25.7487 24.122 25.9887 24.914 26.1567L26.804 26.5347C28.004 26.7867 28.892 27.1767 29.468 27.7047C30.056 28.2207 30.35 28.9167 30.35 29.7927C30.35 30.3447 30.236 30.8427 30.008 31.2867C29.792 31.7307 29.48 32.1147 29.072 32.4387C28.664 32.7507 28.166 32.9967 27.578 33.1767C26.99 33.3447 26.33 33.4287 25.598 33.4287ZM32.9629 33.3567C32.7109 33.3567 32.5129 33.2787 32.3689 33.1227C32.2249 32.9667 32.1529 32.7507 32.1529 32.4747V25.2927C32.1529 25.0047 32.2249 24.7887 32.3689 24.6447C32.5129 24.4887 32.7109 24.4107 32.9629 24.4107C33.2269 24.4107 33.4309 24.4887 33.5749 24.6447C33.7189 24.7887 33.7909 25.0047 33.7909 25.2927V32.4747C33.7909 32.7507 33.7189 32.9667 33.5749 33.1227C33.4429 33.2787 33.2389 33.3567 32.9629 33.3567ZM32.9629 22.4667C32.6389 22.4667 32.3809 22.3827 32.1889 22.2147C32.0089 22.0347 31.9189 21.8007 31.9189 21.5127C31.9189 21.2007 32.0089 20.9667 32.1889 20.8107C32.3809 20.6427 32.6389 20.5587 32.9629 20.5587C33.3109 20.5587 33.5689 20.6427 33.7369 20.8107C33.9169 20.9667 34.0069 21.2007 34.0069 21.5127C34.0069 21.8007 33.9169 22.0347 33.7369 22.2147C33.5689 22.3827 33.3109 22.4667 32.9629 22.4667ZM40.1684 36.6687C39.5204 36.6687 38.8904 36.5967 38.2784 36.4527C37.6784 36.3087 37.1324 36.0867 36.6404 35.7867C36.4844 35.6907 36.3764 35.5767 36.3164 35.4447C36.2684 35.3247 36.2564 35.1987 36.2804 35.0667C36.3164 34.9347 36.3764 34.8147 36.4604 34.7067C36.5564 34.6107 36.6644 34.5447 36.7844 34.5087C36.9164 34.4847 37.0484 34.5147 37.1804 34.5987C37.7084 34.8987 38.2124 35.1027 38.6924 35.2107C39.1724 35.3187 39.6284 35.3727 40.0604 35.3727C40.9124 35.3727 41.5484 35.1507 41.9684 34.7067C42.4004 34.2747 42.6164 33.6387 42.6164 32.7987V30.8547H42.7784C42.6104 31.5267 42.2324 32.0607 41.6444 32.4567C41.0684 32.8527 40.3964 33.0507 39.6284 33.0507C38.8364 33.0507 38.1464 32.8707 37.5584 32.5107C36.9704 32.1387 36.5144 31.6287 36.1904 30.9807C35.8664 30.3207 35.7044 29.5587 35.7044 28.6947C35.7044 28.0347 35.7944 27.4407 35.9744 26.9127C36.1664 26.3727 36.4304 25.9167 36.7664 25.5447C37.1144 25.1607 37.5284 24.8667 38.0084 24.6627C38.4884 24.4467 39.0284 24.3387 39.6284 24.3387C40.4084 24.3387 41.0864 24.5367 41.6624 24.9327C42.2384 25.3287 42.6104 25.8627 42.7784 26.5347L42.5804 26.7867V25.2027C42.5804 24.9267 42.6524 24.7227 42.7964 24.5907C42.9404 24.4467 43.1444 24.3747 43.4084 24.3747C43.6604 24.3747 43.8584 24.4467 44.0024 24.5907C44.1464 24.7227 44.2184 24.9267 44.2184 25.2027V32.5827C44.2184 33.9387 43.8704 34.9587 43.1744 35.6427C42.4904 36.3267 41.4884 36.6687 40.1684 36.6687ZM39.9884 31.7547C40.5284 31.7547 40.9904 31.6347 41.3744 31.3947C41.7704 31.1427 42.0704 30.7887 42.2744 30.3327C42.4904 29.8647 42.5984 29.3187 42.5984 28.6947C42.5984 27.7467 42.3644 27.0027 41.8964 26.4627C41.4284 25.9107 40.7924 25.6347 39.9884 25.6347C39.4484 25.6347 38.9804 25.7607 38.5844 26.0127C38.2004 26.2527 37.9004 26.6007 37.6844 27.0567C37.4684 27.5127 37.3604 28.0587 37.3604 28.6947C37.3604 29.6307 37.5944 30.3747 38.0624 30.9267C38.5424 31.4787 39.1844 31.7547 39.9884 31.7547ZM47.4556 33.3927C47.2036 33.3927 47.0056 33.3207 46.8616 33.1767C46.7176 33.0327 46.6456 32.8227 46.6456 32.5467V25.2027C46.6456 24.9267 46.7176 24.7227 46.8616 24.5907C47.0056 24.4467 47.2036 24.3747 47.4556 24.3747C47.7076 24.3747 47.8996 24.4467 48.0316 24.5907C48.1756 24.7227 48.2476 24.9267 48.2476 25.2027V26.6787L48.0496 26.4087C48.3016 25.7247 48.7096 25.2087 49.2736 24.8607C49.8496 24.5127 50.5036 24.3387 51.2356 24.3387C51.9436 24.3387 52.5256 24.4647 52.9816 24.7167C53.4376 24.9687 53.7796 25.3527 54.0076 25.8687C54.2356 26.3847 54.3496 27.0387 54.3496 27.8307V32.5467C54.3496 32.8227 54.2776 33.0327 54.1336 33.1767C54.0016 33.3207 53.8036 33.3927 53.5396 33.3927C53.2756 33.3927 53.0716 33.3207 52.9276 33.1767C52.7836 33.0327 52.7116 32.8227 52.7116 32.5467V27.9207C52.7116 27.1407 52.5616 26.5707 52.2616 26.2107C51.9616 25.8507 51.4816 25.6707 50.8216 25.6707C50.0536 25.6707 49.4356 25.9107 48.9676 26.3907C48.5116 26.8587 48.2836 27.4947 48.2836 28.2987V32.5467C48.2836 33.1107 48.0076 33.3927 47.4556 33.3927ZM62.0537 33.3567C61.8017 33.3567 61.6037 33.2787 61.4597 33.1227C61.3157 32.9667 61.2437 32.7507 61.2437 32.4747V25.2927C61.2437 25.0047 61.3157 24.7887 61.4597 24.6447C61.6037 24.4887 61.8017 24.4107 62.0537 24.4107C62.3177 24.4107 62.5217 24.4887 62.6657 24.6447C62.8097 24.7887 62.8817 25.0047 62.8817 25.2927V32.4747C62.8817 32.7507 62.8097 32.9667 62.6657 33.1227C62.5337 33.2787 62.3297 33.3567 62.0537 33.3567ZM62.0537 22.4667C61.7297 22.4667 61.4717 22.3827 61.2797 22.2147C61.0997 22.0347 61.0097 21.8007 61.0097 21.5127C61.0097 21.2007 61.0997 20.9667 61.2797 20.8107C61.4717 20.6427 61.7297 20.5587 62.0537 20.5587C62.4017 20.5587 62.6597 20.6427 62.8277 20.8107C63.0077 20.9667 63.0977 21.2007 63.0977 21.5127C63.0977 21.8007 63.0077 22.0347 62.8277 22.2147C62.6597 22.3827 62.4017 22.4667 62.0537 22.4667ZM66.1272 33.3927C65.8752 33.3927 65.6772 33.3207 65.5332 33.1767C65.3892 33.0327 65.3172 32.8227 65.3172 32.5467V25.2027C65.3172 24.9267 65.3892 24.7227 65.5332 24.5907C65.6772 24.4467 65.8752 24.3747 66.1272 24.3747C66.3792 24.3747 66.5712 24.4467 66.7032 24.5907C66.8472 24.7227 66.9192 24.9267 66.9192 25.2027V26.6787L66.7212 26.4087C66.9732 25.7247 67.3812 25.2087 67.9452 24.8607C68.5212 24.5127 69.1752 24.3387 69.9072 24.3387C70.6152 24.3387 71.1972 24.4647 71.6532 24.7167C72.1092 24.9687 72.4512 25.3527 72.6792 25.8687C72.9072 26.3847 73.0212 27.0387 73.0212 27.8307V32.5467C73.0212 32.8227 72.9492 33.0327 72.8052 33.1767C72.6732 33.3207 72.4752 33.3927 72.2112 33.3927C71.9472 33.3927 71.7432 33.3207 71.5992 33.1767C71.4552 33.0327 71.3832 32.8227 71.3832 32.5467V27.9207C71.3832 27.1407 71.2332 26.5707 70.9332 26.2107C70.6332 25.8507 70.1532 25.6707 69.4932 25.6707C68.7252 25.6707 68.1072 25.9107 67.6392 26.3907C67.1832 26.8587 66.9552 27.4947 66.9552 28.2987V32.5467C66.9552 33.1107 66.6792 33.3927 66.1272 33.3927ZM79.7173 33.8607C79.6573 34.0407 79.5673 34.1667 79.4473 34.2387C79.3393 34.3107 79.2133 34.3467 79.0693 34.3467C78.9253 34.3467 78.7933 34.3107 78.6733 34.2387C78.5653 34.1787 78.4873 34.0827 78.4393 33.9507C78.3913 33.8187 78.3913 33.6567 78.4393 33.4647L82.6873 20.2707C82.7473 20.1027 82.8373 19.9827 82.9573 19.9107C83.0773 19.8267 83.2033 19.7847 83.3353 19.7847C83.4793 19.7847 83.6113 19.8207 83.7313 19.8927C83.8513 19.9647 83.9353 20.0667 83.9833 20.1987C84.0313 20.3187 84.0313 20.4747 83.9833 20.6667L79.7173 33.8607ZM90.4774 33.3927C90.2134 33.3927 90.0094 33.3207 89.8654 33.1767C89.7214 33.0207 89.6494 32.8047 89.6494 32.5287V21.4227C89.6494 21.1467 89.7214 20.9367 89.8654 20.7927C90.0214 20.6487 90.2314 20.5767 90.4954 20.5767H94.7794C96.1474 20.5767 97.1974 20.9007 97.9294 21.5487C98.6734 22.1847 99.0454 23.0907 99.0454 24.2667C99.0454 25.0347 98.8774 25.6947 98.5414 26.2467C98.2054 26.7867 97.7194 27.2007 97.0834 27.4887C96.4474 27.7767 95.6794 27.9207 94.7794 27.9207L94.9594 27.6687H95.3554C95.8354 27.6687 96.2494 27.7887 96.5974 28.0287C96.9574 28.2687 97.2754 28.6527 97.5514 29.1807L99.2074 32.2227C99.3154 32.4147 99.3634 32.6007 99.3514 32.7807C99.3394 32.9607 99.2734 33.1107 99.1534 33.2307C99.0334 33.3387 98.8594 33.3927 98.6314 33.3927C98.3914 33.3927 98.1994 33.3447 98.0554 33.2487C97.9114 33.1407 97.7854 32.9847 97.6774 32.7807L95.7334 29.2167C95.4694 28.7127 95.1694 28.3827 94.8334 28.2267C94.4974 28.0587 94.0474 27.9747 93.4834 27.9747H91.3234V32.5287C91.3234 32.8047 91.2514 33.0207 91.1074 33.1767C90.9754 33.3207 90.7654 33.3927 90.4774 33.3927ZM91.3234 26.6787H94.5094C95.4694 26.6787 96.1894 26.4807 96.6694 26.0847C97.1494 25.6767 97.3894 25.0827 97.3894 24.3027C97.3894 23.5227 97.1494 22.9347 96.6694 22.5387C96.1894 22.1427 95.4694 21.9447 94.5094 21.9447H91.3234V26.6787ZM105.186 33.4287C104.238 33.4287 103.422 33.2487 102.738 32.8887C102.066 32.5167 101.544 31.9947 101.172 31.3227C100.8 30.6387 100.614 29.8347 100.614 28.9107C100.614 27.9987 100.794 27.2007 101.154 26.5167C101.526 25.8327 102.03 25.2987 102.666 24.9147C103.314 24.5307 104.052 24.3387 104.88 24.3387C105.468 24.3387 105.996 24.4407 106.464 24.6447C106.944 24.8367 107.352 25.1187 107.688 25.4907C108.024 25.8627 108.276 26.3187 108.444 26.8587C108.624 27.3867 108.714 27.9867 108.714 28.6587C108.714 28.8507 108.654 29.0007 108.534 29.1087C108.426 29.2047 108.264 29.2527 108.048 29.2527H101.892V28.2087H107.634L107.328 28.4607C107.328 27.8367 107.232 27.3087 107.04 26.8767C106.86 26.4327 106.59 26.0967 106.23 25.8687C105.882 25.6407 105.444 25.5267 104.916 25.5267C104.34 25.5267 103.848 25.6647 103.44 25.9407C103.032 26.2047 102.72 26.5827 102.504 27.0747C102.288 27.5547 102.18 28.1127 102.18 28.7487V28.8567C102.18 29.9367 102.438 30.7527 102.954 31.3047C103.47 31.8567 104.214 32.1327 105.186 32.1327C105.57 32.1327 105.96 32.0847 106.356 31.9887C106.764 31.8927 107.154 31.7187 107.526 31.4667C107.706 31.3587 107.868 31.3107 108.012 31.3227C108.168 31.3227 108.294 31.3707 108.39 31.4667C108.486 31.5507 108.546 31.6587 108.57 31.7907C108.594 31.9107 108.576 32.0427 108.516 32.1867C108.456 32.3307 108.342 32.4567 108.174 32.5647C107.778 32.8407 107.304 33.0567 106.752 33.2127C106.212 33.3567 105.69 33.4287 105.186 33.4287ZM114.495 36.6687C113.847 36.6687 113.217 36.5967 112.605 36.4527C112.005 36.3087 111.459 36.0867 110.967 35.7867C110.811 35.6907 110.703 35.5767 110.643 35.4447C110.595 35.3247 110.583 35.1987 110.607 35.0667C110.643 34.9347 110.703 34.8147 110.787 34.7067C110.883 34.6107 110.991 34.5447 111.111 34.5087C111.243 34.4847 111.375 34.5147 111.507 34.5987C112.035 34.8987 112.539 35.1027 113.019 35.2107C113.499 35.3187 113.955 35.3727 114.387 35.3727C115.239 35.3727 115.875 35.1507 116.295 34.7067C116.727 34.2747 116.943 33.6387 116.943 32.7987V30.8547H117.105C116.937 31.5267 116.559 32.0607 115.971 32.4567C115.395 32.8527 114.723 33.0507 113.955 33.0507C113.163 33.0507 112.473 32.8707 111.885 32.5107C111.297 32.1387 110.841 31.6287 110.517 30.9807C110.193 30.3207 110.031 29.5587 110.031 28.6947C110.031 28.0347 110.121 27.4407 110.301 26.9127C110.493 26.3727 110.757 25.9167 111.093 25.5447C111.441 25.1607 111.855 24.8667 112.335 24.6627C112.815 24.4467 113.355 24.3387 113.955 24.3387C114.735 24.3387 115.413 24.5367 115.989 24.9327C116.565 25.3287 116.937 25.8627 117.105 26.5347L116.907 26.7867V25.2027C116.907 24.9267 116.979 24.7227 117.123 24.5907C117.267 24.4467 117.471 24.3747 117.735 24.3747C117.987 24.3747 118.185 24.4467 118.329 24.5907C118.473 24.7227 118.545 24.9267 118.545 25.2027V32.5827C118.545 33.9387 118.197 34.9587 117.501 35.6427C116.817 36.3267 115.815 36.6687 114.495 36.6687ZM114.315 31.7547C114.855 31.7547 115.317 31.6347 115.701 31.3947C116.097 31.1427 116.397 30.7887 116.601 30.3327C116.817 29.8647 116.925 29.3187 116.925 28.6947C116.925 27.7467 116.691 27.0027 116.223 26.4627C115.755 25.9107 115.119 25.6347 114.315 25.6347C113.775 25.6347 113.307 25.7607 112.911 26.0127C112.527 26.2527 112.227 26.6007 112.011 27.0567C111.795 27.5127 111.687 28.0587 111.687 28.6947C111.687 29.6307 111.921 30.3747 112.389 30.9267C112.869 31.4787 113.511 31.7547 114.315 31.7547ZM121.782 33.3567C121.53 33.3567 121.332 33.2787 121.188 33.1227C121.044 32.9667 120.972 32.7507 120.972 32.4747V25.2927C120.972 25.0047 121.044 24.7887 121.188 24.6447C121.332 24.4887 121.53 24.4107 121.782 24.4107C122.046 24.4107 122.25 24.4887 122.394 24.6447C122.538 24.7887 122.61 25.0047 122.61 25.2927V32.4747C122.61 32.7507 122.538 32.9667 122.394 33.1227C122.262 33.2787 122.058 33.3567 121.782 33.3567ZM121.782 22.4667C121.458 22.4667 121.2 22.3827 121.008 22.2147C120.828 22.0347 120.738 21.8007 120.738 21.5127C120.738 21.2007 120.828 20.9667 121.008 20.8107C121.2 20.6427 121.458 20.5587 121.782 20.5587C122.13 20.5587 122.388 20.6427 122.556 20.8107C122.736 20.9667 122.826 21.2007 122.826 21.5127C122.826 21.8007 122.736 22.0347 122.556 22.2147C122.388 22.3827 122.13 22.4667 121.782 22.4667ZM128.07 33.4287C127.53 33.4287 126.984 33.3687 126.432 33.2487C125.892 33.1167 125.382 32.8947 124.902 32.5827C124.77 32.4987 124.674 32.3967 124.614 32.2767C124.566 32.1447 124.548 32.0187 124.56 31.8987C124.584 31.7667 124.638 31.6527 124.722 31.5567C124.806 31.4607 124.908 31.4067 125.028 31.3947C125.16 31.3707 125.298 31.4007 125.442 31.4847C125.91 31.7487 126.36 31.9347 126.792 32.0427C127.236 32.1507 127.674 32.2047 128.106 32.2047C128.766 32.2047 129.264 32.0847 129.6 31.8447C129.936 31.6047 130.104 31.2867 130.104 30.8907C130.104 30.5547 129.99 30.2967 129.762 30.1167C129.546 29.9247 129.204 29.7807 128.736 29.6847L127.062 29.3427C126.318 29.1747 125.754 28.8987 125.37 28.5147C124.998 28.1187 124.812 27.6147 124.812 27.0027C124.812 26.4627 124.956 25.9947 125.244 25.5987C125.544 25.1907 125.958 24.8787 126.486 24.6627C127.014 24.4467 127.62 24.3387 128.304 24.3387C128.832 24.3387 129.33 24.4107 129.798 24.5547C130.278 24.6867 130.71 24.8907 131.094 25.1667C131.238 25.2507 131.328 25.3587 131.364 25.4907C131.412 25.6107 131.418 25.7367 131.382 25.8687C131.358 25.9887 131.304 26.0907 131.22 26.1747C131.136 26.2587 131.028 26.3127 130.896 26.3367C130.764 26.3487 130.62 26.3127 130.464 26.2287C130.116 25.9887 129.756 25.8207 129.384 25.7247C129.024 25.6167 128.664 25.5627 128.304 25.5627C127.656 25.5627 127.164 25.6887 126.828 25.9407C126.504 26.1927 126.342 26.5227 126.342 26.9307C126.342 27.2427 126.438 27.5007 126.63 27.7047C126.834 27.9087 127.152 28.0587 127.584 28.1547L129.258 28.4967C130.038 28.6647 130.626 28.9347 131.022 29.3067C131.418 29.6667 131.616 30.1587 131.616 30.7827C131.616 31.5987 131.292 32.2467 130.644 32.7267C130.008 33.1947 129.15 33.4287 128.07 33.4287ZM137.097 33.4287C136.389 33.4287 135.795 33.3027 135.315 33.0507C134.847 32.7987 134.493 32.4327 134.253 31.9527C134.025 31.4727 133.911 30.8847 133.911 30.1887V25.7607H132.759C132.543 25.7607 132.375 25.7067 132.255 25.5987C132.135 25.4787 132.075 25.3227 132.075 25.1307C132.075 24.9267 132.135 24.7707 132.255 24.6627C132.375 24.5547 132.543 24.5007 132.759 24.5007H133.911V22.5387C133.911 22.2627 133.983 22.0587 134.127 21.9267C134.271 21.7827 134.475 21.7107 134.739 21.7107C135.003 21.7107 135.201 21.7827 135.333 21.9267C135.477 22.0587 135.549 22.2627 135.549 22.5387V24.5007H137.727C137.955 24.5007 138.129 24.5547 138.249 24.6627C138.369 24.7707 138.429 24.9267 138.429 25.1307C138.429 25.3227 138.369 25.4787 138.249 25.5987C138.129 25.7067 137.955 25.7607 137.727 25.7607H135.549V30.0447C135.549 30.7047 135.687 31.2027 135.963 31.5387C136.239 31.8747 136.695 32.0427 137.331 32.0427C137.559 32.0427 137.751 32.0247 137.907 31.9887C138.063 31.9407 138.201 31.9167 138.321 31.9167C138.429 31.9047 138.519 31.9407 138.591 32.0247C138.675 32.1087 138.717 32.2647 138.717 32.4927C138.717 32.6607 138.687 32.8167 138.627 32.9607C138.579 33.0927 138.477 33.1827 138.321 33.2307C138.177 33.2787 137.985 33.3207 137.745 33.3567C137.505 33.4047 137.289 33.4287 137.097 33.4287ZM143.676 33.4287C142.728 33.4287 141.912 33.2487 141.228 32.8887C140.556 32.5167 140.034 31.9947 139.662 31.3227C139.29 30.6387 139.104 29.8347 139.104 28.9107C139.104 27.9987 139.284 27.2007 139.644 26.5167C140.016 25.8327 140.52 25.2987 141.156 24.9147C141.804 24.5307 142.542 24.3387 143.37 24.3387C143.958 24.3387 144.486 24.4407 144.954 24.6447C145.434 24.8367 145.842 25.1187 146.178 25.4907C146.514 25.8627 146.766 26.3187 146.934 26.8587C147.114 27.3867 147.204 27.9867 147.204 28.6587C147.204 28.8507 147.144 29.0007 147.024 29.1087C146.916 29.2047 146.754 29.2527 146.538 29.2527H140.382V28.2087H146.124L145.818 28.4607C145.818 27.8367 145.722 27.3087 145.53 26.8767C145.35 26.4327 145.08 26.0967 144.72 25.8687C144.372 25.6407 143.934 25.5267 143.406 25.5267C142.83 25.5267 142.338 25.6647 141.93 25.9407C141.522 26.2047 141.21 26.5827 140.994 27.0747C140.778 27.5547 140.67 28.1127 140.67 28.7487V28.8567C140.67 29.9367 140.928 30.7527 141.444 31.3047C141.96 31.8567 142.704 32.1327 143.676 32.1327C144.06 32.1327 144.45 32.0847 144.846 31.9887C145.254 31.8927 145.644 31.7187 146.016 31.4667C146.196 31.3587 146.358 31.3107 146.502 31.3227C146.658 31.3227 146.784 31.3707 146.88 31.4667C146.976 31.5507 147.036 31.6587 147.06 31.7907C147.084 31.9107 147.066 32.0427 147.006 32.1867C146.946 32.3307 146.832 32.4567 146.664 32.5647C146.268 32.8407 145.794 33.0567 145.242 33.2127C144.702 33.3567 144.18 33.4287 143.676 33.4287ZM149.89 33.3927C149.614 33.3927 149.404 33.3207 149.26 33.1767C149.116 33.0327 149.044 32.8227 149.044 32.5467V25.2027C149.044 24.9267 149.116 24.7227 149.26 24.5907C149.404 24.4467 149.602 24.3747 149.854 24.3747C150.106 24.3747 150.298 24.4467 150.43 24.5907C150.574 24.7227 150.646 24.9267 150.646 25.2027V26.5887H150.466C150.658 25.8687 151.018 25.3227 151.546 24.9507C152.074 24.5787 152.74 24.3687 153.544 24.3207C153.736 24.3087 153.892 24.3567 154.012 24.4647C154.132 24.5607 154.198 24.7287 154.21 24.9687C154.222 25.1967 154.168 25.3827 154.048 25.5267C153.928 25.6587 153.742 25.7367 153.49 25.7607L153.166 25.7787C152.374 25.8627 151.762 26.1207 151.33 26.5527C150.91 26.9847 150.7 27.5787 150.7 28.3347V32.5467C150.7 32.8227 150.628 33.0327 150.484 33.1767C150.352 33.3207 150.154 33.3927 149.89 33.3927Z" fill="black"/>
</svg>
