<svg width="217" height="63" viewBox="0 0 217 63" fill="none" xmlns="http://www.w3.org/2000/svg">
<rect x="2.26562" y="3.83331" width="213.189" height="57.6667" rx="19.5" fill="#FDD8C1" stroke="#6B2F00" stroke-width="3"/>
<rect x="11.8639" y="1.5" width="203.59" height="49.7333" rx="19.5" fill="#F9EFE3" stroke="#6B2F00" stroke-width="3"/>
<path d="M198.565 33.0167L194.486 28.8517C194.162 29.1161 193.79 29.3255 193.369 29.4798C192.948 29.634 192.5 29.7111 192.026 29.7111C190.849 29.7111 189.854 29.2952 189.039 28.4633C188.224 27.6314 187.817 26.6149 187.817 25.4139C187.817 24.2129 188.224 23.1964 189.039 22.3645C189.854 21.5326 190.849 21.1167 192.026 21.1167C193.202 21.1167 194.197 21.5326 195.012 22.3645C195.827 23.1964 196.234 24.2129 196.234 25.4139C196.234 25.8987 196.159 26.356 196.008 26.7857C195.857 27.2154 195.652 27.5956 195.393 27.9261L199.472 32.0911L198.565 33.0167ZM192.026 28.3889C192.835 28.3889 193.523 28.0997 194.09 27.5212C194.656 26.9427 194.939 26.2403 194.939 25.4139C194.939 24.5875 194.656 23.8851 194.09 23.3066C193.523 22.7282 192.835 22.4389 192.026 22.4389C191.216 22.4389 190.528 22.7282 189.962 23.3066C189.395 23.8851 189.112 24.5875 189.112 25.4139C189.112 26.2403 189.395 26.9427 189.962 27.5212C190.528 28.0997 191.216 28.3889 192.026 28.3889Z" fill="#1D1B20"/>
</svg>
