<svg width="62" height="63" viewBox="0 0 62 63" fill="none" xmlns="http://www.w3.org/2000/svg">
<rect x="2.16125" y="4.76666" width="58.2458" height="56.7333" rx="19.5" fill="#FDD8C1" stroke="#6B2F00" stroke-width="3"/>
<rect x="11.7595" y="1.5" width="48.6476" height="49.7333" rx="19.5" fill="#F9EFE3" stroke="#6B2F00" stroke-width="3"/>
<g clip-path="url(#clip0_185_839)">
<path d="M29.5702 22.1667L31.5127 19.5222H39.2827L41.2252 22.1667M29.5702 22.1667V31.4222C29.5702 31.7729 29.7066 32.1092 29.9495 32.3572C30.1923 32.6051 30.5217 32.7444 30.8652 32.7444H39.9302C40.2737 32.7444 40.6031 32.6051 40.8459 32.3572C41.0888 32.1092 41.2252 31.7729 41.2252 31.4222V22.1667M29.5702 22.1667H41.2252M37.9877 24.8111C37.9877 25.5125 37.7148 26.1851 37.2291 26.681C36.7434 27.1769 36.0846 27.4555 35.3977 27.4555C34.7108 27.4555 34.052 27.1769 33.5663 26.681C33.0806 26.1851 32.8077 25.5125 32.8077 24.8111" stroke="#1E1E1E" stroke-width="1.6" stroke-linecap="round" stroke-linejoin="round"/>
</g>
<defs>
<clipPath id="clip0_185_839">
<rect width="15.54" height="15.8667" fill="white" transform="translate(27.6277 18.2)"/>
</clipPath>
</defs>
</svg>
