<svg width="219" height="88" viewBox="0 0 219 88" fill="none" xmlns="http://www.w3.org/2000/svg">
<rect x="1.5" y="6.06299" width="216" height="80.437" rx="19.5" fill="#FDD8C1" stroke="#6B2F00" stroke-width="3"/>
<rect x="17.5244" y="1.5" width="199.976" height="70.6593" rx="19.5" fill="#F9EFE3" stroke="#6B2F00" stroke-width="3"/>
<path d="M46.5687 49.808C46.0787 49.808 45.682 49.703 45.3787 49.493C45.0754 49.2597 44.8187 48.9097 44.6087 48.443L35.1237 26.778C34.937 26.3347 34.8787 25.9613 34.9487 25.658C35.042 25.3313 35.217 25.0863 35.4737 24.923C35.7537 24.7363 36.0804 24.643 36.4537 24.643C36.9437 24.643 37.3054 24.748 37.5387 24.958C37.7954 25.168 38.017 25.483 38.2037 25.903L47.2337 46.868H46.0087L55.0037 25.903C55.1904 25.483 55.412 25.168 55.6687 24.958C55.9254 24.748 56.287 24.643 56.7537 24.643C57.127 24.643 57.4304 24.7363 57.6637 24.923C57.9204 25.1097 58.072 25.3663 58.1187 25.693C58.1887 25.9963 58.142 26.358 57.9787 26.778L48.4587 48.443C48.272 48.9097 48.027 49.2597 47.7237 49.493C47.4437 49.703 47.0587 49.808 46.5687 49.808ZM63.4608 49.738C62.9708 49.738 62.5858 49.5863 62.3058 49.283C62.0258 48.9797 61.8858 48.5597 61.8858 48.023V34.058C61.8858 33.498 62.0258 33.078 62.3058 32.798C62.5858 32.4947 62.9708 32.343 63.4608 32.343C63.9742 32.343 64.3708 32.4947 64.6508 32.798C64.9308 33.078 65.0708 33.498 65.0708 34.058V48.023C65.0708 48.5597 64.9308 48.9797 64.6508 49.283C64.3942 49.5863 63.9975 49.738 63.4608 49.738ZM63.4608 28.563C62.8308 28.563 62.3292 28.3997 61.9558 28.073C61.6058 27.723 61.4308 27.268 61.4308 26.708C61.4308 26.1013 61.6058 25.6463 61.9558 25.343C62.3292 25.0163 62.8308 24.853 63.4608 24.853C64.1375 24.853 64.6392 25.0163 64.9658 25.343C65.3158 25.6463 65.4908 26.1013 65.4908 26.708C65.4908 27.268 65.3158 27.723 64.9658 28.073C64.6392 28.3997 64.1375 28.563 63.4608 28.563ZM77.6815 49.878C75.8382 49.878 74.2515 49.528 72.9215 48.828C71.6148 48.1047 70.5998 47.0897 69.8765 45.783C69.1532 44.453 68.7915 42.8897 68.7915 41.093C68.7915 39.3197 69.1415 37.768 69.8415 36.438C70.5648 35.108 71.5448 34.0697 72.7815 33.323C74.0415 32.5763 75.4765 32.203 77.0865 32.203C78.2298 32.203 79.2565 32.4013 80.1665 32.798C81.0998 33.1713 81.8932 33.7197 82.5465 34.443C83.1998 35.1663 83.6898 36.053 84.0165 37.103C84.3665 38.1297 84.5415 39.2963 84.5415 40.603C84.5415 40.9763 84.4248 41.268 84.1915 41.478C83.9815 41.6647 83.6665 41.758 83.2465 41.758H71.2765V39.728H82.4415L81.8465 40.218C81.8465 39.0047 81.6598 37.978 81.2865 37.138C80.9365 36.2747 80.4115 35.6213 79.7115 35.178C79.0348 34.7347 78.1832 34.513 77.1565 34.513C76.0365 34.513 75.0798 34.7813 74.2865 35.318C73.4932 35.8313 72.8865 36.5663 72.4665 37.523C72.0465 38.4563 71.8365 39.5413 71.8365 40.778V40.988C71.8365 43.088 72.3382 44.6747 73.3415 45.748C74.3448 46.8213 75.7915 47.358 77.6815 47.358C78.4282 47.358 79.1865 47.2647 79.9565 47.078C80.7498 46.8913 81.5082 46.553 82.2315 46.063C82.5815 45.853 82.8965 45.7597 83.1765 45.783C83.4798 45.783 83.7248 45.8763 83.9115 46.063C84.0982 46.2263 84.2148 46.4363 84.2615 46.693C84.3082 46.9263 84.2732 47.183 84.1565 47.463C84.0398 47.743 83.8182 47.988 83.4915 48.198C82.7215 48.7347 81.7998 49.1547 80.7265 49.458C79.6765 49.738 78.6615 49.878 77.6815 49.878ZM93.9335 49.808C93.4902 49.808 93.1052 49.703 92.7785 49.493C92.4519 49.2597 92.1952 48.8863 92.0085 48.373L86.7935 34.478C86.6302 34.0347 86.5835 33.6497 86.6535 33.323C86.7235 32.9963 86.8869 32.7397 87.1435 32.553C87.4002 32.3663 87.7385 32.273 88.1585 32.273C88.5552 32.273 88.8702 32.3663 89.1035 32.553C89.3369 32.7397 89.5352 33.078 89.6985 33.568L94.4585 47.008H93.6185L98.5185 33.498C98.6819 33.078 98.8919 32.7747 99.1485 32.588C99.4285 32.378 99.7669 32.273 100.164 32.273C100.584 32.273 100.934 32.378 101.214 32.588C101.494 32.7747 101.692 33.078 101.809 33.498L106.639 47.008H105.834L110.664 33.498C110.827 33.0313 111.037 32.7163 111.294 32.553C111.55 32.3663 111.865 32.273 112.239 32.273C112.659 32.273 112.974 32.378 113.184 32.588C113.394 32.798 113.51 33.078 113.534 33.428C113.58 33.7547 113.534 34.1047 113.394 34.478L108.179 48.373C108.015 48.863 107.759 49.2247 107.409 49.458C107.082 49.6913 106.697 49.808 106.254 49.808C105.81 49.808 105.414 49.6913 105.064 49.458C104.737 49.2247 104.48 48.863 104.294 48.373L99.2885 34.653H100.899L95.8935 48.373C95.7069 48.863 95.4502 49.2247 95.1235 49.458C94.7969 49.6913 94.4002 49.808 93.9335 49.808ZM127.726 49.808C127.259 49.808 126.897 49.668 126.641 49.388C126.384 49.108 126.256 48.7347 126.256 48.268V26.183C126.256 25.693 126.384 25.3197 126.641 25.063C126.921 24.783 127.294 24.643 127.761 24.643C128.181 24.643 128.507 24.7247 128.741 24.888C128.997 25.0513 129.231 25.3313 129.441 25.728L138.821 43.333H137.736L147.116 25.728C147.326 25.3313 147.547 25.0513 147.781 24.888C148.014 24.7247 148.341 24.643 148.761 24.643C149.227 24.643 149.589 24.783 149.846 25.063C150.102 25.3197 150.231 25.693 150.231 26.183V48.268C150.231 48.7347 150.102 49.108 149.846 49.388C149.612 49.668 149.251 49.808 148.761 49.808C148.271 49.808 147.897 49.668 147.641 49.388C147.407 49.108 147.291 48.7347 147.291 48.268V29.403H148.061L139.661 45.118C139.474 45.4213 139.276 45.6547 139.066 45.818C138.879 45.958 138.611 46.028 138.261 46.028C137.934 46.028 137.654 45.9463 137.421 45.783C137.211 45.6197 137.024 45.398 136.861 45.118L128.356 29.368H129.196V48.268C129.196 48.7347 129.067 49.108 128.811 49.388C128.577 49.668 128.216 49.808 127.726 49.808ZM162.67 49.878C160.99 49.878 159.531 49.5163 158.295 48.793C157.058 48.0697 156.101 47.043 155.425 45.713C154.748 44.383 154.41 42.8197 154.41 41.023C154.41 39.6697 154.596 38.4563 154.97 37.383C155.366 36.2863 155.926 35.353 156.65 34.583C157.373 33.813 158.236 33.2297 159.24 32.833C160.266 32.413 161.41 32.203 162.67 32.203C164.35 32.203 165.808 32.5647 167.045 33.288C168.281 34.0113 169.238 35.038 169.915 36.368C170.591 37.6747 170.93 39.2263 170.93 41.023C170.93 42.3763 170.731 43.6013 170.335 44.698C169.961 45.7947 169.413 46.728 168.69 47.498C167.966 48.268 167.091 48.863 166.065 49.283C165.061 49.6797 163.93 49.878 162.67 49.878ZM162.67 47.358C163.696 47.358 164.583 47.113 165.33 46.623C166.1 46.133 166.683 45.4213 167.08 44.488C167.5 43.5547 167.71 42.3997 167.71 41.023C167.71 38.9697 167.255 37.4063 166.345 36.333C165.435 35.2597 164.21 34.723 162.67 34.723C161.666 34.723 160.78 34.968 160.01 35.458C159.263 35.9247 158.68 36.6247 158.26 37.558C157.84 38.4913 157.63 39.6463 157.63 41.023C157.63 43.0763 158.085 44.6513 158.995 45.748C159.928 46.8213 161.153 47.358 162.67 47.358ZM176.27 49.808C175.733 49.808 175.325 49.668 175.045 49.388C174.765 49.108 174.625 48.6997 174.625 48.163V33.883C174.625 33.3463 174.765 32.9497 175.045 32.693C175.325 32.413 175.71 32.273 176.2 32.273C176.69 32.273 177.063 32.413 177.32 32.693C177.6 32.9497 177.74 33.3463 177.74 33.883V36.578H177.39C177.763 35.178 178.463 34.1163 179.49 33.393C180.516 32.6697 181.811 32.2613 183.375 32.168C183.748 32.1447 184.051 32.238 184.285 32.448C184.518 32.6347 184.646 32.9613 184.67 33.428C184.693 33.8713 184.588 34.233 184.355 34.513C184.121 34.7697 183.76 34.9213 183.27 34.968L182.64 35.003C181.1 35.1663 179.91 35.668 179.07 36.508C178.253 37.348 177.845 38.503 177.845 39.973V48.163C177.845 48.6997 177.705 49.108 177.425 49.388C177.168 49.668 176.783 49.808 176.27 49.808ZM194.659 49.878C192.815 49.878 191.229 49.528 189.899 48.828C188.592 48.1047 187.577 47.0897 186.854 45.783C186.13 44.453 185.769 42.8897 185.769 41.093C185.769 39.3197 186.119 37.768 186.819 36.438C187.542 35.108 188.522 34.0697 189.759 33.323C191.019 32.5763 192.454 32.203 194.064 32.203C195.207 32.203 196.234 32.4013 197.144 32.798C198.077 33.1713 198.87 33.7197 199.524 34.443C200.177 35.1663 200.667 36.053 200.994 37.103C201.344 38.1297 201.519 39.2963 201.519 40.603C201.519 40.9763 201.402 41.268 201.169 41.478C200.959 41.6647 200.644 41.758 200.224 41.758H188.254V39.728H199.419L198.824 40.218C198.824 39.0047 198.637 37.978 198.264 37.138C197.914 36.2747 197.389 35.6213 196.689 35.178C196.012 34.7347 195.16 34.513 194.134 34.513C193.014 34.513 192.057 34.7813 191.264 35.318C190.47 35.8313 189.864 36.5663 189.444 37.523C189.024 38.4563 188.814 39.5413 188.814 40.778V40.988C188.814 43.088 189.315 44.6747 190.319 45.748C191.322 46.8213 192.769 47.358 194.659 47.358C195.405 47.358 196.164 47.2647 196.934 47.078C197.727 46.8913 198.485 46.553 199.209 46.063C199.559 45.853 199.874 45.7597 200.154 45.783C200.457 45.783 200.702 45.8763 200.889 46.063C201.075 46.2263 201.192 46.4363 201.239 46.693C201.285 46.9263 201.25 47.183 201.134 47.463C201.017 47.743 200.795 47.988 200.469 48.198C199.699 48.7347 198.777 49.1547 197.704 49.458C196.654 49.738 195.639 49.878 194.659 49.878Z" fill="black"/>
</svg>
