<svg width="62" height="63" viewBox="0 0 62 63" fill="none" xmlns="http://www.w3.org/2000/svg">
<rect x="1.48999" y="4.76666" width="58.246" height="56.7333" rx="19.5" fill="#FDD8C1" stroke="#6B2F00" stroke-width="3"/>
<rect x="11.0883" y="1.5" width="48.6477" height="49.7333" rx="19.5" fill="#F9EFE3" stroke="#6B2F00" stroke-width="3"/>
<g clip-path="url(#clip0_185_809)">
<path d="M41.3646 21.7144C41.0338 21.3766 40.6412 21.1086 40.209 20.9257C39.7768 20.7429 39.3136 20.6488 38.8458 20.6488C38.378 20.6488 37.9147 20.7429 37.4826 20.9257C37.0504 21.1086 36.6577 21.3766 36.327 21.7144L35.6406 22.4152L34.9543 21.7144C34.2863 21.0323 33.3802 20.6492 32.4355 20.6492C31.4908 20.6492 30.5847 21.0323 29.9167 21.7144C29.2487 22.3965 28.8734 23.3215 28.8734 24.2861C28.8734 25.2507 29.2487 26.1758 29.9167 26.8578L35.6406 32.7021L41.3646 26.8578C41.6954 26.5202 41.9579 26.1193 42.137 25.678C42.316 25.2367 42.4082 24.7638 42.4082 24.2861C42.4082 23.8085 42.316 23.3355 42.137 22.8942C41.9579 22.453 41.6954 22.0521 41.3646 21.7144Z" stroke="#1E1E1E" stroke-width="1.6" stroke-linecap="round" stroke-linejoin="round"/>
</g>
<defs>
<clipPath id="clip0_185_809">
<rect width="15.54" height="15.8667" fill="white" transform="translate(27.8706 18.6667)"/>
</clipPath>
</defs>
</svg>
